<?xml version="1.0" encoding="utf-8"?>
<!-- Generator: Adobe Illustrator 23.0.2, SVG Export Plug-In . SVG Version: 6.00 Build 0)  -->
<svg version="1.1" id="Layer_1" xmlns="http://www.w3.org/2000/svg" xmlns:xlink="http://www.w3.org/1999/xlink" x="0px" y="0px"
	 viewBox="0 0 479 479" style="enable-background:new 0 0 479 479;" xml:space="preserve">
<style type="text/css">
	.st0{fill:#FFFFFF;}
</style>
<path class="st0" d="M298.9,132.6c1.3-1.9,2.3-3.9,3.1-6c3.3,0.6,6.4,1.8,9.2,3.7c5.6,3.8,12.1,5.8,18.8,6c2.1,0,4.2-0.2,6.3-0.6
	c8.8-1.5,16.6-6.4,21.7-13.7c2.8-4.3,7.2-7.3,12.3-8.2c5.1-0.9,10.3,0.4,14.3,3.5c7.3,5.1,16.3,7,25.1,5.4l-2.8-15.7
	c-5.1,0.9-10.3-0.4-14.3-3.5c-15.2-10.4-36-6.8-46.8,8.3c-2.8,4.3-7.2,7.3-12.3,8.2c-2.3,0.5-4.7,0.4-7-0.2
	c4.7-1.2,9.1-3.6,12.8-6.8c6.8-5.7,11.2-13.9,12-22.7c0.2-5.1,2.6-9.9,6.5-13.2c3.9-3.3,9.1-4.8,14.2-4.1c8.9,0.8,17.7-2,24.4-7.9
	L386,52.9c-4,3.2-9.1,4.7-14.2,4.1c-18.4-1.4-34.6,12.2-36.4,30.6c-0.2,5.1-2.6,9.9-6.5,13.2c-3.9,3.3-9.1,4.8-14.2,4.1
	c-5-0.4-10,0.3-14.7,2c-2.2-3.8-5.4-6.9-9.3-9.1l35.7-71.3c1.2-2.5,1.1-5.4-0.4-7.8c-1.5-2.4-4.1-3.8-6.8-3.8
	c-5.6,0.1-11-2.2-14.9-6.2c-14.1-13-35.8-13-49.9,0c-4,4-9.4,6.2-15,6.2c-5.6,0-11-2.2-15-6.2c-14.1-13-35.8-13-49.9,0
	c-3.9,4-9.4,6.3-15,6.2c-2.8,0-5.3,1.4-6.8,3.8c-1.5,2.4-1.6,5.3-0.4,7.8l35.7,71.3c-6,3.2-10.4,8.9-11.9,15.6s-0.1,13.7,3.9,19.2
	c-73.2,19.7-124.1,86-124.3,161.7v143.7c0,22,17.9,39.9,39.9,39.9h287.4c22,0,39.9-17.9,39.9-39.9V294.4
	C423,218.6,372.1,152.3,298.9,132.6z M184.6,21.2c4-4,9.4-6.2,15-6.2c5.6,0,11,2.2,15,6.2c14.1,13,35.8,13,49.9,0
	c4-4,9.3-6.2,15-6.2c5.6,0,11,2.2,15,6.2c3.8,3.4,8.2,6,13,7.8l-32.9,65.8h-70L171.6,29C176.4,27.2,180.8,24.6,184.6,21.2z
	 M199.6,126.7c-4.4,0-8-3.6-8-8s3.6-8,8-8h79.8c4.4,0,8,3.6,8,8s-3.6,8-8,8H199.6z M407.2,438.1c0,13.2-10.7,24-24,24H95.8
	c-13.2,0-24-10.7-24-24V294.4c0.1-83.7,67.9-151.6,151.7-151.7h31.9c83.7,0.1,151.6,67.9,151.7,151.7V438.1z"/>
<path class="st0" d="M186,352.6l95.8-95.8l11.3,11.3l-95.8,95.8L186,352.6z"/>
<path class="st0" d="M271.4,318.3c-13.2,0-24,10.7-24,24c0,13.2,10.7,24,24,24c13.2,0,24-10.7,24-24
	C295.4,329.1,284.7,318.3,271.4,318.3z M271.4,350.3c-4.4,0-8-3.6-8-8c0-4.4,3.6-8,8-8c4.4,0,8,3.6,8,8
	C279.4,346.7,275.8,350.3,271.4,350.3z"/>
<path class="st0" d="M207.6,302.4c13.2,0,24-10.7,24-24c0-13.2-10.7-24-24-24c-13.2,0-24,10.7-24,24
	C183.6,291.6,194.3,302.4,207.6,302.4z M207.6,270.4c4.4,0,8,3.6,8,8c0,4.4-3.6,8-8,8c-4.4,0-8-3.6-8-8
	C199.6,274,203.2,270.4,207.6,270.4z"/>
<path class="st0" d="M239.5,198.6c-61.7,0-111.8,50-111.8,111.8s50,111.8,111.8,111.8c61.7,0,111.8-50,111.8-111.8
	C351.2,248.7,301.2,198.6,239.5,198.6z M239.5,406.2c-52.9,0-95.8-42.9-95.8-95.8s42.9-95.8,95.8-95.8c52.9,0,95.8,42.9,95.8,95.8
	C335.2,363.2,292.4,406.1,239.5,406.2z"/>
</svg>
