<?xml version="1.0" encoding="utf-8"?>
<!-- Generator: Adobe Illustrator 24.0.0, SVG Export Plug-In . SVG Version: 6.00 Build 0)  -->
<svg version="1.1" id="Capa_1" xmlns="http://www.w3.org/2000/svg" xmlns:xlink="http://www.w3.org/1999/xlink" x="0px" y="0px"
	 viewBox="0 0 512 512" style="enable-background:new 0 0 512 512;" xml:space="preserve">
<style type="text/css">
	.st0{fill:url(#SVGID_1_);}
	.st1{display:none;opacity:0.1;fill:#590BB2;enable-background:new    ;}
	.st2{fill:#C182F9;}
	.st3{fill:#FDD250;}
	.st4{fill:#FFA052;}
	.st5{display:none;}
	.st6{display:inline;fill:#FF8736;}
	.st7{display:inline;}
	.st8{fill:#FFE783;}
	.st9{display:inline;fill:#FDD250;}
	.st10{display:inline;fill:#FFE783;}
	.st11{display:inline;fill:#FFC136;}
	.st12{fill:#FFFFFF;}
	.st13{display:inline;fill:#590BB2;}
	.st14{opacity:0.1;enable-background:new    ;}
	.st15{fill:#590BB2;}
	.st16{fill:#FFF3DA;}
	.st17{fill:#8AA8BD;}
	.st18{fill:#66DFF6;}
	.st19{fill:#FF7D97;}
	.st20{fill:#E6E6E6;}
	.st21{fill:#5ED297;}
	.st22{fill:#50758D;}
	.st23{fill:#FD646F;}
	.st24{opacity:0.27;}
</style>
<g>
	
		<linearGradient id="SVGID_1_" gradientUnits="userSpaceOnUse" x1="506.4889" y1="402.7272" x2="-33.5651" y2="90.6961" gradientTransform="matrix(1 0 0 -1 0 514)">
		<stop  offset="1.200000e-03" style="stop-color:#FFE783"/>
		<stop  offset="1" style="stop-color:#FFFFFF;stop-opacity:0"/>
	</linearGradient>
	<path class="st0" d="M361.2,275.7c-56.8,0-102.8-46-102.8-102.8v-65.2C258.5,48.2,210.2,0,150.8,0S43.1,48.2,43.1,107.7v86.2
		C43.1,369.6,185.5,512,361.2,512c59.5,0,107.7-48.2,107.7-107.7v-20.9C468.9,323.9,420.7,275.7,361.2,275.7z"/>
	<g>
		<path class="st1" d="M308.2,305.3v-35.1c0-5.5-4.5-10-10-10h-1.4l100.2-148c1.3-1.9,1.1-4.4-0.4-6.1
			c-11.1-12.3-22.2-24.7-33.3-36.9H148.8c-11.2,12.2-22.3,24.6-33.3,36.9c-1.5,1.7-1.7,4.2-0.4,6.1l100.2,148h-1.4
			c-5.5,0-10,4.5-10,10v35.1c-27.5,17.5-45.6,48.4-45.2,83.5c0.7,52.5,43.5,95.3,96,96.1c54.4,0.8,98.8-43.1,98.8-97.4
			C353.4,352.9,335.4,322.5,308.2,305.3L308.2,305.3z M330.6,118.4L256,230.9l-74.6-112.6L330.6,118.4z"/>
		<path class="st2" d="M122.1,228.2h-3v-3c0-2.8-2.2-5-5-5s-5,2.2-5,5v3h-3c-2.8,0-5,2.2-5,5s2.2,5,5,5h3v3c0,2.8,2.2,5,5,5
			s5-2.2,5-5v-3h3c2.8,0,5-2.2,5-5S124.9,228.2,122.1,228.2z"/>
		<path class="st3" d="M156.8,253h-3v-3c0-2.8-2.2-5-5-5s-5,2.2-5,5v3h-3c-2.8,0-5,2.2-5,5s2.2,5,5,5h3v3c0,2.8,2.2,5,5,5s5-2.2,5-5
			v-3h3c2.8,0,5-2.2,5-5S159.5,253,156.8,253z"/>
		<path class="st2" d="M379.3,254c-1.3,0-2.6-0.5-3.5-1.5l-4.5-4.5l-4.5,4.5c-2,2-5.1,2-7.1,0c-2-2-2-5.1,0-7.1l8-8c2-2,5.1-2,7.1,0
			l8,8c2,2,2,5.1,0,7.1C381.8,253.5,380.5,254,379.3,254z"/>
		<path class="st4" d="M379.3,454.2c-1.3,0-2.6-0.5-3.5-1.5l-4.5-4.5l-4.5,4.5c-2,2-5.1,2-7.1,0c-2-2-2-5.1,0-7.1l8-8
			c2-2,5.1-2,7.1,0l8,8c2,2,2,5.1,0,7.1C381.8,453.7,380.5,454.2,379.3,454.2z"/>
		<path class="st4" d="M122.1,345.7c-1.3,0-2.6-0.5-3.5-1.5l-4.5-4.5l-4.5,4.5c-2,2-5.1,2-7.1,0c-2-2-2-5.1,0-7.1l8-8
			c2-2,5.1-2,7.1,0l8,8c2,2,2,5.1,0,7.1C124.7,345.2,123.4,345.7,122.1,345.7z"/>
		<g class="st5">
			<path class="st6" d="M337,91.4H175l-26.3-49.2h214.5L337,91.4z"/>
			<g class="st7">
				<path class="st4" d="M363.3,42.1c11.2,12.2,22.3,24.6,33.3,36.9c1.5,1.7,1.7,4.2,0.4,6.1L288.8,245h-60L363.3,42.1z"/>
				<path class="st4" d="M148.8,42.1c-11.2,12.2-22.3,24.6-33.3,36.9c-1.5,1.7-1.7,4.2-0.4,6.1L223.2,245h60L148.8,42.1z"/>
			</g>
		</g>
		<path class="st8" d="M308.2,299.7H203.8v-56.5c0-5.5,4.5-10,10-10h84.4c5.5,0,10,4.5,10,10V299.7z"/>
		<g class="st5">
			<circle class="st9" cx="256" cy="360.5" r="97.4"/>
			<circle class="st10" cx="256" cy="360.5" r="76.7"/>
			<circle class="st11" cx="256" cy="360.5" r="66"/>
			<g class="st7">
				<path class="st12" d="M256,411.9c-28.3,0-51.4-23.1-51.4-51.4s23.1-51.4,51.4-51.4s51.4,23.1,51.4,51.4S284.3,411.9,256,411.9z
					 M256,319.1c-22.8,0-41.4,18.6-41.4,41.4c0,22.8,18.6,41.4,41.4,41.4s41.4-18.6,41.4-41.4C297.4,337.6,278.8,319.1,256,319.1z"
					/>
				<path class="st12" d="M256,411.9c-16.4,0-25.3-26.5-25.3-51.4c0-24.9,8.9-51.4,25.3-51.4s25.3,26.5,25.3,51.4
					S272.4,411.9,256,411.9L256,411.9z M256,319.1c-6.2,0-15.3,16.1-15.3,41.4c0,11.7,2,22.7,5.5,30.8c2.9,6.5,6.6,10.6,9.8,10.6
					c6.2,0,15.3-16.1,15.3-41.4c0-11.7-2-22.7-5.5-30.8C262.9,323.1,259.2,319.1,256,319.1L256,319.1z"/>
				<g>
					<path class="st12" d="M256,350.8c-16.4,0-31.8-3.6-41.2-9.8c-2.3-1.5-3-4.6-1.5-6.9s4.6-3,6.9-1.5c7.9,5.1,21.2,8.1,35.8,8.1
						c14.5,0,28.3-3.2,36-8.3c2.3-1.5,5.4-0.9,6.9,1.4c1.5,2.3,0.9,5.4-1.4,6.9C288.1,347.1,272.6,350.8,256,350.8z"/>
					<path class="st12" d="M217.1,389.3c-1.6,0-3.2-0.8-4.2-2.2c-1.5-2.3-0.9-5.4,1.4-6.9c9.4-6.3,25-10.1,41.7-10.1
						c16.4,0,31.8,3.6,41.2,9.8c2.3,1.5,3,4.6,1.5,6.9c-1.5,2.3-4.6,3-6.9,1.5c-7.9-5.1-21.2-8.1-35.8-8.1
						c-14.6,0-28.4,3.2-36.1,8.4C219,389.1,218.1,389.3,217.1,389.3L217.1,389.3z"/>
				</g>
			</g>
			<path class="st13" d="M400.3,75.7l-0.4-0.4c-10.8-12-21.9-24.4-33-36.5c-0.9-1-2.3-1.6-3.7-1.6H148.8c-1.4,0-2.8,0.6-3.7,1.6
				c-11.1,12.1-22.2,24.5-33,36.5l-0.4,0.4c-3.1,3.4-3.4,8.5-0.8,12.3l96.1,141.9c-4.8,2.5-8.1,7.5-8.1,13.3v32.4
				c-27.2,18.4-45.2,49.6-45.2,84.9c0,56.5,45.9,102.4,102.4,102.4c24.5,0,48.3-8.8,66.8-24.8c18.4-15.8,30.5-37.7,34.3-61.5
				c0.4-2.7-1.4-5.3-4.2-5.7s-5.3,1.4-5.7,4.2c-3.4,21.5-14.4,41.2-31,55.5c-16.7,14.4-38.1,22.4-60.3,22.4
				c-50.9,0-92.4-41.4-92.4-92.4s41.4-92.4,92.4-92.4c22.1,0,43.6,8,60.3,22.4c16.6,14.3,27.6,34,30.9,55.5c0.4,2.7,3,4.6,5.7,4.2
				c2.7-0.4,4.6-3,4.2-5.7c-3.8-23.8-15.9-45.7-34.3-61.5c-3.1-2.6-6.3-5.1-9.6-7.3v-32.4c0-5.8-3.3-10.8-8.1-13.3L401.2,88
				C403.7,84.2,403.4,79.1,400.3,75.7L400.3,75.7z M327.9,86.4H215.3c-2.8,0-5,2.2-5,5s2.2,5,5,5h106L256,194.9L158.1,47.1h195.9
				L327.9,86.4z M119.5,82c9.4-10.4,19-21.2,28.6-31.7l117.9,178h-48.2L119.1,82.4L119.5,82z M256,258.1c-17,0-33.1,4.2-47.2,11.5
				v-26.5c0-2.8,2.2-5,5-5h84.4c2.8,0,5,2.2,5,5v26.4C288.7,262.1,272.5,258.1,256,258.1L256,258.1z M294.1,228.2h-16.1L262,203.9
				l72.8-109.8l29.1-43.9c9.6,10.6,19.3,21.3,28.6,31.7l0.4,0.4L294.1,228.2z"/>
		</g>
	</g>
</g>
<g id="XMLID_1_" class="st14">
	<path id="XMLID_17_" class="st15" d="M558.1-20.3H807v325.6H558.1V-20.3z"/>
	<g id="XMLID_13_">
		<path id="XMLID_16_" class="st15" d="M733.4,253.3l-5.6,52.1l42.3-30.9L733.4,253.3z"/>
		<path id="XMLID_15_" class="st15" d="M836.9,74l36.7,21.2L770.1,274.4l-36.7-21.2L836.9,74z"/>
		<path id="XMLID_14_" class="st15" d="M873.6,95.2L836.9,74l7.1-12.3c5.8-10.1,18.8-13.6,28.9-7.8c10.1,5.8,13.6,18.8,7.8,28.9
			L873.6,95.2z"/>
	</g>
	<g id="XMLID_2_">
		<path id="XMLID_12_" class="st15" d="M749.4,80.3H615.7c-3.7,0-6.6,3-6.6,6.6s3,6.6,6.6,6.6h133.7c3.7,0,6.6-3,6.6-6.6
			S753.1,80.3,749.4,80.3z"/>
		<path id="XMLID_11_" class="st15" d="M615.7,130.6h44.1c3.7,0,6.6-3,6.6-6.6s-3-6.6-6.6-6.6h-44.1c-3.7,0-6.6,3-6.6,6.6
			S612.1,130.6,615.7,130.6z"/>
		<path id="XMLID_10_" class="st15" d="M749.4,117.4h-49.1c-3.7,0-6.6,3-6.6,6.6s3,6.6,6.6,6.6h49.1c3.7,0,6.6-3,6.6-6.6
			S753.1,117.4,749.4,117.4z"/>
		<path id="XMLID_9_" class="st15" d="M749.4,43.2H615.7c-3.7,0-6.6,3-6.6,6.6c0,3.7,3,6.6,6.6,6.6h133.7c3.7,0,6.6-3,6.6-6.6
			C756,46.2,753.1,43.2,749.4,43.2z"/>
		<path id="XMLID_8_" class="st15" d="M756,161.1c0-3.7-3-6.6-6.6-6.6H615.7c-3.7,0-6.6,3-6.6,6.6s3,6.6,6.6,6.6h133.7
			C753.1,167.7,756,164.7,756,161.1z"/>
		<path id="XMLID_7_" class="st15" d="M615.7,204.7h34.1c3.7,0,6.6-3,6.6-6.6s-3-6.6-6.6-6.6h-34.1c-3.7,0-6.6,3-6.6,6.6
			S612.1,204.7,615.7,204.7z"/>
		<path id="XMLID_6_" class="st15" d="M727.6,198.1c0-3.7-3-6.6-6.6-6.6h-41.4c-3.7,0-6.6,3-6.6,6.6s3,6.6,6.6,6.6h41.4
			C724.6,204.7,727.6,201.8,727.6,198.1z"/>
		<path id="XMLID_5_" class="st15" d="M615.7,241.8H674c3.7,0,6.6-3,6.6-6.6s-3-6.6-6.6-6.6h-58.2c-3.7,0-6.6,3-6.6,6.6
			S612.1,241.8,615.7,241.8z"/>
		<path id="XMLID_4_" class="st15" d="M876.2,48.2c-13.3-7.7-30.3-3.1-38,10.2l-24.7,42.7V65.8c0-3.7-3-6.6-6.6-6.6
			c-3.7,0-6.6,3-6.6,6.6V124c0,0,0,0,0,0.1L727.7,250c-0.5,0.8-0.7,1.7-0.8,2.6l-5,46.2H564.7V-13.7h235.6V6.2c0,3.7,3,6.6,6.6,6.6
			c3.7,0,6.6-3,6.6-6.6v-26.5c0-3.7-3-6.6-6.6-6.6H558.1c-3.7,0-6.6,3-6.6,6.6v325.6c0,3.7,3,6.6,6.6,6.6H807c3.7,0,6.6-3,6.6-6.6
			v-93l72.8-126.1C894.1,72.9,889.5,55.9,876.2,48.2L876.2,48.2z M767.7,265.4l-25.2-14.6l96.9-167.8l25.2,14.6L767.7,265.4z
			 M738.9,264.1l19.1,11l-22,16.1L738.9,264.1z M869.6,59.7c7,4,9.3,12.9,5.3,19.9l-3.8,6.6l-25.2-14.6l3.8-6.6
			C853.7,58.1,862.7,55.7,869.6,59.7z M800.4,298.7h-52.3l25.9-18.9c0.7-0.5,1.4-1.2,1.8-2l24.5-42.5V298.7z"/>
		<path id="XMLID_3_" class="st15" d="M807,29.4c-1.7,0-3.4,0.7-4.7,1.9c-1.2,1.2-1.9,2.9-1.9,4.7c0,1.7,0.7,3.4,1.9,4.7
			c1.2,1.2,2.9,1.9,4.7,1.9c1.7,0,3.4-0.7,4.7-1.9c1.2-1.2,1.9-2.9,1.9-4.7s-0.7-3.4-1.9-4.7C810.4,30.1,808.7,29.4,807,29.4z"/>
	</g>
</g>
<g id="XMLID_991_">
	<path id="XMLID_322_" class="st16" d="M555.1-4.5h253.6v331.8H555.1V-4.5z"/>
	<g id="XMLID_2117_">
		<path id="XMLID_2114_" class="st17" d="M733.7,274.2l-5.7,53.1l43.1-31.5L733.7,274.2z"/>
		<path id="XMLID_2075_" class="st18" d="M839.1,91.6l37.4,21.6L771,295.8l-37.4-21.6L839.1,91.6z"/>
		<path id="XMLID_1437_" class="st19" d="M876.5,113.2l-37.4-21.6l7.2-12.5c6-10.3,19.2-13.9,29.5-7.9c10.3,6,13.9,19.2,7.9,29.5
			L876.5,113.2z"/>
	</g>
	<g id="XMLID_1217_">
		<path id="XMLID_1218_" class="st15" d="M749.9,98H613.7c-3.7,0-6.7,3-6.7,6.7s3,6.7,6.7,6.7h136.2c3.7,0,6.7-3,6.7-6.7
			S753.7,98,749.9,98z"/>
		<path id="XMLID_1262_" class="st15" d="M613.7,149.3h45c3.7,0,6.7-3,6.7-6.7s-3-6.7-6.7-6.7h-45c-3.7,0-6.7,3-6.7,6.7
			S610,149.3,613.7,149.3z"/>
		<path id="XMLID_1263_" class="st15" d="M749.9,135.8h-50.1c-3.7,0-6.7,3-6.7,6.7s3,6.7,6.7,6.7h50.1c3.7,0,6.7-3,6.7-6.7
			S753.7,135.8,749.9,135.8z"/>
		<path id="XMLID_1284_" class="st15" d="M749.9,60.3H613.7c-3.7,0-6.7,3-6.7,6.7s3,6.7,6.7,6.7h136.2c3.7,0,6.7-3,6.7-6.7
			S753.7,60.3,749.9,60.3z"/>
		<path id="XMLID_1309_" class="st15" d="M756.7,180.3c0-3.7-3-6.7-6.7-6.7H613.7c-3.7,0-6.7,3-6.7,6.7c0,3.7,3,6.7,6.7,6.7h136.2
			C753.7,187,756.7,184,756.7,180.3z"/>
		<path id="XMLID_1334_" class="st15" d="M613.7,224.8h34.7c3.7,0,6.7-3,6.7-6.7c0-3.7-3-6.7-6.7-6.7h-34.7c-3.7,0-6.7,3-6.7,6.7
			C607,221.8,610,224.8,613.7,224.8z"/>
		<path id="XMLID_1337_" class="st15" d="M727.7,218.1c0-3.7-3-6.7-6.7-6.7h-42.1c-3.7,0-6.7,3-6.7,6.7c0,3.7,3,6.7,6.7,6.7h42.1
			C724.7,224.8,727.7,221.8,727.7,218.1z"/>
		<path id="XMLID_1338_" class="st15" d="M613.7,262.6h59.3c3.7,0,6.7-3,6.7-6.7s-3-6.7-6.7-6.7h-59.3c-3.7,0-6.7,3-6.7,6.7
			S610,262.6,613.7,262.6z"/>
		<path id="XMLID_1350_" class="st15" d="M879.2,65.3c-13.5-7.8-30.9-3.2-38.7,10.4l-25.1,43.5v-36c0-3.7-3-6.7-6.7-6.7
			s-6.7,3-6.7,6.7v59.3c0,0,0,0,0,0.1l-74.1,128.3c-0.5,0.8-0.8,1.7-0.9,2.6l-5.1,47H561.8V2.3h240.1v20.2c0,3.7,3,6.7,6.7,6.7
			s6.7-3,6.7-6.7v-27c0-3.7-3-6.7-6.7-6.7H555.1c-3.7,0-6.7,3-6.7,6.7v331.8c0,3.7,3,6.7,6.7,6.7h253.6c3.7,0,6.7-3,6.7-6.7v-94.8
			L889.5,104C897.4,90.5,892.7,73.2,879.2,65.3L879.2,65.3z M768.6,286.6l-25.7-14.8l98.7-171l25.7,14.8L768.6,286.6z M739.2,285.3
			l19.4,11.2l-22.4,16.4L739.2,285.3z M872.4,77c7.1,4.1,9.5,13.2,5.4,20.3L874,104l-25.7-14.8l3.9-6.7
			C856.3,75.4,865.3,72.9,872.4,77z M801.9,320.6h-53.3l26.4-19.3c0.8-0.6,1.4-1.3,1.9-2.1l25-43.3V320.6z"/>
		<path id="XMLID_1354_" class="st15" d="M808.6,46.1c-1.8,0-3.5,0.7-4.8,2c-1.3,1.3-2,3-2,4.8c0,1.8,0.7,3.5,2,4.8
			c1.3,1.3,3,2,4.8,2c1.8,0,3.5-0.7,4.8-2c1.3-1.3,2-3,2-4.8s-0.7-3.5-2-4.8C812.1,46.8,810.4,46.1,808.6,46.1z"/>
	</g>
</g>
<g>
	<g>
		<path class="st18" d="M357.2,106.2v324.6c0,4.1-3.3,7.4-7.4,7.4H103.6c-4.1,0-7.4-3.3-7.4-7.4V106.2c0-4.1,3.3-7.4,7.4-7.4h246.2
			C353.8,98.8,357.2,102.2,357.2,106.2z"/>
		<path class="st17" d="M108,135.3v285.8c0,2.9,2.3,5.2,5.2,5.2h149.2c2,0,3.8-0.8,5.2-2.2l57-57V131.4H122.7l-1.2-9l-10.2,6.8
			C109.2,130.6,108,132.9,108,135.3L108,135.3z"/>
		<path class="st16" d="M335,128.4v228.5l-44.4,16.3L275.8,416H125.7c-4.1,0-7.4-3.3-7.4-7.4V128.4c0-4.1,3.3-7.4,7.4-7.4h201.8
			C331.7,121,335,124.3,335,128.4z"/>
		<path class="st20" d="M335,356.9L275.8,416v-51.8c0-4.1,3.3-7.4,7.4-7.4H335z"/>
		<path class="st20" d="M301.1,121v14.4c0,10.2-8.3,18.5-18.5,18.5H170.7c-10.2,0-18.5-8.3-18.5-18.5V121H301.1z"/>
		<path class="st17" d="M152.2,98.8h148.8V121H152.2L152.2,98.8z"/>
		<path class="st17" d="M290,98.8v36.6c0,4.1-3.3,7.4-7.4,7.4H170.7c-4.1,0-7.4-3.3-7.4-7.4V98.8l41,0c-0.5-2.3-0.7-4.8-0.5-7.4
			c1-11,10.1-19.9,21.1-20.6c13.4-0.9,24.5,9.6,24.5,22.8c0,1.8-0.2,3.5-0.6,5.2L290,98.8z"/>
		<path class="st21" d="M170,217.2c-1.4,0-2.8-0.6-3.8-1.5l-18.7-18c-2.2-2.1-2.3-5.6-0.2-7.8c2.1-2.2,5.6-2.3,7.8-0.2l14.6,14
			l22.8-25.9c2-2.3,5.5-2.5,7.8-0.5c2.3,2,2.5,5.5,0.5,7.8l-26.7,30.3c-1,1.1-2.4,1.8-3.9,1.9C170.2,217.2,170.1,217.2,170,217.2
			L170,217.2z"/>
		<path class="st22" d="M297.3,202.1h-78.4c-3.1,0-5.5-2.5-5.5-5.5c0-3.1,2.5-5.5,5.5-5.5h78.4c3.1,0,5.5,2.5,5.5,5.5
			C302.8,199.6,300.3,202.1,297.3,202.1z"/>
		<path class="st21" d="M170,282.5c-1.4,0-2.8-0.6-3.8-1.5l-18.7-18c-2.2-2.1-2.3-5.6-0.2-7.8c2.1-2.2,5.6-2.3,7.8-0.2l14.6,14
			l22.9-25.9c2-2.3,5.5-2.5,7.8-0.5c2.3,2,2.5,5.5,0.5,7.8l-26.7,30.2c-1,1.1-2.4,1.8-3.9,1.9C170.2,282.5,170.1,282.5,170,282.5
			L170,282.5z"/>
		<g>
			<path class="st22" d="M297.3,267.1h-78.4c-3.1,0-5.5-2.5-5.5-5.5s2.5-5.5,5.5-5.5h78.4c3.1,0,5.5,2.5,5.5,5.5
				S300.3,267.1,297.3,267.1z"/>
			<path class="st22" d="M297.3,334.4h-12.9c-3.1,0-5.5-2.5-5.5-5.5s2.5-5.5,5.5-5.5h12.9c3.1,0,5.5,2.5,5.5,5.5
				S300.3,334.4,297.3,334.4z"/>
			<path class="st22" d="M258.5,334.4h-39.6c-3.1,0-5.5-2.5-5.5-5.5s2.5-5.5,5.5-5.5h39.6c3.1,0,5.5,2.5,5.5,5.5
				S261.5,334.4,258.5,334.4z"/>
		</g>
		<path class="st23" d="M190.1,351.4h-34c-3.1,0-5.5-2.5-5.5-5.5v-34c0-3.1,2.5-5.5,5.5-5.5h34c3.1,0,5.5,2.5,5.5,5.5v34
			C195.6,349,193.1,351.4,190.1,351.4z M161.6,340.3h22.9v-22.9h-22.9V340.3z"/>
	</g>
	<g>
		<path class="st15" d="M166.2,215.7c2.2,2.2,6,2,8-0.3l26.7-30.3c2-2.3,1.8-5.8-0.5-7.8c-2.3-2-5.8-1.8-7.8,0.5l-22.8,25.9
			l-14.6-14c-2.2-2.1-5.7-2.1-7.8,0.2s-2.1,5.7,0.2,7.8L166.2,215.7z"/>
		<path class="st15" d="M218.9,202.1h78.4c3.1,0,5.5-2.5,5.5-5.5c0-3.1-2.5-5.5-5.5-5.5h-78.4c-3.1,0-5.5,2.5-5.5,5.5
			C213.4,199.6,215.8,202.1,218.9,202.1z"/>
		<path class="st15" d="M147.4,262.9l18.7,18c2.2,2.2,6,2,8-0.3l26.7-30.2c2-2.3,1.8-5.8-0.5-7.8c-2.3-2-5.8-1.8-7.8,0.5l-22.9,25.9
			l-14.6-14c-2.2-2.1-5.7-2.1-7.8,0.2C145.2,257.3,145.2,260.8,147.4,262.9L147.4,262.9z"/>
		<path class="st15" d="M218.9,267.1h78.4c3.1,0,5.5-2.5,5.5-5.5s-2.5-5.5-5.5-5.5h-78.4c-3.1,0-5.5,2.5-5.5,5.5
			S215.8,267.1,218.9,267.1z"/>
		<path class="st15" d="M297.3,323.3h-12.9c-3.1,0-5.5,2.5-5.5,5.5s2.5,5.5,5.5,5.5h12.9c3.1,0,5.5-2.5,5.5-5.5
			S300.3,323.3,297.3,323.3z"/>
		<path class="st15" d="M218.9,334.4h39.6c3.1,0,5.5-2.5,5.5-5.5s-2.5-5.5-5.5-5.5h-39.6c-3.1,0-5.5,2.5-5.5,5.5
			S215.8,334.4,218.9,334.4z"/>
		<path class="st15" d="M156.1,351.4h34c3.1,0,5.5-2.5,5.5-5.5v-34c0-3.1-2.5-5.5-5.5-5.5h-34c-3.1,0-5.5,2.5-5.5,5.5v34
			C150.5,349,153,351.4,156.1,351.4z M161.6,317.4h22.9v22.9h-22.9V317.4z"/>
		<path class="st15" d="M357.2,244.5c3.1,0,5.5-2.5,5.5-5.5V106.2c0-7.1-5.8-12.9-12.9-12.9l-94.7,0c-0.1-7.7-3.4-15.2-9-20.4
			c-5.8-5.4-13.4-8.1-21.4-7.6c-14.5,1-26.4,13.5-26.4,28l-94.7,0c-7.1,0-12.9,5.8-12.9,12.9v324.6c0,7.1,5.8,12.9,12.9,12.9h246.2
			c7.1,0,12.9-5.8,12.9-12.9v-166c0-3.1-2.5-5.5-5.5-5.5s-5.5,2.5-5.5,5.5v166c0,1-0.8,1.8-1.8,1.8H103.6c-1,0-1.8-0.8-1.8-1.8
			V106.2c0-1,0.8-1.8,1.8-1.8h54.2v11.1h-39.5c-3.1,0-5.5,2.5-5.5,5.5v295c0,3.1,2.5,5.5,5.5,5.5h24.8c3.1,0,5.5-2.5,5.5-5.5
			c0-3.1-2.5-5.5-5.5-5.5h-19.2V126.6h33.9v12.5c0,5.1,4.1,9.2,9.2,9.2h74.9c3.1,0,5.5-2.5,5.5-5.5c0-3.1-2.5-5.5-5.5-5.5h-73v-32.8
			h35.5c3.5,0,6.2-3.4,5.4-6.8c-2.6-10.1,5.2-20.7,15.6-21.2c11.3-1.1,21,10.3,18.1,21.2c-0.9,3.4,1.9,6.9,5.4,6.8l35.5,0v32.8
			h-16.6c-3.1,0-5.5,2.5-5.5,5.5c0,3.1,2.5,5.5,5.5,5.5h18.5c5.1,0,9.2-4.1,9.2-9.2v-12.5h33.9v224.8h-53.6c-3.1,0-5.5,2.5-5.5,5.5
			v53.6H169c-3.1,0-5.5,2.5-5.5,5.5c0,3.1,2.5,5.5,5.5,5.5h106.8c1.5,0,2.9-0.6,3.9-1.6l59.1-59.1c1-1,1.6-2.5,1.6-3.9V121
			c0-3.1-2.5-5.5-5.5-5.5h-39.5v-11.1h54.2c1,0,1.8,0.8,1.8,1.8V239C351.6,242,354.1,244.5,357.2,244.5L357.2,244.5z M281.4,402.7
			v-40.2h40.2L281.4,402.7z"/>
	</g>
</g>
<g class="st24">
	<g>
		<path class="st18" d="M368.7,115.8v324.6c0,4.1-3.3,7.4-7.4,7.4H115.1c-4.1,0-7.4-3.3-7.4-7.4V115.8c0-4.1,3.3-7.4,7.4-7.4h246.2
			C365.4,108.4,368.7,111.8,368.7,115.8z"/>
		<path class="st17" d="M119.5,144.9v285.8c0,2.9,2.3,5.2,5.2,5.2H274c2,0,3.8-0.8,5.2-2.2l57-57V141H134.3l-1.2-9l-10.2,6.8
			C120.8,140.2,119.5,142.5,119.5,144.9L119.5,144.9z"/>
		<path class="st16" d="M346.5,138v228.5l-44.4,16.3l-14.8,42.9H137.3c-4.1,0-7.4-3.3-7.4-7.4V138c0-4.1,3.3-7.4,7.4-7.4h201.8
			C343.2,130.6,346.5,133.9,346.5,138z"/>
		<path class="st20" d="M346.5,366.5l-59.1,59.1v-51.8c0-4.1,3.3-7.4,7.4-7.4H346.5z"/>
		<path class="st20" d="M312.6,130.6V145c0,10.2-8.3,18.5-18.5,18.5H182.3c-10.2,0-18.5-8.3-18.5-18.5v-14.4H312.6z"/>
		<path class="st17" d="M163.8,108.4h148.8v22.2H163.8L163.8,108.4z"/>
		<path class="st17" d="M301.5,108.4V145c0,4.1-3.3,7.4-7.4,7.4H182.3c-4.1,0-7.4-3.3-7.4-7.4v-36.6l41,0c-0.5-2.3-0.7-4.8-0.5-7.4
			c1-11,10.1-19.9,21.1-20.6c13.4-0.9,24.5,9.6,24.5,22.8c0,1.8-0.2,3.5-0.6,5.2L301.5,108.4z"/>
		<path class="st21" d="M181.6,226.8c-1.4,0-2.8-0.6-3.8-1.5l-18.7-18c-2.2-2.1-2.3-5.6-0.2-7.8c2.1-2.2,5.6-2.3,7.8-0.2l14.6,14
			l22.8-25.9c2-2.3,5.5-2.5,7.8-0.5c2.3,2,2.5,5.5,0.5,7.8l-26.7,30.3c-1,1.1-2.4,1.8-3.9,1.9C181.7,226.8,181.6,226.8,181.6,226.8
			L181.6,226.8z"/>
		<path class="st22" d="M308.8,211.7h-78.4c-3.1,0-5.5-2.5-5.5-5.5c0-3.1,2.5-5.5,5.5-5.5h78.4c3.1,0,5.5,2.5,5.5,5.5
			C314.4,209.2,311.9,211.7,308.8,211.7z"/>
		<path class="st21" d="M181.6,292.1c-1.4,0-2.8-0.6-3.8-1.5l-18.7-18c-2.2-2.1-2.3-5.6-0.2-7.8c2.1-2.2,5.6-2.3,7.8-0.2l14.6,14
			l22.9-25.9c2-2.3,5.5-2.5,7.8-0.5c2.3,2,2.5,5.5,0.5,7.8l-26.7,30.2c-1,1.1-2.4,1.8-3.9,1.9C181.7,292,181.6,292.1,181.6,292.1
			L181.6,292.1z"/>
		<g>
			<path class="st22" d="M308.8,276.7h-78.4c-3.1,0-5.5-2.5-5.5-5.5c0-3.1,2.5-5.5,5.5-5.5h78.4c3.1,0,5.5,2.5,5.5,5.5
				C314.4,274.2,311.9,276.7,308.8,276.7z"/>
			<path class="st22" d="M308.8,344h-12.9c-3.1,0-5.5-2.5-5.5-5.5s2.5-5.5,5.5-5.5h12.9c3.1,0,5.5,2.5,5.5,5.5S311.9,344,308.8,344z
				"/>
			<path class="st22" d="M270,344h-39.6c-3.1,0-5.5-2.5-5.5-5.5s2.5-5.5,5.5-5.5H270c3.1,0,5.5,2.5,5.5,5.5S273.1,344,270,344z"/>
		</g>
		<path class="st23" d="M201.6,361h-34c-3.1,0-5.5-2.5-5.5-5.5v-34c0-3.1,2.5-5.5,5.5-5.5h34c3.1,0,5.5,2.5,5.5,5.5v34
			C207.2,358.6,204.7,361,201.6,361z M173.1,349.9h22.9V327h-22.9V349.9z"/>
	</g>
	<g>
		<path class="st15" d="M177.7,225.3c2.2,2.2,6,2,8-0.3l26.7-30.3c2-2.3,1.8-5.8-0.5-7.8c-2.3-2-5.8-1.8-7.8,0.5l-22.8,25.9
			l-14.6-14c-2.2-2.1-5.7-2.1-7.8,0.2c-2.1,2.2-2.1,5.7,0.2,7.8L177.7,225.3z"/>
		<path class="st15" d="M230.4,211.7h78.4c3.1,0,5.5-2.5,5.5-5.5c0-3.1-2.5-5.5-5.5-5.5h-78.4c-3.1,0-5.5,2.5-5.5,5.5
			C224.9,209.2,227.4,211.7,230.4,211.7z"/>
		<path class="st15" d="M159,272.5l18.7,18c2.2,2.2,6,2,8-0.3l26.7-30.2c2-2.3,1.8-5.8-0.5-7.8c-2.3-2-5.8-1.8-7.8,0.5l-22.9,25.9
			l-14.6-14c-2.2-2.1-5.7-2.1-7.8,0.2S156.8,270.4,159,272.5L159,272.5z"/>
		<path class="st15" d="M230.4,276.7h78.4c3.1,0,5.5-2.5,5.5-5.5c0-3.1-2.5-5.5-5.5-5.5h-78.4c-3.1,0-5.5,2.5-5.5,5.5
			C224.9,274.2,227.4,276.7,230.4,276.7z"/>
		<path class="st15" d="M308.8,332.9h-12.9c-3.1,0-5.5,2.5-5.5,5.5s2.5,5.5,5.5,5.5h12.9c3.1,0,5.5-2.5,5.5-5.5
			S311.9,332.9,308.8,332.9z"/>
		<path class="st15" d="M230.4,344H270c3.1,0,5.5-2.5,5.5-5.5s-2.5-5.5-5.5-5.5h-39.6c-3.1,0-5.5,2.5-5.5,5.5S227.4,344,230.4,344z"
			/>
		<path class="st15" d="M167.6,361h34c3.1,0,5.5-2.5,5.5-5.5v-34c0-3.1-2.5-5.5-5.5-5.5h-34c-3.1,0-5.5,2.5-5.5,5.5v34
			C162,358.6,164.5,361,167.6,361z M173.1,327h22.9v22.9h-22.9V327z"/>
		<path class="st15" d="M368.7,254.1c3.1,0,5.5-2.5,5.5-5.5V115.8c0-7.1-5.8-12.9-12.9-12.9l-94.7,0c-0.1-7.7-3.4-15.2-9-20.4
			c-5.8-5.4-13.4-8.1-21.4-7.6c-14.5,1-26.4,13.5-26.4,28l-94.7,0c-7.1,0-12.9,5.8-12.9,12.9v324.6c0,7.1,5.8,12.9,12.9,12.9h246.2
			c7.1,0,12.9-5.8,12.9-12.9v-166c0-3.1-2.5-5.5-5.5-5.5s-5.5,2.5-5.5,5.5v166c0,1-0.8,1.8-1.8,1.8H115.1c-1,0-1.8-0.8-1.8-1.8
			V115.8c0-1,0.8-1.8,1.8-1.8h54.2v11.1h-39.5c-3.1,0-5.5,2.5-5.5,5.5v295c0,3.1,2.5,5.5,5.5,5.5h24.8c3.1,0,5.5-2.5,5.5-5.5
			c0-3.1-2.5-5.5-5.5-5.5h-19.2V136.2h33.9v12.5c0,5.1,4.1,9.2,9.2,9.2h74.9c3.1,0,5.5-2.5,5.5-5.5c0-3.1-2.5-5.5-5.5-5.5h-73V114
			h35.5c3.5,0,6.2-3.4,5.4-6.8c-2.6-10.1,5.2-20.7,15.6-21.2c11.3-1.1,21,10.3,18.1,21.2c-0.9,3.4,1.9,6.9,5.4,6.8l35.5,0v32.8
			h-16.6c-3.1,0-5.5,2.5-5.5,5.5s2.5,5.5,5.5,5.5h18.5c5.1,0,9.2-4.1,9.2-9.2v-12.5H341v224.8h-53.6c-3.1,0-5.5,2.5-5.5,5.5v53.6
			H180.5c-3.1,0-5.5,2.5-5.5,5.5c0,3.1,2.5,5.5,5.5,5.5h106.8c1.5,0,2.9-0.6,3.9-1.6l59.1-59.1c1-1,1.6-2.5,1.6-3.9V130.6
			c0-3.1-2.5-5.5-5.5-5.5h-39.5V114h54.2c1,0,1.8,0.8,1.8,1.8v132.7C363.2,251.6,365.6,254.1,368.7,254.1L368.7,254.1z M292.9,412.2
			V372h40.2L292.9,412.2z"/>
	</g>
</g>
<g>
	<g>
		<path class="st18" d="M362.7,105v324.6c0,4.1-3.3,7.4-7.4,7.4H109.1c-4.1,0-7.4-3.3-7.4-7.4V105c0-4.1,3.3-7.4,7.4-7.4h246.2
			C359.4,97.6,362.7,100.9,362.7,105z"/>
		<path class="st17" d="M113.5,134.1v285.8c0,2.9,2.3,5.2,5.2,5.2H268c2,0,3.8-0.8,5.2-2.2l57-57V130.2H128.3l-1.2-9l-10.2,6.8
			C114.8,129.3,113.5,131.6,113.5,134.1L113.5,134.1z"/>
		<path class="st16" d="M340.5,127.2v228.5l-44.4,16.3l-14.8,42.9H131.3c-4.1,0-7.4-3.3-7.4-7.4V127.2c0-4.1,3.3-7.4,7.4-7.4h201.8
			C337.2,119.8,340.5,123.1,340.5,127.2z"/>
		<path class="st20" d="M340.5,355.7l-59.1,59.1v-51.8c0-4.1,3.3-7.4,7.4-7.4H340.5z"/>
		<path class="st20" d="M306.6,119.8v14.4c0,10.2-8.3,18.5-18.5,18.5H176.3c-10.2,0-18.5-8.3-18.5-18.5v-14.4H306.6z"/>
		<path class="st17" d="M157.8,97.6h148.8v22.2H157.8L157.8,97.6z"/>
		<path class="st17" d="M295.5,97.6v36.6c0,4.1-3.3,7.4-7.4,7.4H176.3c-4.1,0-7.4-3.3-7.4-7.4V97.6l41,0c-0.5-2.3-0.7-4.8-0.5-7.4
			c1-11,10.1-19.9,21.1-20.6c13.4-0.9,24.5,9.6,24.5,22.8c0,1.8-0.2,3.5-0.6,5.2L295.5,97.6z"/>
		<path class="st21" d="M175.6,216c-1.4,0-2.8-0.6-3.8-1.5l-18.7-18c-2.2-2.1-2.3-5.6-0.2-7.8c2.1-2.2,5.6-2.3,7.8-0.2l14.6,14
			l22.8-25.9c2-2.3,5.5-2.5,7.8-0.5c2.3,2,2.5,5.5,0.5,7.8l-26.7,30.3c-1,1.1-2.4,1.8-3.9,1.9C175.7,216,175.6,216,175.6,216
			L175.6,216z"/>
		<path class="st22" d="M302.8,200.9h-78.4c-3.1,0-5.5-2.5-5.5-5.5s2.5-5.5,5.5-5.5h78.4c3.1,0,5.5,2.5,5.5,5.5
			S305.9,200.9,302.8,200.9z"/>
		<path class="st21" d="M175.6,281.2c-1.4,0-2.8-0.6-3.8-1.5l-18.7-18c-2.2-2.1-2.3-5.6-0.2-7.8c2.1-2.2,5.6-2.3,7.8-0.2l14.6,14
			l22.9-25.9c2-2.3,5.5-2.5,7.8-0.5c2.3,2,2.5,5.5,0.5,7.8l-26.7,30.2c-1,1.1-2.4,1.8-3.9,1.9C175.7,281.2,175.6,281.2,175.6,281.2
			L175.6,281.2z"/>
		<g>
			<path class="st22" d="M302.8,265.8h-78.4c-3.1,0-5.5-2.5-5.5-5.5s2.5-5.5,5.5-5.5h78.4c3.1,0,5.5,2.5,5.5,5.5
				S305.9,265.8,302.8,265.8z"/>
			<path class="st22" d="M302.8,333.2h-12.9c-3.1,0-5.5-2.5-5.5-5.5s2.5-5.5,5.5-5.5h12.9c3.1,0,5.5,2.5,5.5,5.5
				S305.9,333.2,302.8,333.2z"/>
			<path class="st22" d="M264,333.2h-39.6c-3.1,0-5.5-2.5-5.5-5.5s2.5-5.5,5.5-5.5H264c3.1,0,5.5,2.5,5.5,5.5S267.1,333.2,264,333.2
				z"/>
		</g>
		<path class="st23" d="M195.6,350.2h-34c-3.1,0-5.5-2.5-5.5-5.5v-34c0-3.1,2.5-5.5,5.5-5.5h34c3.1,0,5.5,2.5,5.5,5.5v34
			C201.2,347.7,198.7,350.2,195.6,350.2z M167.1,339.1h22.9v-22.9h-22.9V339.1z"/>
	</g>
	<g>
		<path class="st15" d="M171.7,214.5c2.2,2.2,6,2,8-0.3l26.7-30.3c2-2.3,1.8-5.8-0.5-7.8c-2.3-2-5.8-1.8-7.8,0.5l-22.8,25.9
			l-14.6-14c-2.2-2.1-5.7-2.1-7.8,0.2s-2.1,5.7,0.2,7.8L171.7,214.5z"/>
		<path class="st15" d="M224.4,200.9h78.4c3.1,0,5.5-2.5,5.5-5.5s-2.5-5.5-5.5-5.5h-78.4c-3.1,0-5.5,2.5-5.5,5.5
			S221.4,200.9,224.4,200.9z"/>
		<path class="st15" d="M153,261.7l18.7,18c2.2,2.2,6,2,8-0.3l26.7-30.2c2-2.3,1.8-5.8-0.5-7.8c-2.3-2-5.8-1.8-7.8,0.5l-22.9,25.9
			l-14.6-14c-2.2-2.1-5.7-2.1-7.8,0.2C150.7,256,150.8,259.6,153,261.7L153,261.7z"/>
		<path class="st15" d="M224.4,265.8h78.4c3.1,0,5.5-2.5,5.5-5.5s-2.5-5.5-5.5-5.5h-78.4c-3.1,0-5.5,2.5-5.5,5.5
			S221.4,265.8,224.4,265.8z"/>
		<path class="st15" d="M302.8,322.1h-12.9c-3.1,0-5.5,2.5-5.5,5.5s2.5,5.5,5.5,5.5h12.9c3.1,0,5.5-2.5,5.5-5.5
			S305.9,322.1,302.8,322.1z"/>
		<path class="st15" d="M224.4,333.2H264c3.1,0,5.5-2.5,5.5-5.5s-2.5-5.5-5.5-5.5h-39.6c-3.1,0-5.5,2.5-5.5,5.5
			S221.4,333.2,224.4,333.2z"/>
		<path class="st15" d="M161.6,350.2h34c3.1,0,5.5-2.5,5.5-5.5v-34c0-3.1-2.5-5.5-5.5-5.5h-34c-3.1,0-5.5,2.5-5.5,5.5v34
			C156.1,347.7,158.5,350.2,161.6,350.2z M167.1,316.2h22.9v22.9h-22.9V316.2z"/>
		<path class="st15" d="M362.7,243.3c3.1,0,5.5-2.5,5.5-5.5V105c0-7.1-5.8-12.9-12.9-12.9l-94.7,0c-0.1-7.7-3.4-15.2-9-20.4
			c-5.8-5.4-13.4-8.1-21.4-7.6c-14.5,1-26.4,13.5-26.4,28l-94.7,0c-7.1,0-12.9,5.8-12.9,12.9v324.6c0,7.1,5.8,12.9,12.9,12.9h246.2
			c7.1,0,12.9-5.8,12.9-12.9v-166c0-3.1-2.5-5.5-5.5-5.5s-5.5,2.5-5.5,5.5v166c0,1-0.8,1.8-1.8,1.8H109.1c-1,0-1.8-0.8-1.8-1.8V105
			c0-1,0.8-1.8,1.8-1.8h54.2v11.1h-39.5c-3.1,0-5.5,2.5-5.5,5.5v295c0,3.1,2.5,5.5,5.5,5.5h24.8c3.1,0,5.5-2.5,5.5-5.5
			c0-3.1-2.5-5.5-5.5-5.5h-19.2V125.4h33.9v12.5c0,5.1,4.1,9.2,9.2,9.2h74.9c3.1,0,5.5-2.5,5.5-5.5c0-3.1-2.5-5.5-5.5-5.5h-73v-32.8
			h35.5c3.5,0,6.2-3.4,5.4-6.8c-2.6-10.1,5.2-20.7,15.6-21.2c11.3-1.1,21,10.3,18.1,21.2c-0.9,3.4,1.9,6.9,5.4,6.8l35.5,0V136h-16.6
			c-3.1,0-5.5,2.5-5.5,5.5s2.5,5.5,5.5,5.5h18.5c5.1,0,9.2-4.1,9.2-9.2v-12.5H335v224.8h-53.6c-3.1,0-5.5,2.5-5.5,5.5v53.6H174.5
			c-3.1,0-5.5,2.5-5.5,5.5c0,3.1,2.5,5.5,5.5,5.5h106.8c1.5,0,2.9-0.6,3.9-1.6l59.1-59.1c1-1,1.6-2.5,1.6-3.9V119.8
			c0-3.1-2.5-5.5-5.5-5.5h-39.5v-11.1h54.2c1,0,1.8,0.8,1.8,1.8v132.7C357.2,240.8,359.6,243.3,362.7,243.3L362.7,243.3z
			 M286.9,401.4v-40.2h40.2L286.9,401.4z"/>
	</g>
</g>
</svg>
