<?xml version="1.0" encoding="utf-8"?>
<!-- Generator: Adobe Illustrator 24.0.0, SVG Export Plug-In . SVG Version: 6.00 Build 0)  -->
<svg version="1.1" id="Capa_1" xmlns="http://www.w3.org/2000/svg" xmlns:xlink="http://www.w3.org/1999/xlink" x="0px" y="0px"
	 viewBox="0 0 512 512" style="enable-background:new 0 0 512 512;" xml:space="preserve">
<style type="text/css">
	.st0{fill:url(#SVGID_1_);}
	.st1{display:none;opacity:0.1;}
	.st2{display:inline;fill:#590BB2;}
	.st3{fill:#C182F9;}
	.st4{fill:#FDD250;}
	.st5{fill:#FFA052;}
	.st6{display:none;}
	.st7{display:inline;}
	.st8{fill:#FFE783;}
	.st9{fill:#FFC136;}
	.st10{fill:#FFFFFF;}
	.st11{fill:#D6B0FF;}
	.st12{display:inline;fill:#C182F9;}
	.st13{fill:#590BB2;}
	.st14{opacity:0.17;}
	.st15{fill:#AF0C0C;stroke:#000000;stroke-width:0.25;stroke-miterlimit:10;}
	.st16{fill:#9B1818;stroke:#000000;stroke-width:0.25;stroke-miterlimit:10;}
	.st17{fill:#F78484;stroke:#000000;stroke-width:0.25;stroke-miterlimit:10;}
	.st18{fill:#FFB3B3;stroke:#000000;stroke-width:0.25;stroke-miterlimit:10;}
	.st19{fill:#AF0C0C;}
	.st20{fill:#9B1818;}
	.st21{fill:#F78484;}
	.st22{fill:#FFB3B3;}
</style>
<g>
	
		<linearGradient id="SVGID_1_" gradientUnits="userSpaceOnUse" x1="437.085" y1="439.085" x2="-4" y2="-2" gradientTransform="matrix(1 0 0 -1 0 514)">
		<stop  offset="0" style="stop-color:#FFD5B8"/>
		<stop  offset="1" style="stop-color:#FFFFFF;stop-opacity:0"/>
	</linearGradient>
	<path class="st0" d="M411.2,155.2c-30,0-54.3-24.3-54.3-54.3C356.8,45.2,311.7,0,256,0S155.2,45.2,155.2,100.8
		c0,30-24.3,54.3-54.3,54.3C45.2,155.2,0,200.3,0,256s45.2,100.8,100.8,100.8c30,0,54.3,24.3,54.3,54.3
		c0,55.7,45.2,100.8,100.8,100.8s100.8-45.2,100.8-100.8c0-30,24.3-54.3,54.3-54.3c55.7,0,100.8-45.2,100.8-100.8
		S466.8,155.2,411.2,155.2L411.2,155.2z"/>
	<g>
		<g class="st1">
			<circle class="st2" cx="256" cy="322" r="97.4"/>
			<path class="st2" d="M451.7,281.7h-3.6v-9.1c0-15-12.2-27.2-27.2-27.2h-2.6c1.6-9.4,2.5-19,2.5-28.6c0-39.3-13.9-77-39.3-106.8
				c-1.7-2-4.7-2.2-6.7-0.4l-3.3,3c-0.2-0.4-0.4-0.7-0.7-1C341.4,79.4,299.5,61,256,61c-43.7,0-85.6,18.5-115.1,50.8
				c-0.2,0.2-0.4,0.5-0.5,0.7l-3.2-2.9c-2-1.8-5-1.6-6.7,0.4c-25.3,29.8-39.3,67.5-39.3,106.8c0,9.6,0.8,19.2,2.5,28.6h-2.6
				c-15,0-27.2,12.2-27.2,27.2v9.1h-3.6c-2.8,0-5,2.2-5,5V317c0,2.8,2.2,5,5,5h3.6v60.9c0,15,12.2,27.2,27.2,27.2h33.8
				c5.5,0,10-4.5,10-10V255.4c0-5.5-4.5-10-10-10h-2.7c-2-9.3-3-19-3-28.6c0-32.4,11.4-63.5,32.2-88.2c1.6-1.9,1.4-4.8-0.4-6.5
				l-3.4-3c0.2-0.2,0.4-0.4,0.6-0.6C175.9,88.3,215.1,71,256,71c40.7,0,79.9,17.2,107.5,47.3c0.3,0.3,0.6,0.5,0.9,0.8l-3.4,3.1
				c-1.9,1.7-2.1,4.6-0.4,6.5c20.8,24.7,32.2,55.8,32.2,88.2c0,9.6-1,19.2-3,28.6h-2.7c-5.5,0-10,4.5-10,10V400c0,5.5,4.5,10,10,10
				h8.9v12.7c0,18.7-15.2,33.9-33.9,33.9h-44.4c-0.3,0-0.6,0-0.9,0.1c-1.8-4.2-5.9-7.1-10.7-7.1h-38.2c-6.4,0-11.7,5.2-11.7,11.7
				s5.2,11.7,11.7,11.7H306c4.6,0,8.5-2.7,10.4-6.5c0.4,0.1,0.8,0.2,1.2,0.2h44.4c24.2,0,43.9-19.7,43.9-43.9V410h14.9
				c15,0,27.2-12.2,27.2-27.2V322h3.6c2.8,0,5-2.2,5-5v-30.3C456.7,283.9,454.4,281.7,451.7,281.7L451.7,281.7z"/>
		</g>
		<path class="st3" d="M225.5,114.4h-3v-3c0-2.8-2.2-5-5-5s-5,2.2-5,5v3h-3c-2.8,0-5,2.2-5,5s2.2,5,5,5h3v3c0,2.8,2.2,5,5,5
			s5-2.2,5-5v-3h3c2.8,0,5-2.2,5-5S228.3,114.4,225.5,114.4z"/>
		<path class="st4" d="M444.8,110.4h-3v-3c0-2.8-2.2-5-5-5s-5,2.2-5,5v3h-3c-2.8,0-5,2.2-5,5s2.2,5,5,5h3v3c0,2.8,2.2,5,5,5
			s5-2.2,5-5v-3h3c2.8,0,5-2.2,5-5S447.6,110.4,444.8,110.4z"/>
		<path class="st5" d="M271.8,147.5c-1.3,0-2.6-0.5-3.5-1.5l-4.5-4.5l-4.5,4.5c-2,2-5.1,2-7.1,0c-2-2-2-5.1,0-7.1l8-8
			c2-2,5.1-2,7.1,0l8,8c2,2,2,5.1,0,7.1C274.3,147,273.1,147.5,271.8,147.5L271.8,147.5z"/>
		<path class="st5" d="M421,66c-1.3,0-2.6-0.5-3.5-1.5l-4.5-4.5l-4.5,4.5c-2,2-5.1,2-7.1,0c-2-2-2-5.1,0-7.1l8-8c2-2,5.1-2,7.1,0
			l8,8c2,2,2,5.1,0,7.1C423.5,65.5,422.3,66,421,66z"/>
		<path class="st4" d="M137.9,443.3c-1.3,0-2.6-0.5-3.5-1.5l-4.5-4.5l-4.5,4.5c-2,2-5.1,2-7.1,0c-2-2-2-5.1,0-7.1l8-8
			c2-2,5.1-2,7.1,0l8,8c2,2,2,5.1,0,7.1C140.4,442.9,139.2,443.3,137.9,443.3L137.9,443.3z"/>
		<g class="st6">
			<g class="st7">
				<g>
					<circle class="st8" cx="256" cy="295" r="97.4"/>
					<circle class="st9" cx="256" cy="295" r="76.6"/>
					<g>
						<path class="st10" d="M256,346.4c-28.3,0-51.4-23.1-51.4-51.4s23.1-51.4,51.4-51.4s51.4,23.1,51.4,51.4S284.3,346.4,256,346.4
							z M256,253.6c-22.8,0-41.4,18.6-41.4,41.4s18.6,41.4,41.4,41.4s41.4-18.6,41.4-41.4C297.4,272.2,278.8,253.6,256,253.6z"/>
						<path class="st10" d="M256,346.4c-16.4,0-25.3-26.5-25.3-51.4c0-24.9,8.9-51.4,25.3-51.4s25.3,26.5,25.3,51.4
							C281.3,319.9,272.4,346.4,256,346.4L256,346.4z M256,253.6c-6.2,0-15.3,16.1-15.3,41.4c0,11.7,2,22.7,5.5,30.8
							c2.9,6.5,6.6,10.6,9.8,10.6c6.2,0,15.3-16.1,15.3-41.4c0-11.7-2-22.7-5.5-30.8C262.9,257.7,259.2,253.6,256,253.6L256,253.6z"
							/>
						<g>
							<path class="st10" d="M256,285.4c-16.4,0-31.8-3.6-41.2-9.8c-2.3-1.5-3-4.6-1.5-6.9c1.5-2.3,4.6-3,6.9-1.5
								c7.9,5.1,21.2,8.1,35.8,8.1c14.5,0,28.3-3.2,36-8.3c2.3-1.5,5.4-0.9,6.9,1.4c1.5,2.3,0.9,5.4-1.4,6.9
								C288.1,281.6,272.6,285.4,256,285.4z"/>
							<path class="st10" d="M217.1,323.9c-1.6,0-3.2-0.8-4.2-2.2c-1.5-2.3-0.9-5.4,1.4-6.9c9.4-6.3,25-10.1,41.7-10.1
								c16.4,0,31.8,3.6,41.2,9.8c2.3,1.5,3,4.6,1.5,6.9s-4.6,3-6.9,1.5c-7.9-5.1-21.2-8.1-35.8-8.1c-14.6,0-28.4,3.2-36.1,8.4
								C219,323.6,218.1,323.9,217.1,323.9L217.1,323.9z"/>
						</g>
					</g>
				</g>
				<g>
					<g>
						<g>
							<path class="st3" d="M124.9,383H91.1c-15,0-27.2-12.2-27.2-27.2V245.5c0-15,12.2-27.2,27.2-27.2h33.8c5.5,0,10,4.5,10,10V373
								C134.9,378.6,130.4,383,124.9,383L124.9,383z"/>
						</g>
						<g>
							<path class="st11" d="M124.9,218.4H111V383h13.9c5.5,0,10-4.5,10-10V228.4C134.9,222.8,130.4,218.4,124.9,218.4L124.9,218.4z
								"/>
						</g>
						<circle class="st8" cx="111" cy="349.3" r="12"/>
						<path class="st5" d="M73.3,295h-13c-2.8,0-5-2.2-5-5v-30.3c0-2.8,2.2-5,5-5h13c2.8,0,5,2.2,5,5V290
							C78.3,292.8,76.1,295,73.3,295z"/>
					</g>
					<g>
						<g>
							<path class="st3" d="M387.1,383h33.8c15,0,27.2-12.2,27.2-27.2V245.5c0-15-12.2-27.2-27.2-27.2h-33.8c-5.5,0-10,4.5-10,10
								V373C377.1,378.6,381.6,383,387.1,383L387.1,383z"/>
						</g>
						<g>
							<path class="st11" d="M387.1,218.4H401V383h-13.9c-5.5,0-10-4.5-10-10V228.4C377.1,222.8,381.6,218.4,387.1,218.4
								L387.1,218.4z"/>
						</g>
						<circle class="st8" cx="401" cy="349.3" r="12"/>
						<path class="st5" d="M438.7,295h13c2.8,0,5-2.2,5-5v-30.3c0-2.8-2.2-5-5-5h-13c-2.8,0-5,2.2-5,5V290
							C433.7,292.8,435.9,295,438.7,295z"/>
					</g>
				</g>
				<g>
					<g>
						<path class="st5" d="M389.8,218.4h28.6c1.6-9.4,2.5-19,2.5-28.6c0-39.3-13.9-77-39.3-106.8c-1.7-2-4.7-2.2-6.7-0.4L361,95.1
							c-1.9,1.7-2.1,4.6-0.4,6.5c20.8,24.7,32.2,55.8,32.2,88.2C392.8,199.4,391.7,209,389.8,218.4L389.8,218.4z"/>
					</g>
					<g>
						<path class="st5" d="M122.2,218.4c-2-9.3-3-19-3-28.6c0-32.4,11.4-63.5,32.2-88.2c1.6-1.9,1.4-4.8-0.4-6.5l-13.9-12.5
							c-2-1.8-5-1.6-6.7,0.4c-25.3,29.8-39.3,67.5-39.3,106.8c0,9.6,0.8,19.2,2.5,28.6H122.2z"/>
					</g>
				</g>
			</g>
			<path class="st12" d="M267.8,446H306c6.4,0,11.7-5.2,11.7-11.7c0-6.4-5.2-11.7-11.7-11.7h-38.2c-6.4,0-11.7,5.2-11.7,11.7
				C256.2,440.8,261.4,446,267.8,446z"/>
			<g class="st7">
				<path class="st13" d="M358.4,295c0-56.5-45.9-102.4-102.4-102.4S153.6,238.5,153.6,295S199.5,397.4,256,397.4
					S358.4,351.4,358.4,295z M163.6,295c0-50.9,41.4-92.4,92.4-92.4s92.4,41.4,92.4,92.4s-41.4,92.4-92.4,92.4
					S163.6,345.9,163.6,295z"/>
				<path class="st13" d="M453.1,249.8v-4.2c0-16.7-12.7-30.4-29-32c1.1-7.9,1.7-15.8,1.7-23.8c0-40.3-14.4-79.4-40.4-110
					c-1.7-2-4.1-3.2-6.7-3.4c-2.6-0.2-5.2,0.7-7.1,2.5l-3.2,2.9C339,51.4,298.3,34,256,34c-42.3,0-83,17.4-112.3,47.8l-3.2-2.9
					c-2-1.8-4.5-2.6-7.1-2.5c-2.6,0.2-5,1.4-6.7,3.4c-26.1,30.6-40.4,69.7-40.4,110c0,7.9,0.6,15.9,1.7,23.8
					c-16.2,1.6-29,15.3-29,32v4.2c-4.8,0.7-8.6,4.9-8.6,9.9V290c0,5,3.7,9.2,8.6,9.9v56c0,17.7,14.4,32.2,32.2,32.2h33.8
					c8.3,0,15-6.7,15-15v-80.7c0-2.8-2.2-5-5-5s-5,2.2-5,5V373c0,2.8-2.2,5-5,5H91.1c-12.2,0-22.2-9.9-22.2-22.2V300h4.4
					c5.5,0,10-4.5,10-10v-30.3c0-5.5-4.5-10-10-10h-4.4v-4.1c0-12.2,9.9-22.2,22.2-22.2h2.6c0,0,0,0,0,0h28.6c0,0,0,0,0,0h2.6
					c2.8,0,5,2.2,5,5v33.3c0,2.8,2.2,5,5,5s5-2.2,5-5v-33.3c0-7.8-5.9-14.2-13.5-14.9c-1.4-7.8-2.1-15.8-2.1-23.7
					c0-31.1,11-61.2,31-85c3.4-4,3-9.9-0.9-13.4l-3.2-2.9C178.6,60.2,216.5,44,256,44c39.5,0,77.5,16.2,104.8,44.5l-3.2,2.9
					c-3.9,3.5-4.3,9.4-0.9,13.4c20,23.7,31,53.9,31,85c0,7.9-0.7,15.9-2.1,23.7c-7.6,0.7-13.5,7.2-13.5,14.9v33.3c0,2.8,2.2,5,5,5
					s5-2.2,5-5v-33.3c0-2.8,2.2-5,5-5h2.6c0,0,0,0,0,0h28.6c0,0,0,0,0,0h2.6c12.2,0,22.2,9.9,22.2,22.2v4.1h-4.4
					c-5.5,0-10,4.5-10,10V290c0,5.5,4.5,10,10,10h4.4v55.9c0,12.2-9.9,22.2-22.2,22.2H401c0,0,0,0,0,0s0,0,0,0h-13.9
					c-2.8,0-5-2.2-5-5v-80.7c0-2.8-2.2-5-5-5s-5,2.2-5,5V373c0,8.3,6.7,15,15,15h8.9v7.7c0,18.7-15.2,33.9-33.9,33.9H322
					c-2-6.9-8.4-12-16-12h-38.2c-9.2,0-16.7,7.5-16.7,16.7s7.5,16.7,16.7,16.7H306c7.3,0,13.5-4.8,15.8-11.3h40.3
					c24.2,0,43.9-19.7,43.9-43.9V388h14.9c17.7,0,32.2-14.4,32.2-32.2v-56c4.8-0.7,8.6-4.9,8.6-9.9v-30.3
					C461.7,254.6,457.9,250.5,453.1,249.8L453.1,249.8z M73.3,290h-13v-30.3h13L73.3,290z M114.2,189.8c0,7.9,0.7,15.8,2,23.6H97.9
					c-1.2-7.8-1.7-15.7-1.7-23.6c0-37.8,13.4-74.5,37.9-103.3l13.4,12.1C126,124.1,114.2,156.4,114.2,189.8z M364.6,98.6L378,86.5
					c24.4,28.8,37.9,65.5,37.9,103.3c0,7.9-0.6,15.8-1.7,23.6h-18.3c1.3-7.8,2-15.7,2-23.6C397.8,156.4,386,124.1,364.6,98.6z
					 M306,441h-38.2c-3.7,0-6.7-3-6.7-6.7s3-6.7,6.7-6.7H306c3.7,0,6.7,3,6.7,6.7S309.7,441,306,441z M438.7,259.7h13V290h-13V259.7
					z"/>
			</g>
		</g>
	</g>
</g>
<g>
	<path class="st11" d="M-319.5-251.7H-452v197.2l12.8-35.1c1.1-3.9,4.6-6.7,8.7-6.7h197.4v-69.1L-319.5-251.7z"/>
	<g>
		<path class="st3" d="M-234.8-165.3h-84.7v-84.7c0-0.3,0.2-0.5,0.4-0.6s0.6,0,0.7,0.1l84,84c0.2,0.2,0.3,0.5,0.1,0.7
			C-234.3-165.5-234.5-165.3-234.8-165.3L-234.8-165.3z"/>
		<path class="st3" d="M-452-188.4h-36.1c-2.6,0-5.2,1.1-7.1,2.9c-1.9,1.9-2.9,4.4-2.9,7.1V67.7c0.4,0,0.8,0,1.2,0.1L-452-54.7
			V-188.4z"/>
	</g>
	<path class="st11" d="M-480.8-178.4c0-2.6,1.1-5.2,2.9-7.1c1.9-1.9,4.4-2.9,7.1-2.9h-17.3c-2.6,0-5.2,1.1-7.1,2.9
		c-1.9,1.9-2.9,4.4-2.9,7.1V67.7c0.4,0,0.8,0,1.2,0.1l16.1-43.9V-178.4z"/>
	<path class="st3" d="M-208.5-148.1h-24.6v51.8h34.6v-41.9c0-2.6-1.1-5.2-2.9-7.1C-203.4-147-205.9-148.1-208.5-148.1L-208.5-148.1z
		"/>
	<g>
		<path class="st11" d="M-225.8-148.1h-7.3v51.8h17.3v-41.9c0-2.6-1.1-5.2-2.9-7.1C-220.6-147-223.2-148.1-225.8-148.1L-225.8-148.1
			z"/>
		<path class="st3" d="M-231.3,82.3h-257.8c-2.8,0-5.4-1.3-7.2-3.5s-2.3-5.1-1.5-7.8l58.6-160.5c1.1-3.9,4.6-6.7,8.7-6.7h257.8
			c5.9,0,8.7,5.7,8.7,11.4l-58.6,160.5C-223.6,79.6-227.2,82.3-231.3,82.3L-231.3,82.3z"/>
	</g>
	<path class="st11" d="M-248.5,82.3h-240.5c-2.8,0-5.4-1.3-7.2-3.5s-2.3-5.1-1.5-7.8l58.6-160.5c1.1-3.9,4.6-6.7,8.7-6.7H-190
		c5.9,0,8.7,5.7,8.7,11.4l-58.6,160.5C-240.9,79.6-244.5,82.3-248.5,82.3L-248.5,82.3z"/>
	<g>
		<path class="st13" d="M-231.3,88.1h-257.8c-4.6,0-8.9-2.1-11.7-5.8s-3.7-8.4-2.5-12.8l58.7-161c1.9-6.2,7.6-10.5,14.1-10.4h257.8
			c8.4,0,14.5,7.2,14.5,17.1c0,0.7-0.1,1.3-0.3,2l-58.6,160.5C-219,83.9-224.8,88.1-231.3,88.1z M-430.5-90.5c-1.5,0-2.8,1-3.1,2.4
			l-58.7,161c-0.1,0.8,0.2,1.7,0.7,2.4c0.6,0.8,1.6,1.3,2.6,1.3h257.8c1.5,0,2.8-1,3.1-2.4l58.3-159.9c-0.1-1.6-0.7-4.7-2.9-4.7
			L-430.5-90.5L-430.5-90.5z"/>
		<path class="st13" d="M-354.1-159.6h-57.6c-3.2,0-5.8-2.6-5.8-5.8s2.6-5.8,5.8-5.8h57.6c3.2,0,5.8,2.6,5.8,5.8
			S-350.9-159.6-354.1-159.6z"/>
		<path class="st13" d="M-354.1-199.9h-57.6c-3.2,0-5.8-2.6-5.8-5.8s2.6-5.8,5.8-5.8h57.6c3.2,0,5.8,2.6,5.8,5.8
			C-348.3-202.5-350.9-199.9-354.1-199.9z"/>
		<path class="st13" d="M-273.4-119.3h-138.2c-3.2,0-5.8-2.6-5.8-5.8c0-3.2,2.6-5.8,5.8-5.8h138.2c3.2,0,5.8,2.6,5.8,5.8
			C-267.7-121.8-270.3-119.3-273.4-119.3z"/>
		<path class="st13" d="M-234.8-159.6h-84.7c-1.5,0-3-0.6-4.1-1.7c-1.1-1.1-1.7-2.5-1.7-4.1v-84.7c0-2.6,1.6-5,4-6
			c2.4-1,5.2-0.4,7,1.4l84.1,84c1.8,1.8,2.4,4.6,1.4,7C-229.8-161.2-232.2-159.6-234.8-159.6z M-313.8-171.1h66.7l-66.7-66.7V-171.1
			z"/>
		<path class="st13" d="M-452-48.7c-0.3,0-0.7,0-1-0.1c-2.8-0.5-4.8-2.9-4.8-5.7v-197.2c0-1.5,0.6-3,1.7-4.1
			c1.1-1.1,2.5-1.7,4.1-1.7h132.5c1.5,0,3,0.6,4.1,1.7l86.4,86.4c1.1,1.1,1.7,2.5,1.7,4.1v69.1c0,1.5-0.6,3-1.7,4.1
			c-1.1,1.1-2.5,1.7-4.1,1.7h-197.4c-1.5,0-2.8,1-3.1,2.4c0,0.2-0.1,0.3-0.1,0.5l-12.8,35.1C-447.4-50.3-449.6-48.7-452-48.7z
			 M-446.2-246v158.9l1.5-4.2c1.8-6.3,7.6-10.6,14.2-10.6h191.6v-61l-83-83L-446.2-246L-446.2-246z"/>
		<path class="st13" d="M-198.6-90.5h-34.6c-1.5,0-3-0.6-4.1-1.7c-1.1-1.1-1.7-2.5-1.7-4.1v-51.8c0-1.5,0.6-3,1.7-4.1
			c1.1-1.1,2.5-1.7,4.1-1.7h24.6c8.7,0,15.7,7.1,15.7,15.7v41.9c0,1.5-0.6,3-1.7,4.1C-195.6-91.1-197-90.5-198.6-90.5z M-227.4-102
			h23v-36.1c0-2.3-1.9-4.2-4.2-4.2h-18.8V-102z"/>
		<path class="st13" d="M-496.9,73.5c-0.1,0-0.3,0-0.4,0l-1-0.1c-3.1-0.1-5.5-2.7-5.5-5.8v-246.1c0-8.7,7.1-15.7,15.7-15.7h36.1
			c1.5,0,3,0.6,4.1,1.7s1.7,2.5,1.7,4.1v133.7c0,0.7-0.1,1.3-0.4,2l-44.9,122.4C-492.3,72-494.5,73.5-496.9,73.5z M-488.1-182.6
			c-2.3,0-4.2,1.9-4.2,4.2v217l34.6-94.3v-126.9H-488.1z"/>
	</g>
</g>
<g class="st14">
	<path class="st15" d="M315,95.6l132.1,228.8c4.8,8.4,7.6,18.1,7.6,28.5c0,31.5-25.6,57.1-57.1,57.1H265.5l-45.7-171.5L265.5,67
		C286.7,67,305.1,78.5,315,95.6z"/>
	<path class="st16" d="M216,95.6L83.9,324.4c-4.8,8.4-7.6,18.1-7.6,28.5c0,31.5,25.6,57.1,57.1,57.1h132.1V67
		C244.3,67,225.9,78.5,216,95.6z"/>
	<path class="st17" d="M427.3,335.8L295.2,107c-6-10.3-16.9-16.8-28.7-17.2l113,297.3h18.1c18.9,0,34.3-15.4,34.3-34.3
		C431.9,346.9,430.3,341,427.3,335.8z"/>
	<path class="st18" d="M405.1,335.8c2.6,5.2,3.9,11.1,3.9,17.1c0,18.9-13.3,34.3-29.6,34.3H133.4c-18.9,0-34.3-15.4-34.3-34.3
		c0-6,1.6-11.9,4.6-17.1L235.8,107c6.1-10.6,17.5-17.2,29.7-17.2c0.3,0,0.7,0,1,0c10.1,0.4,19.5,6.9,24.6,17.2L405.1,335.8z"/>
	<path class="st15" d="M265.5,311v38.1c10.5,0,19-8.5,19-19C284.5,319.5,276,311,265.5,311z"/>
	<path class="st16" d="M265.5,311c2.1,0,3.8,8.5,3.8,19s-1.7,19-3.8,19c-10.5,0-19-8.5-19-19S255,311,265.5,311z"/>
	<path class="st15" d="M265.5,147.3v140.9c10.5,0,19-8.5,19-19V166.4C284.5,155.8,276,147.3,265.5,147.3z"/>
	<path class="st16" d="M265.5,147.3c2.1,0,3.8,8.5,3.8,19v102.8c0,10.5-1.7,19-3.8,19c-10.5,0-19-8.5-19-19V166.4
		C246.5,155.8,255,147.3,265.5,147.3z"/>
</g>
<g>
	<path class="st19" d="M301,88.9l132.1,228.8c4.8,8.4,7.6,18.1,7.6,28.5c0,31.5-25.6,57.1-57.1,57.1H251.5l-45.7-171.5l45.7-171.5
		C272.7,60.3,291.1,71.8,301,88.9z"/>
	<path class="st20" d="M202,88.9L69.9,317.7c-4.8,8.4-7.6,18.1-7.6,28.5c0,31.5,25.6,57.1,57.1,57.1h132.1v-343
		C230.3,60.3,211.9,71.8,202,88.9z"/>
	<path class="st21" d="M413.3,329.2L281.2,100.3c-6-10.3-16.9-16.8-28.7-17.2l113,297.3h18.1c18.9,0,34.3-15.4,34.3-34.3
		C417.9,340.2,416.3,334.3,413.3,329.2z"/>
	<path class="st22" d="M391.1,329.2c2.6,5.2,3.9,11.1,3.9,17.1c0,18.9-13.3,34.3-29.6,34.3H119.4c-18.9,0-34.3-15.4-34.3-34.3
		c0-6,1.6-11.9,4.6-17.1l132.1-228.8c6.1-10.6,17.5-17.2,29.7-17.2c0.3,0,0.7,0,1,0c10.1,0.4,19.5,6.9,24.6,17.2L391.1,329.2z"/>
	<path class="st19" d="M251.5,304.4v38.1c10.5,0,19-8.5,19-19C270.5,312.9,262,304.4,251.5,304.4z"/>
	<path class="st20" d="M251.5,304.4c2.1,0,3.8,8.5,3.8,19c0,10.5-1.7,19-3.8,19c-10.5,0-19-8.5-19-19S241,304.4,251.5,304.4z"/>
	<path class="st19" d="M251.5,140.7v140.9c10.5,0,19-8.5,19-19V159.7C270.5,149.2,262,140.7,251.5,140.7z"/>
	<path class="st20" d="M251.5,140.7c2.1,0,3.8,8.5,3.8,19v102.8c0,10.5-1.7,19-3.8,19c-10.5,0-19-8.5-19-19V159.7
		C232.5,149.2,241,140.7,251.5,140.7z"/>
</g>
</svg>
