<?xml version="1.0" encoding="utf-8"?>
<!-- Generator: Adobe Illustrator 24.0.0, SVG Export Plug-In . SVG Version: 6.00 Build 0)  -->
<svg version="1.1" id="Capa_1" xmlns="http://www.w3.org/2000/svg" xmlns:xlink="http://www.w3.org/1999/xlink" x="0px" y="0px"
	 viewBox="0 0 512 512" style="enable-background:new 0 0 512 512;" xml:space="preserve">
<style type="text/css">
	.st0{fill:url(#SVGID_1_);}
	.st1{display:none;opacity:0.1;fill:#590BB2;enable-background:new    ;}
	.st2{fill:#C182F9;}
	.st3{fill:#FDD250;}
	.st4{fill:#FFA052;}
	.st5{display:none;}
	.st6{display:inline;fill:#FF8736;}
	.st7{display:inline;}
	.st8{fill:#FFE783;}
	.st9{display:inline;fill:#FDD250;}
	.st10{display:inline;fill:#FFE783;}
	.st11{display:inline;fill:#FFC136;}
	.st12{fill:#FFFFFF;}
	.st13{display:inline;fill:#590BB2;}
	.st14{opacity:0.1;enable-background:new    ;}
	.st15{fill:#590BB2;}
	.st16{fill:#FFF3DA;}
	.st17{fill:#8AA8BD;}
	.st18{fill:#66DFF6;}
	.st19{fill:#FF7D97;}
</style>
<g>
	
		<linearGradient id="SVGID_1_" gradientUnits="userSpaceOnUse" x1="506.4889" y1="402.7272" x2="-33.5651" y2="90.6961" gradientTransform="matrix(1 0 0 -1 0 514)">
		<stop  offset="1.200000e-03" style="stop-color:#FFE783"/>
		<stop  offset="1" style="stop-color:#FFFFFF;stop-opacity:0"/>
	</linearGradient>
	<path class="st0" d="M361.2,275.7c-56.8,0-102.8-46-102.8-102.8v-65.2C258.5,48.2,210.2,0,150.8,0S43.1,48.2,43.1,107.7v86.2
		C43.1,369.6,185.5,512,361.2,512c59.5,0,107.7-48.2,107.7-107.7v-20.9C468.9,323.9,420.7,275.7,361.2,275.7z"/>
	<g>
		<path class="st1" d="M308.2,305.3v-35.1c0-5.5-4.5-10-10-10h-1.4l100.2-148c1.3-1.9,1.1-4.4-0.4-6.1
			c-11.1-12.3-22.2-24.7-33.3-36.9H148.8c-11.2,12.2-22.3,24.6-33.3,36.9c-1.5,1.7-1.7,4.2-0.4,6.1l100.2,148h-1.4
			c-5.5,0-10,4.5-10,10v35.1c-27.5,17.5-45.6,48.4-45.2,83.5c0.7,52.5,43.5,95.3,96,96.1c54.4,0.8,98.8-43.1,98.8-97.4
			C353.4,352.9,335.4,322.5,308.2,305.3L308.2,305.3z M330.6,118.4L256,230.9l-74.6-112.6L330.6,118.4z"/>
		<path class="st2" d="M122.1,228.2h-3v-3c0-2.8-2.2-5-5-5s-5,2.2-5,5v3h-3c-2.8,0-5,2.2-5,5s2.2,5,5,5h3v3c0,2.8,2.2,5,5,5
			s5-2.2,5-5v-3h3c2.8,0,5-2.2,5-5S124.9,228.2,122.1,228.2z"/>
		<path class="st3" d="M156.8,253h-3v-3c0-2.8-2.2-5-5-5s-5,2.2-5,5v3h-3c-2.8,0-5,2.2-5,5s2.2,5,5,5h3v3c0,2.8,2.2,5,5,5s5-2.2,5-5
			v-3h3c2.8,0,5-2.2,5-5S159.5,253,156.8,253z"/>
		<path class="st2" d="M379.3,254c-1.3,0-2.6-0.5-3.5-1.5l-4.5-4.5l-4.5,4.5c-2,2-5.1,2-7.1,0c-2-2-2-5.1,0-7.1l8-8c2-2,5.1-2,7.1,0
			l8,8c2,2,2,5.1,0,7.1C381.8,253.5,380.5,254,379.3,254z"/>
		<path class="st4" d="M379.3,454.2c-1.3,0-2.6-0.5-3.5-1.5l-4.5-4.5l-4.5,4.5c-2,2-5.1,2-7.1,0c-2-2-2-5.1,0-7.1l8-8
			c2-2,5.1-2,7.1,0l8,8c2,2,2,5.1,0,7.1C381.8,453.7,380.5,454.2,379.3,454.2z"/>
		<path class="st4" d="M122.1,345.7c-1.3,0-2.6-0.5-3.5-1.5l-4.5-4.5l-4.5,4.5c-2,2-5.1,2-7.1,0c-2-2-2-5.1,0-7.1l8-8
			c2-2,5.1-2,7.1,0l8,8c2,2,2,5.1,0,7.1C124.7,345.2,123.4,345.7,122.1,345.7z"/>
		<g class="st5">
			<path class="st6" d="M337,91.4H175l-26.3-49.2h214.5L337,91.4z"/>
			<g class="st7">
				<path class="st4" d="M363.3,42.1c11.2,12.2,22.3,24.6,33.3,36.9c1.5,1.7,1.7,4.2,0.4,6.1L288.8,245h-60L363.3,42.1z"/>
				<path class="st4" d="M148.8,42.1c-11.2,12.2-22.3,24.6-33.3,36.9c-1.5,1.7-1.7,4.2-0.4,6.1L223.2,245h60L148.8,42.1z"/>
			</g>
		</g>
		<path class="st8" d="M308.2,299.7H203.8v-56.5c0-5.5,4.5-10,10-10h84.4c5.5,0,10,4.5,10,10V299.7z"/>
		<g class="st5">
			<circle class="st9" cx="256" cy="360.5" r="97.4"/>
			<circle class="st10" cx="256" cy="360.5" r="76.7"/>
			<circle class="st11" cx="256" cy="360.5" r="66"/>
			<g class="st7">
				<path class="st12" d="M256,411.9c-28.3,0-51.4-23.1-51.4-51.4s23.1-51.4,51.4-51.4s51.4,23.1,51.4,51.4S284.3,411.9,256,411.9z
					 M256,319.1c-22.8,0-41.4,18.6-41.4,41.4c0,22.8,18.6,41.4,41.4,41.4s41.4-18.6,41.4-41.4C297.4,337.6,278.8,319.1,256,319.1z"
					/>
				<path class="st12" d="M256,411.9c-16.4,0-25.3-26.5-25.3-51.4c0-24.9,8.9-51.4,25.3-51.4s25.3,26.5,25.3,51.4
					S272.4,411.9,256,411.9L256,411.9z M256,319.1c-6.2,0-15.3,16.1-15.3,41.4c0,11.7,2,22.7,5.5,30.8c2.9,6.5,6.6,10.6,9.8,10.6
					c6.2,0,15.3-16.1,15.3-41.4c0-11.7-2-22.7-5.5-30.8C262.9,323.1,259.2,319.1,256,319.1L256,319.1z"/>
				<g>
					<path class="st12" d="M256,350.8c-16.4,0-31.8-3.6-41.2-9.8c-2.3-1.5-3-4.6-1.5-6.9s4.6-3,6.9-1.5c7.9,5.1,21.2,8.1,35.8,8.1
						c14.5,0,28.3-3.2,36-8.3c2.3-1.5,5.4-0.9,6.9,1.4c1.5,2.3,0.9,5.4-1.4,6.9C288.1,347.1,272.6,350.8,256,350.8z"/>
					<path class="st12" d="M217.1,389.3c-1.6,0-3.2-0.8-4.2-2.2c-1.5-2.3-0.9-5.4,1.4-6.9c9.4-6.3,25-10.1,41.7-10.1
						c16.4,0,31.8,3.6,41.2,9.8c2.3,1.5,3,4.6,1.5,6.9c-1.5,2.3-4.6,3-6.9,1.5c-7.9-5.1-21.2-8.1-35.8-8.1
						c-14.6,0-28.4,3.2-36.1,8.4C219,389.1,218.1,389.3,217.1,389.3L217.1,389.3z"/>
				</g>
			</g>
			<path class="st13" d="M400.3,75.7l-0.4-0.4c-10.8-12-21.9-24.4-33-36.5c-0.9-1-2.3-1.6-3.7-1.6H148.8c-1.4,0-2.8,0.6-3.7,1.6
				c-11.1,12.1-22.2,24.5-33,36.5l-0.4,0.4c-3.1,3.4-3.4,8.5-0.8,12.3l96.1,141.9c-4.8,2.5-8.1,7.5-8.1,13.3v32.4
				c-27.2,18.4-45.2,49.6-45.2,84.9c0,56.5,45.9,102.4,102.4,102.4c24.5,0,48.3-8.8,66.8-24.8c18.4-15.8,30.5-37.7,34.3-61.5
				c0.4-2.7-1.4-5.3-4.2-5.7s-5.3,1.4-5.7,4.2c-3.4,21.5-14.4,41.2-31,55.5c-16.7,14.4-38.1,22.4-60.3,22.4
				c-50.9,0-92.4-41.4-92.4-92.4s41.4-92.4,92.4-92.4c22.1,0,43.6,8,60.3,22.4c16.6,14.3,27.6,34,30.9,55.5c0.4,2.7,3,4.6,5.7,4.2
				c2.7-0.4,4.6-3,4.2-5.7c-3.8-23.8-15.9-45.7-34.3-61.5c-3.1-2.6-6.3-5.1-9.6-7.3v-32.4c0-5.8-3.3-10.8-8.1-13.3L401.2,88
				C403.7,84.2,403.4,79.1,400.3,75.7L400.3,75.7z M327.9,86.4H215.3c-2.8,0-5,2.2-5,5s2.2,5,5,5h106L256,194.9L158.1,47.1h195.9
				L327.9,86.4z M119.5,82c9.4-10.4,19-21.2,28.6-31.7l117.9,178h-48.2L119.1,82.4L119.5,82z M256,258.1c-17,0-33.1,4.2-47.2,11.5
				v-26.5c0-2.8,2.2-5,5-5h84.4c2.8,0,5,2.2,5,5v26.4C288.7,262.1,272.5,258.1,256,258.1L256,258.1z M294.1,228.2h-16.1L262,203.9
				l72.8-109.8l29.1-43.9c9.6,10.6,19.3,21.3,28.6,31.7l0.4,0.4L294.1,228.2z"/>
		</g>
	</g>
</g>
<g id="XMLID_1_" class="st14">
	<path id="XMLID_17_" class="st15" d="M161.6,98.5h248.9v325.6H161.6V98.5z"/>
	<g id="XMLID_13_">
		<path id="XMLID_16_" class="st15" d="M336.8,372.1l-5.6,52.1l42.3-30.9L336.8,372.1z"/>
		<path id="XMLID_15_" class="st15" d="M440.3,192.8L477,214L373.5,393.3l-36.7-21.2L440.3,192.8z"/>
		<path id="XMLID_14_" class="st15" d="M477,214l-36.7-21.2l7.1-12.3c5.8-10.1,18.8-13.6,28.9-7.8c10.1,5.8,13.6,18.8,7.8,28.9
			L477,214z"/>
	</g>
	<g id="XMLID_2_">
		<path id="XMLID_12_" class="st15" d="M352.8,199.1H219.1c-3.7,0-6.6,3-6.6,6.6c0,3.7,3,6.6,6.6,6.6h133.7c3.7,0,6.6-3,6.6-6.6
			C359.4,202.1,356.5,199.1,352.8,199.1z"/>
		<path id="XMLID_11_" class="st15" d="M219.1,249.4h44.1c3.7,0,6.6-3,6.6-6.6c0-3.7-3-6.6-6.6-6.6h-44.1c-3.7,0-6.6,3-6.6,6.6
			C212.5,246.5,215.5,249.4,219.1,249.4z"/>
		<path id="XMLID_10_" class="st15" d="M352.8,236.2h-49.1c-3.7,0-6.6,3-6.6,6.6c0,3.7,3,6.6,6.6,6.6h49.1c3.7,0,6.6-3,6.6-6.6
			C359.4,239.2,356.5,236.2,352.8,236.2z"/>
		<path id="XMLID_9_" class="st15" d="M352.8,162.1H219.1c-3.7,0-6.6,3-6.6,6.6s3,6.6,6.6,6.6h133.7c3.7,0,6.6-3,6.6-6.6
			S356.5,162.1,352.8,162.1z"/>
		<path id="XMLID_8_" class="st15" d="M359.4,279.9c0-3.7-3-6.6-6.6-6.6H219.1c-3.7,0-6.6,3-6.6,6.6c0,3.7,3,6.6,6.6,6.6h133.7
			C356.5,286.5,359.4,283.5,359.4,279.9z"/>
		<path id="XMLID_7_" class="st15" d="M219.1,323.6h34.1c3.7,0,6.6-3,6.6-6.6s-3-6.6-6.6-6.6h-34.1c-3.7,0-6.6,3-6.6,6.6
			S215.5,323.6,219.1,323.6z"/>
		<path id="XMLID_6_" class="st15" d="M331,316.9c0-3.7-3-6.6-6.6-6.6H283c-3.7,0-6.6,3-6.6,6.6s3,6.6,6.6,6.6h41.4
			C328,323.6,331,320.6,331,316.9z"/>
		<path id="XMLID_5_" class="st15" d="M219.1,360.6h58.2c3.7,0,6.6-3,6.6-6.6c0-3.7-3-6.6-6.6-6.6h-58.2c-3.7,0-6.6,3-6.6,6.6
			C212.5,357.7,215.5,360.6,219.1,360.6z"/>
		<path id="XMLID_4_" class="st15" d="M479.7,167.1c-13.3-7.7-30.3-3.1-38,10.2L417,220v-35.4c0-3.7-3-6.6-6.6-6.6s-6.6,3-6.6,6.6
			v58.2c0,0,0,0,0,0.1l-72.7,125.9c-0.5,0.8-0.7,1.7-0.8,2.6l-5,46.2H168.2V105.2h235.6V125c0,3.7,3,6.6,6.6,6.6s6.6-3,6.6-6.6V98.5
			c0-3.7-3-6.6-6.6-6.6H161.6c-3.7,0-6.6,3-6.6,6.6v325.6c0,3.7,3,6.6,6.6,6.6h248.9c3.7,0,6.6-3,6.6-6.6v-93L489.8,205
			C497.5,191.8,492.9,174.7,479.7,167.1L479.7,167.1z M371.1,384.2l-25.2-14.6l96.9-167.8l25.2,14.6L371.1,384.2z M342.3,382.9
			l19.1,11l-22,16.1L342.3,382.9z M473,178.5c7,4,9.3,12.9,5.3,19.9l-3.8,6.6l-25.2-14.6l3.8-6.6C457.2,176.9,466.1,174.5,473,178.5
			z M403.8,417.6h-52.3l25.9-18.9c0.7-0.5,1.4-1.2,1.8-2l24.5-42.5V417.6z"/>
		<path id="XMLID_3_" class="st15" d="M410.4,148.2c-1.7,0-3.4,0.7-4.7,1.9c-1.2,1.2-1.9,2.9-1.9,4.7c0,1.7,0.7,3.4,1.9,4.7
			c1.2,1.2,2.9,1.9,4.7,1.9s3.4-0.7,4.7-1.9c1.2-1.2,1.9-2.9,1.9-4.7c0-1.7-0.7-3.4-1.9-4.7C413.9,148.9,412.2,148.2,410.4,148.2z"
			/>
	</g>
</g>
<g id="XMLID_991_">
	<path id="XMLID_322_" class="st16" d="M147.6,83.7h253.6v331.8H147.6V83.7z"/>
	<g id="XMLID_2117_">
		<path id="XMLID_2114_" class="st17" d="M326.2,362.4l-5.7,53.1l43.1-31.5L326.2,362.4z"/>
		<path id="XMLID_2075_" class="st18" d="M431.6,179.7l37.4,21.6L363.5,384l-37.4-21.6L431.6,179.7z"/>
		<path id="XMLID_1437_" class="st19" d="M469,201.3l-37.4-21.6l7.2-12.5c6-10.3,19.2-13.9,29.5-7.9c10.3,6,13.9,19.2,7.9,29.5
			L469,201.3z"/>
	</g>
	<g id="XMLID_1217_">
		<path id="XMLID_1218_" class="st15" d="M342.5,186.2H206.2c-3.7,0-6.7,3-6.7,6.7s3,6.7,6.7,6.7h136.2c3.7,0,6.7-3,6.7-6.7
			S346.2,186.2,342.5,186.2z"/>
		<path id="XMLID_1262_" class="st15" d="M206.2,237.4h45c3.7,0,6.7-3,6.7-6.7c0-3.7-3-6.7-6.7-6.7h-45c-3.7,0-6.7,3-6.7,6.7
			C199.5,234.4,202.5,237.4,206.2,237.4z"/>
		<path id="XMLID_1263_" class="st15" d="M342.5,223.9h-50.1c-3.7,0-6.7,3-6.7,6.7c0,3.7,3,6.7,6.7,6.7h50.1c3.7,0,6.7-3,6.7-6.7
			C349.2,226.9,346.2,223.9,342.5,223.9z"/>
		<path id="XMLID_1284_" class="st15" d="M342.5,148.4H206.2c-3.7,0-6.7,3-6.7,6.7s3,6.7,6.7,6.7h136.2c3.7,0,6.7-3,6.7-6.7
			S346.2,148.4,342.5,148.4z"/>
		<path id="XMLID_1309_" class="st15" d="M349.2,268.4c0-3.7-3-6.7-6.7-6.7H206.2c-3.7,0-6.7,3-6.7,6.7c0,3.7,3,6.7,6.7,6.7h136.2
			C346.2,275.2,349.2,272.2,349.2,268.4z"/>
		<path id="XMLID_1334_" class="st15" d="M206.2,312.9H241c3.7,0,6.7-3,6.7-6.7s-3-6.7-6.7-6.7h-34.7c-3.7,0-6.7,3-6.7,6.7
			S202.5,312.9,206.2,312.9z"/>
		<path id="XMLID_1337_" class="st15" d="M320.2,306.2c0-3.7-3-6.7-6.7-6.7h-42.1c-3.7,0-6.7,3-6.7,6.7s3,6.7,6.7,6.7h42.1
			C317.2,312.9,320.2,309.9,320.2,306.2z"/>
		<path id="XMLID_1338_" class="st15" d="M206.2,350.7h59.3c3.7,0,6.7-3,6.7-6.7s-3-6.7-6.7-6.7h-59.3c-3.7,0-6.7,3-6.7,6.7
			S202.5,350.7,206.2,350.7z"/>
		<path id="XMLID_1350_" class="st15" d="M471.7,153.5c-13.5-7.8-30.9-3.2-38.7,10.4l-25.1,43.5v-36c0-3.7-3-6.7-6.7-6.7
			s-6.7,3-6.7,6.7v59.3c0,0,0,0,0,0.1L320.3,359c-0.5,0.8-0.8,1.7-0.9,2.6l-5.1,47H154.3V90.4h240.1v20.2c0,3.7,3,6.7,6.7,6.7
			s6.7-3,6.7-6.7v-27c0-3.7-3-6.7-6.7-6.7H147.6c-3.7,0-6.7,3-6.7,6.7v331.8c0,3.7,3,6.7,6.7,6.7h253.6c3.7,0,6.7-3,6.7-6.7v-94.8
			l74.2-128.5C489.9,178.6,485.2,161.3,471.7,153.5L471.7,153.5z M361.1,374.7l-25.7-14.8l98.7-171l25.7,14.8L361.1,374.7z
			 M331.8,373.4l19.4,11.2L328.8,401L331.8,373.4z M464.9,165.2c7.1,4.1,9.5,13.2,5.4,20.3l-3.9,6.7l-25.7-14.8l3.9-6.7
			C448.8,163.5,457.9,161.1,464.9,165.2z M394.4,408.7h-53.3l26.4-19.3c0.8-0.6,1.4-1.3,1.9-2.1l25-43.3V408.7z"/>
		<path id="XMLID_1354_" class="st15" d="M401.1,134.2c-1.8,0-3.5,0.7-4.8,2c-1.3,1.3-2,3-2,4.8c0,1.8,0.7,3.5,2,4.8
			c1.3,1.3,3,2,4.8,2c1.8,0,3.5-0.7,4.8-2c1.3-1.3,2-3,2-4.8c0-1.8-0.7-3.5-2-4.8S402.9,134.2,401.1,134.2z"/>
	</g>
</g>
</svg>
