<?xml version="1.0" encoding="utf-8"?>
<!-- Generator: Adobe Illustrator 24.0.0, SVG Export Plug-In . SVG Version: 6.00 Build 0)  -->
<svg version="1.1" id="Capa_1" xmlns="http://www.w3.org/2000/svg" xmlns:xlink="http://www.w3.org/1999/xlink" x="0px" y="0px"
	 viewBox="0 0 512 512" style="enable-background:new 0 0 512 512;" xml:space="preserve">
<style type="text/css">
	.st0{fill:url(#SVGID_1_);}
	.st1{fill:#6583FE;}
	.st2{fill:#01ECA5;}
	.st3{fill:#FF7EB8;}
	.st4{display:none;}
	.st5{display:inline;opacity:0.1;fill:#2626BC;enable-background:new    ;}
	.st6{display:inline;fill:#FFFFFF;}
	.st7{display:inline;fill:#6583FE;}
	.st8{display:inline;}
	.st9{fill:#FFFFFF;}
	.st10{fill:#B7C5FF;}
	.st11{fill:#02FFB3;}
	.st12{fill:#9FB0FE;}
	.st13{display:inline;fill:#2626BC;}
	.st14{fill:#A4AFC1;}
	.st15{fill:#F3F3F1;}
	.st16{fill:#2FDF84;}
	.st17{fill:#D5DBE1;}
	.st18{fill:#00B871;}
</style>
<g>
	<g>
		<g>
			
				<linearGradient id="SVGID_1_" gradientUnits="userSpaceOnUse" x1="15.6295" y1="258.0003" x2="496.3707" y2="258.0003" gradientTransform="matrix(1 0 0 -1 0 514)">
				<stop  offset="4.850001e-02" style="stop-color:#D2DEFF"/>
				<stop  offset="0.9993" style="stop-color:#DCFDEE"/>
			</linearGradient>
			<path class="st0" d="M20.7,179.6c26.3,85,107.8,89,182.1,93.6c244.9,15-63,218.2,146.7,238.3c77.1,7.4,157.8-57,145.6-140.3
				C484,295.2,374,250.1,373.9,179.1c0-55.9,103.9-96.4,36.3-156.6C350-31-32.7,6.7,20.7,179.6L20.7,179.6z"/>
		</g>
		<g>
			<path class="st1" d="M82,197.9c-1.3,0-2.6-0.5-3.5-1.5l-11-11c-2-2-2-5.1,0-7.1l11-11c2-2,5.1-2,7.1,0l11,11c2,2,2,5.1,0,7.1
				l-11,11C84.6,197.4,83.3,197.9,82,197.9z M78.1,181.9l3.9,3.9l3.9-3.9L82,178L78.1,181.9z"/>
			<path class="st2" d="M439,214c-1.3,0-2.6-0.5-3.5-1.5l-11-11c-0.9-0.9-1.5-2.2-1.5-3.5s0.5-2.6,1.5-3.5l11-11c2-2,5.1-2,7.1,0
				l11,11c2,2,2,5.1,0,7.1l-11,11C441.6,213.5,440.3,214,439,214z M435.1,198l3.9,3.9l3.9-3.9l-3.9-3.9L435.1,198z"/>
			<path class="st2" d="M71,324.4c-2.8,0-5-2.2-5-5c0-3.3-2.7-6-6-6c-2.8,0-5-2.2-5-5s2.2-5,5-5c3.3,0,6-2.7,6-6c0-2.8,2.2-5,5-5
				s5,2.2,5,5c0,3.3,2.7,6,6,6c2.8,0,5,2.2,5,5s-2.2,5-5,5c-3.3,0-6,2.7-6,6C76,322.1,73.8,324.4,71,324.4z"/>
			<path class="st1" d="M455,443.8c-2.8,0-5-2.2-5-5c0-3.3-2.7-6-6-6c-2.8,0-5-2.2-5-5s2.2-5,5-5c3.3,0,6-2.7,6-6c0-2.8,2.2-5,5-5
				s5,2.2,5,5c0,3.3,2.7,6,6,6c2.8,0,5,2.2,5,5s-2.2,5-5,5c-3.3,0-6,2.7-6,6C460,441.5,457.8,443.8,455,443.8z"/>
			<path class="st3" d="M423.3,163.1c-2.8,0-5-2.2-5-5c0-3.3-2.7-6-6-6c-2.8,0-5-2.2-5-5s2.2-5,5-5c3.3,0,6-2.7,6-6c0-2.8,2.2-5,5-5
				s5,2.2,5,5c0,3.3,2.7,6,6,6c2.8,0,5,2.2,5,5s-2.2,5-5,5c-3.3,0-6,2.7-6,6C428.3,160.8,426.1,163.1,423.3,163.1z"/>
			<g class="st4">
				<path class="st5" d="M386.5,88.4v377.9c0,16.6-13.4,30-30,30H155.5c-16.6,0-30-13.4-30-30V88.4c0-16.6,13.4-30,30-30h201.1
					C373.1,58.4,386.5,71.8,386.5,88.4z"/>
				<path class="st6" d="M386.5,64.4v377.9c0,16.6-13.4,30-30,30H155.5c-16.6,0-30-13.4-30-30V64.4c0-16.6,13.4-30,30-30h201.1
					C373.1,34.4,386.5,47.8,386.5,64.4L386.5,64.4z"/>
				<path class="st7" d="M311.6,57.4l7.2-22.9H193.3l7.2,22.9c1.3,4.2,5.2,7,9.5,7H302C306.4,64.4,310.3,61.5,311.6,57.4L311.6,57.4
					z"/>
				<g class="st8">
					<g>
						<circle class="st3" cx="188" cy="159.5" r="38.6"/>
						<path class="st9" d="M204.6,153.7c0-9.2-7.5-16.6-16.6-16.6s-16.6,7.5-16.6,16.6c0,4.5,1.8,8.6,4.8,11.6
							c-2.9,3-4.8,7.1-4.8,11.6c0,2.8,2.2,5,5,5s5-2.2,5-5c0-3.6,3-6.6,6.6-6.6s6.6,3,6.6,6.6c0,2.8,2.2,5,5,5s5-2.2,5-5
							c0-4.5-1.8-8.6-4.8-11.6C202.8,162.3,204.6,158.2,204.6,153.7z M188,147.1c3.6,0,6.6,3,6.6,6.6s-3,6.6-6.6,6.6s-6.6-3-6.6-6.6
							S184.3,147.1,188,147.1z"/>
					</g>
				</g>
				<g class="st8">
					<path class="st1" d="M309.3,437.8H202.7c-2.8,0-5-2.2-5-5s2.2-5,5-5h106.5c2.8,0,5,2.2,5,5S312,437.8,309.3,437.8z"/>
				</g>
				<g class="st8">
					<path class="st1" d="M357.6,105.1h-76.5c-2.8,0-5-2.2-5-5s2.2-5,5-5h76.5c2.8,0,5,2.2,5,5S360.4,105.1,357.6,105.1z"/>
				</g>
				<g class="st8">
					<path class="st10" d="M179.8,62.7h-19c-2.8,0-5-2.2-5-5v-5c0-2.8,2.2-5,5-5h19c2.8,0,5,2.2,5,5v5
						C184.8,60.5,182.6,62.7,179.8,62.7z"/>
					<g>
						<g>
							<path class="st10" d="M335.9,62c-2.8,0-5-2.2-5-5v-3.5c0-2.8,2.2-5,5-5s5,2.2,5,5V57C340.9,59.8,338.7,62,335.9,62z"/>
						</g>
						<g>
							<path class="st10" d="M351.2,62c-2.8,0-5-2.2-5-5v-3.5c0-2.8,2.2-5,5-5s5,2.2,5,5V57C356.2,59.8,353.9,62,351.2,62z"/>
						</g>
					</g>
				</g>
				<g class="st8">
					<g>
						<path class="st11" d="M357.6,179.8H251.1c-2.8,0-5-2.2-5-5s2.2-5,5-5h106.5c2.8,0,5,2.2,5,5S360.4,179.8,357.6,179.8z"/>
					</g>
					<g>
						<g>
							<path class="st10" d="M251.1,160.6c-2.8,0-5-2.2-5-5v-3.5c0-2.8,2.2-5,5-5s5,2.2,5,5v3.5
								C256.1,158.3,253.8,160.6,251.1,160.6L251.1,160.6z"/>
						</g>
						<g>
							<path class="st10" d="M266.3,160.6c-2.8,0-5-2.2-5-5v-3.5c0-2.8,2.2-5,5-5s5,2.2,5,5v3.5
								C271.3,158.3,269.1,160.6,266.3,160.6z"/>
						</g>
					</g>
					<g>
						<g>
							<path class="st10" d="M296.8,160.6c-2.8,0-5-2.2-5-5v-3.5c0-2.8,2.2-5,5-5s5,2.2,5,5v3.5
								C301.8,158.3,299.6,160.6,296.8,160.6z"/>
						</g>
					</g>
					<g>
						<g>
							<path class="st10" d="M312.1,160.6c-2.8,0-5-2.2-5-5v-3.5c0-2.8,2.2-5,5-5s5,2.2,5,5v3.5
								C317.1,158.3,314.8,160.6,312.1,160.6z"/>
						</g>
						<g>
							<path class="st10" d="M327.3,160.6c-2.8,0-5-2.2-5-5v-3.5c0-2.8,2.2-5,5-5s5,2.2,5,5v3.5
								C332.3,158.3,330.1,160.6,327.3,160.6z"/>
						</g>
					</g>
					<g>
						<g>
							<path class="st10" d="M342.6,160.6c-2.8,0-5-2.2-5-5v-3.5c0-2.8,2.2-5,5-5s5,2.2,5,5v3.5
								C347.6,158.3,345.3,160.6,342.6,160.6z"/>
						</g>
						<g>
							<path class="st10" d="M357.8,160.6c-2.8,0-5-2.2-5-5v-3.5c0-2.8,2.2-5,5-5s5,2.2,5,5v3.5
								C362.8,158.3,360.6,160.6,357.8,160.6z"/>
						</g>
					</g>
				</g>
				<g class="st8">
					<g>
						<circle class="st12" cx="188" cy="253.2" r="38.6"/>
						<path class="st9" d="M204.6,247.4c0-9.2-7.5-16.6-16.6-16.6s-16.6,7.5-16.6,16.6c0,4.5,1.8,8.6,4.8,11.6
							c-2.9,3-4.8,7.1-4.8,11.6c0,2.8,2.2,5,5,5s5-2.2,5-5c0-3.6,3-6.6,6.6-6.6s6.6,3,6.6,6.6c0,2.8,2.2,5,5,5s5-2.2,5-5
							c0-4.5-1.8-8.6-4.8-11.6C202.8,256,204.6,251.9,204.6,247.4L204.6,247.4z M188,240.8c3.6,0,6.6,3,6.6,6.6s-3,6.6-6.6,6.6
							s-6.6-3-6.6-6.6S184.3,240.8,188,240.8z"/>
					</g>
				</g>
				<g class="st8">
					<g>
						<path class="st11" d="M357.6,273.5H251.1c-2.8,0-5-2.2-5-5s2.2-5,5-5h106.5c2.8,0,5,2.2,5,5S360.4,273.5,357.6,273.5z"/>
					</g>
					<g>
						<g>
							<path class="st10" d="M251.1,254.3c-2.8,0-5-2.2-5-5v-3.5c0-2.8,2.2-5,5-5s5,2.2,5,5v3.5C256.1,252,253.8,254.3,251.1,254.3
								L251.1,254.3z"/>
						</g>
						<g>
							<path class="st10" d="M266.3,254.3c-2.8,0-5-2.2-5-5v-3.5c0-2.8,2.2-5,5-5s5,2.2,5,5v3.5C271.3,252,269.1,254.3,266.3,254.3z
								"/>
						</g>
					</g>
					<g>
						<g>
							<path class="st10" d="M296.8,254.3c-2.8,0-5-2.2-5-5v-3.5c0-2.8,2.2-5,5-5s5,2.2,5,5v3.5C301.8,252,299.6,254.3,296.8,254.3z
								"/>
						</g>
					</g>
					<g>
						<g>
							<path class="st10" d="M312.1,254.3c-2.8,0-5-2.2-5-5v-3.5c0-2.8,2.2-5,5-5s5,2.2,5,5v3.5C317.1,252,314.8,254.3,312.1,254.3z
								"/>
						</g>
						<g>
							<path class="st10" d="M327.3,254.3c-2.8,0-5-2.2-5-5v-3.5c0-2.8,2.2-5,5-5s5,2.2,5,5v3.5C332.3,252,330.1,254.3,327.3,254.3z
								"/>
						</g>
					</g>
					<g>
						<g>
							<path class="st10" d="M342.6,254.3c-2.8,0-5-2.2-5-5v-3.5c0-2.8,2.2-5,5-5s5,2.2,5,5v3.5C347.6,252,345.3,254.3,342.6,254.3z
								"/>
						</g>
						<g>
							<path class="st10" d="M357.8,254.3c-2.8,0-5-2.2-5-5v-3.5c0-2.8,2.2-5,5-5s5,2.2,5,5v3.5C362.8,252,360.6,254.3,357.8,254.3z
								"/>
						</g>
					</g>
				</g>
				<g class="st8">
					<g>
						<circle class="st2" cx="188" cy="346.9" r="38.6"/>
						<path class="st9" d="M204.6,341.1c0-9.2-7.5-16.6-16.6-16.6s-16.6,7.5-16.6,16.6c0,4.5,1.8,8.6,4.8,11.6
							c-2.9,3-4.8,7.1-4.8,11.6c0,2.8,2.2,5,5,5s5-2.2,5-5c0-3.6,3-6.6,6.6-6.6s6.6,3,6.6,6.6c0,2.8,2.2,5,5,5s5-2.2,5-5
							c0-4.5-1.8-8.6-4.8-11.6C202.8,349.7,204.6,345.6,204.6,341.1z M188,334.5c3.6,0,6.6,3,6.6,6.6s-3,6.6-6.6,6.6s-6.6-3-6.6-6.6
							S184.3,334.5,188,334.5z"/>
					</g>
				</g>
				<g class="st8">
					<g>
						<path class="st11" d="M357.6,367.3H251.1c-2.8,0-5-2.2-5-5s2.2-5,5-5h106.5c2.8,0,5,2.2,5,5S360.4,367.3,357.6,367.3z"/>
					</g>
					<g>
						<g>
							<path class="st10" d="M251.1,348c-2.8,0-5-2.2-5-5v-3.5c0-2.8,2.2-5,5-5s5,2.2,5,5v3.5C256.1,345.8,253.8,348,251.1,348
								L251.1,348z"/>
						</g>
						<g>
							<path class="st10" d="M266.3,348c-2.8,0-5-2.2-5-5v-3.5c0-2.8,2.2-5,5-5s5,2.2,5,5v3.5C271.3,345.8,269.1,348,266.3,348z"/>
						</g>
					</g>
					<g>
						<g>
							<path class="st10" d="M296.8,348c-2.8,0-5-2.2-5-5v-3.5c0-2.8,2.2-5,5-5s5,2.2,5,5v3.5C301.8,345.8,299.6,348,296.8,348z"/>
						</g>
					</g>
					<g>
						<g>
							<path class="st10" d="M312.1,348c-2.8,0-5-2.2-5-5v-3.5c0-2.8,2.2-5,5-5s5,2.2,5,5v3.5C317.1,345.8,314.8,348,312.1,348z"/>
						</g>
						<g>
							<path class="st10" d="M327.3,348c-2.8,0-5-2.2-5-5v-3.5c0-2.8,2.2-5,5-5s5,2.2,5,5v3.5C332.3,345.8,330.1,348,327.3,348z"/>
						</g>
					</g>
					<g>
						<g>
							<path class="st10" d="M342.6,348c-2.8,0-5-2.2-5-5v-3.5c0-2.8,2.2-5,5-5s5,2.2,5,5v3.5C347.6,345.8,345.3,348,342.6,348z"/>
						</g>
						<g>
							<path class="st10" d="M357.8,348c-2.8,0-5-2.2-5-5v-3.5c0-2.8,2.2-5,5-5s5,2.2,5,5v3.5C362.8,345.8,360.6,348,357.8,348z"/>
						</g>
					</g>
				</g>
				<g class="st8">
					<g>
						<path class="st11" d="M256,412.9c-1.3,0-2.6-0.5-3.5-1.5l-5.8-5.8c-2-2-2-5.1,0-7.1c2-2,5.1-2,7.1,0l2.3,2.3l2.3-2.3
							c2-2,5.1-2,7.1,0c2,2,2,5.1,0,7.1l-5.8,5.8C258.6,412.5,257.3,412.9,256,412.9L256,412.9z"/>
					</g>
				</g>
			</g>
		</g>
	</g>
	<g class="st4">
		<path class="st13" d="M155.5,477.3h201.1c19.3,0,35-15.7,35-35V219.2c0-2.8-2.2-5-5-5s-5,2.2-5,5v223.2c0,13.8-11.2,25-25,25
			H155.5c-13.8,0-25-11.2-25-25V64.4c0-13.8,11.2-25,25-25h74c2.8,0,5-2.2,5-5s-2.2-5-5-5h-74c-19.3,0-35,15.7-35,35v377.9
			C120.5,461.6,136.2,477.3,155.5,477.3L155.5,477.3z"/>
		<path class="st13" d="M263.2,39.4h93.4c13.8,0,25,11.2,25,25v121.1c0,2.8,2.2,5,5,5s5-2.2,5-5V64.4c0-19.3-15.7-35-35-35h-93.4
			c-2.8,0-5,2.2-5,5S260.4,39.4,263.2,39.4z"/>
	</g>
</g>
<g>
	<path class="st14" d="M467.6,60.5c-14.7,0-26.7-12-26.7-26.7s12-26.7,26.7-26.7c14.7,0,26.7,12,26.7,26.7S482.3,60.5,467.6,60.5z
		 M467.6,24.9c-4.9,0-8.9,4-8.9,8.9s4,8.9,8.9,8.9s8.9-4,8.9-8.9S472.5,24.9,467.6,24.9z"/>
	<path class="st15" d="M383.2,398.2c-23.1,0-49.9,11.2-75.5,19v-7.7c0-16.9-11.9-31.5-28.4-34.8l-171.2-35l-26.1,96.5
		c34.1,16,121.2,55.3,163.5,55.3c53.3,0,182.2-71.1,182.2-71.1S418.7,398.2,383.2,398.2L383.2,398.2z"/>
	<g>
		<circle class="st16" cx="298.8" cy="113.8" r="22.2"/>
		<circle class="st16" cx="405.4" cy="220.5" r="22.2"/>
		<path class="st16" d="M27.7,304.9v151.1h48.9l35.5-131.3C112.2,324.7,86.2,304.9,27.7,304.9z"/>
	</g>
	<path class="st17" d="M121.9,436.2l24-88.8l-37.9-7.7l-26.1,96.5c34.1,16,121.2,55.3,163.5,55.3c5.6,0,12.2-0.9,19.2-2.3
		C219.1,480.6,151.1,449.9,121.9,436.2L121.9,436.2z"/>
	<path class="st18" d="M316.5,113.8c0-3.4,0.9-6.5,2.2-9.3c-3.6-7.6-11.1-12.9-20-12.9c-12.3,0-22.2,10-22.2,22.2
		c0,12.3,10,22.2,22.2,22.2c8.9,0,16.4-5.3,20-12.9C317.4,120.3,316.5,117.2,316.5,113.8z"/>
	<path class="st18" d="M423.2,220.5c0-3.4,0.9-6.5,2.2-9.3c-3.6-7.6-11.1-12.9-20-12.9c-12.3,0-22.2,10-22.2,22.2s10,22.2,22.2,22.2
		c8.9,0,16.4-5.3,20-12.9C424.1,226.9,423.2,223.8,423.2,220.5z"/>
	<path d="M298.8,149.4c-19.6,0-35.5-15.9-35.5-35.5s15.9-35.5,35.5-35.5s35.5,15.9,35.5,35.5S318.4,149.4,298.8,149.4z M298.8,104.9
		c-4.9,0-8.9,4-8.9,8.9s4,8.9,8.9,8.9s8.9-4,8.9-8.9C307.7,108.9,303.7,104.9,298.8,104.9z"/>
	<path d="M405.4,256c-19.6,0-35.5-15.9-35.5-35.5s15.9-35.5,35.5-35.5s35.5,15.9,35.5,35.5S425,256,405.4,256z M405.4,211.6
		c-4.9,0-8.9,4-8.9,8.9c0,4.9,4,8.9,8.9,8.9s8.9-4,8.9-8.9C414.3,215.6,410.3,211.6,405.4,211.6z"/>
	<path d="M283.7,234.6l115.6-151l21.2,16.2l-115.6,151L283.7,234.6z"/>
	<path d="M76.6,469.3H27.7c-7.4,0-13.3-6-13.3-13.3V304.9c0-7.4,6-13.3,13.3-13.3c62.3,0,91.3,21.6,92.5,22.6
		c4.3,3.3,6.2,8.9,4.8,14.1L89.5,459.4C87.9,465.2,82.6,469.3,76.6,469.3z M41.1,442.6h25.3l30.2-111.5
		c-9.3-4.4-27.5-10.9-55.5-12.6L41.1,442.6z"/>
	<path d="M245.4,504.8c-40.2,0-114.2-30.7-169.2-56.6l11.3-24.1c73.2,34.3,130.8,54,157.9,54c36,0,117.9-38.9,160.8-61.4
		c-4.9-2.8-12.3-5.3-23-5.3c-15.6,0-34.9,6.4-53.6,12.7c-20.7,6.9-42,14-62,14c-37.4,0-86.9-17.8-89-18.6l9.1-25.1
		c0.5,0.2,47.1,17,79.9,17c15.6,0,34.9-6.4,53.6-12.7c20.7-6.9,42-14,62-14c44.1,0,56.3,29.3,56.8,30.6c2.5,6.3-0.1,13.4-5.9,16.6
		C428.7,435,301.6,504.8,245.4,504.8z"/>
	<path d="M321,417.6h-26.7v-8c0-10.5-7.5-19.7-17.8-21.8l-171.2-35l5.3-26.1l171.2,35c22.6,4.6,39.1,24.8,39.1,47.9L321,417.6z"/>
</g>
</svg>
