<?xml version="1.0" encoding="utf-8"?>
<!-- Generator: Adobe Illustrator 24.0.0, SVG Export Plug-In . SVG Version: 6.00 Build 0)  -->
<svg version="1.1" id="Capa_1" xmlns="http://www.w3.org/2000/svg" xmlns:xlink="http://www.w3.org/1999/xlink" x="0px" y="0px"
	 viewBox="0 0 512 512" style="enable-background:new 0 0 512 512;" xml:space="preserve">
<style type="text/css">
	.st0{fill:url(#SVGID_1_);}
	.st1{display:none;opacity:0.1;fill:#590BB2;enable-background:new    ;}
	.st2{display:none;fill:#D6B0FF;}
	.st3{display:none;fill:#FFA052;}
	.st4{display:none;fill:#FFE783;}
	.st5{display:none;}
	.st6{display:inline;fill:#590BB2;}
	.st7{fill:#9526DD;}
	.st8{fill:#C182F9;}
	.st9{fill:#FFE783;}
	.st10{fill:#FFA052;}
	.st11{opacity:0.1;fill:#590BB2;enable-background:new    ;}
	.st12{fill:#F44336;}
	.st13{fill:#590BB2;}
	.st14{opacity:0.1;enable-background:new    ;}
</style>
<linearGradient id="SVGID_1_" gradientUnits="userSpaceOnUse" x1="206.867" y1="260.4998" x2="802.41" y2="260.4998" gradientTransform="matrix(1 0 0 -1 0 514)">
	<stop  offset="7.011211e-04" style="stop-color:#FFF0D5"/>
	<stop  offset="0.5112" style="stop-color:#FFDFFF"/>
	<stop  offset="1" style="stop-color:#D9CEFF"/>
</linearGradient>
<path class="st0" d="M382.6,171.5c-0.2,0-0.4,0-0.6,0c-32-0.1-62.4-13.8-83.4-38c-31.4-36-77.6-58.6-129.1-58.4
	C76,75.5-1.2,154.1,0,247.6c1.2,93,77,168,170.2,168c26.3,0,51.3-6,73.5-16.7c19.2-9.2,42.1-6.8,59,6.2
	c21.9,16.7,49.2,26.7,78.8,26.8c71.4,0.1,130-58,130.4-129.4C512.4,230.4,454.6,171.9,382.6,171.5z"/>
<path class="st1" d="M488.3,295.8l-30.1-8.6c-3-12-7.7-23.4-14-33.7l15.2-27.4c1.3-2.3,0.9-5.2-1-7.1l-20.6-20.6
	c-1.9-1.9-4.8-2.3-7.1-1l-27.4,15.2c-10.3-6.3-21.6-11-33.7-14l-8.6-30.1c-0.7-2.6-3.1-4.3-5.7-4.3h-29.1c-2.7,0-5,1.8-5.7,4.3
	l-8.6,30.1c-12,3-23.4,7.7-33.7,14l-27.4-15.2c-2.3-1.3-5.2-0.9-7.1,1L223,219.1c-1.9,1.9-2.3,4.8-1,7.1l15.2,27.4
	c-6.3,10.3-11,21.6-14,33.7l-30.1,8.6c-2.6,0.7-4.3,3.1-4.3,5.7v29.1c0,2.7,1.8,5,4.3,5.7l30.1,8.6c3,12,7.7,23.4,14,33.7
	l-15.2,27.4c-1.3,2.3-0.9,5.2,1,7.1l20.6,20.6c1.9,1.9,4.8,2.3,7.1,1l27.4-15.2c10.3,6.3,21.6,11,33.7,14l8.6,30.1
	c0.7,2.6,3.1,4.3,5.7,4.3h29.1c2.7,0,5-1.8,5.7-4.3l8.6-30.1c12-3,23.4-7.7,33.7-14l27.4,15.2c2.3,1.3,5.2,0.9,7.1-1l20.6-20.6
	c1.9-1.9,2.3-4.8,1-7.1l-15.2-27.4c6.3-10.3,11-21.6,14-33.7l30.1-8.6c2.6-0.7,4.3-3.1,4.3-5.7v-29.1
	C492.6,298.9,490.8,296.6,488.3,295.8L488.3,295.8z M340.7,390.9c-41.3,0-74.8-33.5-74.8-74.8s33.5-74.8,74.8-74.8
	s74.8,33.5,74.8,74.8S382,390.9,340.7,390.9L340.7,390.9z"/>
<path class="st1" d="M181.1,249.8l-16.3-4.6c-1.6-6.5-4.2-12.6-7.5-18.2l8.2-14.8c0.7-1.3,0.5-2.8-0.5-3.8l-11.1-11.1
	c-1-1-2.6-1.2-3.8-0.5l-14.8,8.2c-5.6-3.4-11.7-5.9-18.2-7.5l-4.6-16.3c-0.4-1.4-1.7-2.3-3.1-2.3H93.5c-1.4,0-2.7,1-3.1,2.3
	l-4.6,16.3c-6.5,1.6-12.6,4.2-18.2,7.5l-14.8-8.2c-1.3-0.7-2.8-0.5-3.8,0.5l-11.1,11.1c-1,1-1.2,2.6-0.5,3.8l8.2,14.8
	c-3.4,5.6-5.9,11.7-7.5,18.2l-16.3,4.6c-1.4,0.4-2.3,1.7-2.3,3.1v15.7c0,1.4,1,2.7,2.3,3.1l16.3,4.6c1.6,6.5,4.2,12.6,7.5,18.2
	l-8.2,14.8c-0.7,1.3-0.5,2.8,0.5,3.8L49,324.3c1,1,2.6,1.2,3.8,0.5l14.8-8.2c5.6,3.4,11.7,5.9,18.2,7.5l4.6,16.3
	c0.4,1.4,1.7,2.3,3.1,2.3h15.7c1.4,0,2.7-1,3.1-2.3l4.6-16.3c6.5-1.6,12.6-4.2,18.2-7.5l14.8,8.2c1.3,0.7,2.8,0.5,3.8-0.5l11.1-11.1
	c1-1,1.2-2.6,0.5-3.8l-8.2-14.8c3.4-5.6,5.9-11.7,7.5-18.2l16.3-4.6c1.4-0.4,2.3-1.7,2.3-3.1v-15.7
	C183.4,251.4,182.5,250.2,181.1,249.8L181.1,249.8z M101.4,286.5c-14.2,0-25.8-11.5-25.8-25.8s11.5-25.8,25.8-25.8
	s25.8,11.5,25.8,25.8C127.2,275,115.7,286.5,101.4,286.5z"/>
<path class="st1" d="M290.5,94.5l-17.5-5c-1.7-7-4.5-13.6-8.1-19.6l8.9-15.9c0.8-1.4,0.5-3-0.6-4.1l-12-12c-1.1-1.1-2.8-1.3-4.1-0.6
	l-15.9,8.9c-6-3.6-12.6-6.4-19.6-8.1l-5-17.5c-0.4-1.5-1.8-2.5-3.3-2.5h-16.9c-1.6,0-2.9,1-3.3,2.5l-5,17.5
	c-7,1.7-13.6,4.5-19.6,8.1l-15.9-8.9c-1.4-0.8-3-0.5-4.1,0.6l-12,12c-1.1,1.1-1.3,2.8-0.6,4.1l8.9,15.9c-3.6,6-6.4,12.6-8.1,19.6
	l-17.5,5c-1.5,0.4-2.5,1.8-2.5,3.3v16.9c0,1.6,1,2.9,2.5,3.3l17.5,5c1.7,7,4.5,13.6,8.1,19.6l-8.9,15.9c-0.8,1.4-0.5,3,0.6,4.1
	l12,12c1.1,1.1,2.8,1.3,4.1,0.6l15.9-8.9c6,3.6,12.6,6.4,19.6,8.1l5,17.5c0.4,1.5,1.8,2.5,3.3,2.5h16.9c1.6,0,2.9-1,3.3-2.5l5-17.5
	c7-1.7,13.6-4.5,19.6-8.1l15.9,8.9c1.4,0.8,3,0.5,4.1-0.6l12-12c1.1-1.1,1.3-2.8,0.6-4.1l-8.9-15.9c3.6-6,6.4-12.6,8.1-19.6l17.5-5
	c1.5-0.4,2.5-1.8,2.5-3.3V97.8C293,96.3,292,94.9,290.5,94.5L290.5,94.5z M204.7,140.7c-19,0-34.4-15.4-34.4-34.4S185.7,72,204.7,72
	s34.4,15.4,34.4,34.4S223.7,140.7,204.7,140.7z"/>
<path class="st2" d="M488.3,316.8l-30.1-8.6c-3-12-7.7-23.4-14-33.7l15.2-27.4c1.3-2.3,0.9-5.2-1-7.1l-20.6-20.6
	c-1.9-1.9-4.8-2.3-7.1-1l-27.4,15.2c-10.3-6.3-21.6-11-33.7-14l-8.6-30.1c-0.7-2.6-3.1-4.3-5.7-4.3h-29.1c-2.7,0-5,1.8-5.7,4.3
	l-8.6,30.1c-12,3-23.4,7.7-33.7,14l-27.4-15.2c-2.3-1.3-5.2-0.9-7.1,1L223,240.1c-1.9,1.9-2.3,4.8-1,7.1l15.2,27.4
	c-6.3,10.3-11,21.6-14,33.7l-30.1,8.6c-2.6,0.7-4.3,3.1-4.3,5.7v29.1c0,2.7,1.8,5,4.3,5.7l30.1,8.6c3,12,7.7,23.4,14,33.7
	l-15.2,27.4c-1.3,2.3-0.9,5.2,1,7.1l20.6,20.6c1.9,1.9,4.8,2.3,7.1,1l27.4-15.2c10.3,6.3,21.6,11,33.7,14l8.6,30.1
	c0.7,2.6,3.1,4.3,5.7,4.3h29.1c2.7,0,5-1.8,5.7-4.3l8.6-30.1c12-3,23.4-7.7,33.7-14l27.4,15.2c2.3,1.3,5.2,0.9,7.1-1l20.6-20.6
	c1.9-1.9,2.3-4.8,1-7.1l-15.2-27.4c6.3-10.3,11-21.6,14-33.7l30.1-8.6c2.6-0.7,4.3-3.1,4.3-5.7v-29.1
	C492.6,319.9,490.8,317.6,488.3,316.8L488.3,316.8z M340.7,411.9c-41.3,0-74.8-33.5-74.8-74.8s33.5-74.8,74.8-74.8
	s74.8,33.5,74.8,74.8S382,411.9,340.7,411.9L340.7,411.9z"/>
<path class="st3" d="M181.1,270.8l-16.3-4.6c-1.6-6.5-4.2-12.6-7.5-18.2l8.2-14.8c0.7-1.3,0.5-2.8-0.5-3.8l-11.1-11.1
	c-1-1-2.6-1.2-3.8-0.5l-14.8,8.2c-5.6-3.4-11.7-5.9-18.2-7.5l-4.6-16.3c-0.4-1.4-1.7-2.3-3.1-2.3H93.5c-1.4,0-2.7,1-3.1,2.3
	l-4.6,16.3c-6.5,1.6-12.6,4.2-18.2,7.5l-14.8-8.2c-1.3-0.7-2.8-0.5-3.8,0.5l-11.1,11.1c-1,1-1.2,2.6-0.5,3.8l8.2,14.8
	c-3.4,5.6-5.9,11.7-7.5,18.2l-16.3,4.6c-1.4,0.4-2.3,1.7-2.3,3.1v15.7c0,1.4,1,2.7,2.3,3.1l16.3,4.6c1.6,6.5,4.2,12.6,7.5,18.2
	l-8.2,14.8c-0.7,1.3-0.5,2.8,0.5,3.8L49,345.3c1,1,2.6,1.2,3.8,0.5l14.8-8.2c5.6,3.4,11.7,5.9,18.2,7.5l4.6,16.3
	c0.4,1.4,1.7,2.3,3.1,2.3h15.7c1.4,0,2.7-1,3.1-2.3l4.6-16.3c6.5-1.6,12.6-4.2,18.2-7.5l14.8,8.2c1.3,0.7,2.8,0.5,3.8-0.5l11.1-11.1
	c1-1,1.2-2.6,0.5-3.8l-8.2-14.8c3.4-5.6,5.9-11.7,7.5-18.2l16.3-4.6c1.4-0.4,2.3-1.7,2.3-3.1v-15.7
	C183.4,272.4,182.5,271.2,181.1,270.8L181.1,270.8z M101.4,307.5c-14.2,0-25.8-11.5-25.8-25.8s11.5-25.8,25.8-25.8
	s25.8,11.5,25.8,25.8S115.7,307.5,101.4,307.5z"/>
<path class="st4" d="M290.5,115.5l-17.5-5c-1.7-7-4.5-13.6-8.1-19.6l8.9-15.9c0.8-1.4,0.5-3-0.6-4.1l-12-12
	c-1.1-1.1-2.8-1.3-4.1-0.6l-15.9,8.9c-6-3.6-12.6-6.4-19.6-8.1l-5-17.5c-0.4-1.5-1.8-2.5-3.3-2.5h-16.9c-1.6,0-2.9,1-3.3,2.5
	l-5,17.5c-7,1.7-13.6,4.5-19.6,8.1l-15.9-8.9c-1.4-0.8-3-0.5-4.1,0.6l-12,12c-1.1,1.1-1.3,2.8-0.6,4.1l8.9,15.9
	c-3.6,6-6.4,12.6-8.1,19.6l-17.5,5c-1.5,0.4-2.5,1.8-2.5,3.3v16.9c0,1.6,1,2.9,2.5,3.3l17.5,5c1.7,7,4.5,13.6,8.1,19.6l-8.9,15.9
	c-0.8,1.4-0.5,3,0.6,4.1l12,12c1.1,1.1,2.8,1.3,4.1,0.6l15.9-8.9c6,3.6,12.6,6.4,19.6,8.1l5,17.5c0.4,1.5,1.8,2.5,3.3,2.5h16.9
	c1.6,0,2.9-1,3.3-2.5l5-17.5c7-1.7,13.6-4.5,19.6-8.1l15.9,8.9c1.4,0.8,3,0.5,4.1-0.6l12-12c1.1-1.1,1.3-2.8,0.6-4.1l-8.9-15.9
	c3.6-6,6.4-12.6,8.1-19.6l17.5-5c1.5-0.4,2.5-1.8,2.5-3.3v-16.9C293,117.3,292,115.9,290.5,115.5L290.5,115.5z M204.7,161.7
	c-19,0-34.4-15.4-34.4-34.4S185.7,93,204.7,93s34.4,15.4,34.4,34.4S223.7,161.7,204.7,161.7z"/>
<g class="st5">
	<path class="st6" d="M355.3,494h-29.1c-4.9,0-9.2-3.3-10.6-8l-7.8-27.4c-10.4-2.8-20.4-6.9-29.7-12.3l-24.9,13.9
		c-4.3,2.4-9.6,1.6-13.1-1.8l-20.6-20.6c-3.4-3.4-4.2-8.8-1.8-13.1l13.9-24.9c-5.4-9.3-9.5-19.3-12.3-29.7l-27.4-7.8
		c-4.7-1.3-8-5.7-8-10.6v-29.1c0-4.9,3.3-9.2,8-10.6l27.4-7.8c2.8-10.4,6.9-20.4,12.3-29.7l-13.9-24.9c-2.4-4.3-1.6-9.6,1.8-13.1
		l20.6-20.6c3.4-3.4,8.8-4.2,13.1-1.8l24.9,13.9c9.3-5.4,19.3-9.5,29.7-12.3l7.8-27.4c1.3-4.7,5.7-8,10.6-8h29.1
		c4.9,0,9.2,3.3,10.6,8l7.8,27.4c10.4,2.8,20.4,6.9,29.7,12.3l24.9-13.9c4.3-2.4,9.6-1.6,13.1,1.8l20.6,20.6
		c3.4,3.4,4.2,8.8,1.8,13.1l-13.9,24.9c5.4,9.3,9.5,19.3,12.3,29.7l27.4,7.8h0c4.7,1.3,8,5.7,8,10.6v29.1c0,4.9-3.3,9.2-8,10.6
		l-27.4,7.8c-2.8,10.4-6.9,20.4-12.3,29.7l13.9,24.9c2.4,4.3,1.6,9.6-1.8,13.1l-20.6,20.6c-3.4,3.4-8.8,4.2-13.1,1.8l-24.9-13.9
		c-9.3,5.4-19.3,9.5-29.7,12.3l-7.8,27.4C364.5,490.7,360.2,494,355.3,494L355.3,494z M278.2,435.6c0.9,0,1.8,0.2,2.6,0.7
		c10,6.1,20.9,10.6,32.3,13.4c1.7,0.4,3.1,1.8,3.6,3.5l8.6,30.1c0.1,0.4,0.5,0.7,0.9,0.7h29.1c0.4,0,0.8-0.3,0.9-0.7l8.6-30.1
		c0.5-1.7,1.9-3.1,3.6-3.5c11.4-2.8,22.2-7.3,32.3-13.4c1.5-0.9,3.5-1,5-0.1l27.4,15.2c0.4,0.2,0.9,0.1,1.2-0.2l20.6-20.6
		c0.3-0.3,0.4-0.8,0.2-1.2l-15.2-27.4c-0.9-1.6-0.8-3.5,0.1-5c6.1-10,10.6-20.9,13.4-32.3c0.4-1.7,1.8-3.1,3.5-3.6l30.1-8.6
		c0.4-0.1,0.7-0.5,0.7-0.9v-29.1c0-0.4-0.3-0.8-0.7-0.9l-30.1-8.6c-1.7-0.5-3.1-1.9-3.5-3.6c-2.8-11.4-7.3-22.2-13.4-32.3
		c-0.9-1.5-1-3.5-0.1-5l15.2-27.4c0.2-0.4,0.1-0.9-0.2-1.2L434.3,223c-0.3-0.3-0.8-0.4-1.2-0.2l-27.4,15.2c-1.6,0.9-3.5,0.8-5-0.1
		c-10-6.1-20.9-10.6-32.3-13.4c-1.7-0.4-3.1-1.8-3.6-3.5l-8.6-30.1c-0.1-0.4-0.5-0.7-0.9-0.7h-29.1c-0.4,0-0.8,0.3-0.9,0.7
		l-8.6,30.1c-0.5,1.7-1.9,3.1-3.6,3.5c-11.4,2.8-22.2,7.3-32.3,13.4c-1.5,0.9-3.5,1-5,0.1l-27.4-15.2c-0.4-0.2-0.9-0.1-1.2,0.2
		l-20.6,20.6c-0.3,0.3-0.4,0.8-0.2,1.2l15.2,27.4c0.9,1.6,0.8,3.5-0.1,5c-6.1,10-10.6,20.9-13.4,32.3c-0.4,1.7-1.8,3.1-3.5,3.6
		l-30.1,8.6c-0.4,0.1-0.7,0.5-0.7,0.9v29.1c0,0.4,0.3,0.8,0.7,0.9l30.1,8.6c1.7,0.5,3.1,1.9,3.5,3.6c2.8,11.4,7.3,22.2,13.4,32.3
		c0.9,1.5,1,3.5,0.1,5l-15.2,27.4c-0.2,0.4-0.1,0.9,0.2,1.2l20.6,20.6c0.3,0.3,0.8,0.4,1.2,0.2l27.4-15.2
		C276.5,435.8,277.3,435.6,278.2,435.6L278.2,435.6z M340.7,416.9c-44,0-79.8-35.8-79.8-79.8c0-15.7,4.6-31,13.3-44
		c1.5-2.3,4.6-2.9,6.9-1.4s2.9,4.6,1.4,6.9c-7.6,11.4-11.6,24.8-11.6,38.5c0,38.5,31.3,69.8,69.8,69.8s69.8-31.3,69.8-69.8
		s-31.3-69.8-69.8-69.8c-14.5,0-28.4,4.4-40.3,12.8c-2.3,1.6-5.4,1.1-7-1.2c-1.6-2.3-1.1-5.4,1.2-7c13.5-9.6,29.5-14.7,46.1-14.7
		c44,0,79.8,35.8,79.8,79.8S384.7,416.9,340.7,416.9L340.7,416.9z"/>
	<path class="st6" d="M109.3,368.7H93.5c-3.7,0-6.9-2.5-7.9-6l-3.9-13.5c-4.9-1.4-9.7-3.4-14.2-5.9l-12.3,6.9
		c-3.2,1.8-7.2,1.2-9.8-1.4l-11.1-11.1c-2.6-2.6-3.1-6.6-1.4-9.8l6.9-12.3c-2.5-4.5-4.5-9.3-5.9-14.2l-13.5-3.9c-3.5-1-6-4.3-6-7.9
		v-15.7c0-3.7,2.5-6.9,6-7.9l13.5-3.9c1.4-4.9,3.4-9.7,5.9-14.2L33,235.6c-1.8-3.2-1.2-7.2,1.4-9.8l11.1-11.1
		c2.6-2.6,6.6-3.1,9.8-1.4l12.3,6.9c4.5-2.5,9.3-4.4,14.2-5.9l3.9-13.5c1-3.5,4.3-6,7.9-6h15.7c3.7,0,6.9,2.5,7.9,6l3.9,13.5
		c4.9,1.4,9.7,3.4,14.2,5.9l12.3-6.9c3.2-1.8,7.2-1.2,9.8,1.4l11.1,11.1c2.6,2.6,3.1,6.6,1.4,9.8l-6.9,12.3
		c2.5,4.5,4.4,9.3,5.9,14.2l13.5,3.9c3.5,1,6,4.3,6,7.9v15.7c0,3.7-2.5,6.9-6,7.9l-13.5,3.9c-1.4,4.9-3.4,9.7-5.9,14.2l6.9,12.3
		c1.8,3.2,1.2,7.2-1.4,9.8l-11.1,11.1c-2.6,2.6-6.6,3.1-9.8,1.4l-12.3-6.9c-4.5,2.5-9.3,4.5-14.2,5.9l-3.9,13.5
		C116.2,366.3,112.9,368.7,109.3,368.7L109.3,368.7z M94.9,358.7h13.1l4.3-15c0.5-1.7,1.9-3.1,3.6-3.5c5.9-1.5,11.6-3.8,16.8-7
		c1.5-0.9,3.5-1,5-0.1l13.6,7.6l9.2-9.2l-7.6-13.6c-0.9-1.6-0.8-3.5,0.1-5c3.2-5.2,5.5-10.9,7-16.8c0.4-1.7,1.8-3.1,3.5-3.6l15-4.3
		v-13.1l-15-4.3c-1.7-0.5-3.1-1.9-3.5-3.6c-1.5-5.9-3.8-11.6-7-16.8c-0.9-1.5-1-3.5-0.1-5l7.6-13.6l-9.2-9.2l-13.6,7.6
		c-1.6,0.9-3.5,0.8-5-0.1c-5.2-3.2-10.9-5.5-16.8-7c-1.7-0.4-3.1-1.8-3.6-3.5l-4.3-15H94.9l-4.3,15c-0.5,1.7-1.9,3.1-3.6,3.5
		c-5.9,1.5-11.6,3.8-16.8,7c-1.5,0.9-3.5,1-5,0.1l-13.6-7.6l-9.2,9.2l7.6,13.6c0.9,1.6,0.8,3.5-0.1,5c-3.2,5.2-5.5,10.9-7,16.8
		c-0.4,1.7-1.8,3.1-3.5,3.6l-15,4.3v13.1l15,4.3c1.7,0.5,3.1,1.9,3.5,3.6c1.5,5.9,3.8,11.6,7,16.8c0.9,1.5,1,3.5,0.1,5l-7.6,13.6
		l9.2,9.2l13.6-7.6c1.6-0.9,3.5-0.8,5,0.1c5.2,3.2,10.9,5.5,16.8,7c1.7,0.4,3.1,1.8,3.6,3.5L94.9,358.7z M179.7,275.6L179.7,275.6
		L179.7,275.6z M179.7,275.6C179.7,275.6,179.7,275.6,179.7,275.6L179.7,275.6z"/>
	<path class="st6" d="M101.4,312.5c-17,0-30.8-13.8-30.8-30.8s13.8-30.8,30.8-30.8s30.8,13.8,30.8,30.8S118.4,312.5,101.4,312.5z
		 M101.4,260.9c-11.5,0-20.8,9.3-20.8,20.8s9.3,20.8,20.8,20.8s20.8-9.3,20.8-20.8S112.9,260.9,101.4,260.9z"/>
	<path class="st6" d="M213.2,220.6h-16.9c-3.8,0-7.1-2.5-8.1-6.2l-4.2-14.8c-5.4-1.6-10.7-3.7-15.6-6.5l-13.4,7.5
		c-3.3,1.8-7.5,1.2-10.1-1.4l-12-12c-2.7-2.7-3.2-6.8-1.4-10.1l7.5-13.5c-2.7-4.9-4.9-10.2-6.5-15.6l-14.8-4.2
		c-3.6-1-6.2-4.4-6.2-8.2v-16.9c0-3.8,2.5-7.1,6.2-8.2l14.8-4.2c1.6-5.4,3.7-10.7,6.5-15.6l-7.5-13.4c-1.8-3.3-1.2-7.5,1.4-10.1
		l12-12c2.7-2.7,6.8-3.2,10.1-1.4l13.5,7.5c4.9-2.7,10.2-4.9,15.6-6.5l4.2-14.8c1-3.6,4.4-6.2,8.1-6.2h16.9c3.8,0,7.1,2.5,8.2,6.2
		l4.2,14.8c5.4,1.6,10.7,3.7,15.6,6.5l13.4-7.5c3.3-1.8,7.5-1.2,10.1,1.4l12,12c2.7,2.7,3.2,6.8,1.4,10.1l-7.5,13.5
		c2.7,4.9,4.9,10.2,6.5,15.6l14.8,4.2c3.6,1,6.2,4.4,6.2,8.2v16.9c0,3.8-2.5,7.1-6.2,8.2l-14.8,4.2c-1.6,5.4-3.7,10.7-6.5,15.6
		l7.5,13.4c1.8,3.3,1.2,7.5-1.4,10.1l-12,12c-2.7,2.7-6.8,3.2-10.1,1.4l-13.5-7.5c-4.9,2.7-10.2,4.9-15.6,6.5l-4.2,14.8
		C220.3,218.1,216.9,220.6,213.2,220.6L213.2,220.6z M197.4,210.6H212l4.7-16.4c0.5-1.7,1.9-3.1,3.6-3.5c6.4-1.6,12.5-4.1,18.2-7.5
		c1.5-0.9,3.5-1,5-0.1l14.9,8.3l10.3-10.3l-8.3-14.9c-0.9-1.6-0.8-3.5,0.1-5c3.4-5.6,6-11.8,7.5-18.2c0.4-1.7,1.8-3.1,3.5-3.6
		l16.4-4.7V120l-16.4-4.7c-1.7-0.5-3.1-1.9-3.5-3.6c-1.6-6.4-4.1-12.5-7.5-18.2c-0.9-1.5-1-3.5-0.1-5l8.3-14.9l-10.3-10.3l-14.9,8.3
		c-1.6,0.9-3.5,0.8-5-0.1c-5.6-3.4-11.8-6-18.2-7.5c-1.7-0.4-3.1-1.8-3.6-3.5L212,44h-14.6l-4.7,16.4c-0.5,1.7-1.9,3.1-3.6,3.5
		c-6.4,1.6-12.5,4.1-18.2,7.5c-1.5,0.9-3.5,1-5,0.1L151,63.2l-10.3,10.3l8.3,14.9c0.9,1.6,0.8,3.5-0.1,5c-3.4,5.6-6,11.8-7.5,18.2
		c-0.4,1.7-1.8,3.1-3.5,3.6l-16.4,4.7v14.6l16.4,4.7c1.7,0.5,3.1,1.9,3.5,3.6c1.6,6.4,4.1,12.5,7.5,18.2c0.9,1.5,1,3.5,0.1,5
		l-8.3,14.9l10.3,10.3l14.9-8.3c1.6-0.9,3.5-0.8,5,0.1c5.6,3.4,11.8,6,18.2,7.5c1.7,0.4,3.1,1.8,3.6,3.5L197.4,210.6z M204.7,166.7
		c-5.3,0-10.4-1-15.2-3.1c-2.5-1.1-3.7-4-2.7-6.5c1.1-2.5,4-3.7,6.5-2.7c3.6,1.5,7.4,2.3,11.4,2.3c16.2,0,29.4-13.2,29.4-29.4
		S220.9,98,204.7,98s-29.4,13.2-29.4,29.4c0,3.5,0.6,6.8,1.8,10.1c0.9,2.6-0.4,5.5-3,6.4c-2.6,0.9-5.5-0.4-6.4-3
		c-1.6-4.3-2.4-8.9-2.4-13.5c0-21.7,17.7-39.4,39.4-39.4s39.4,17.7,39.4,39.4S226.4,166.7,204.7,166.7L204.7,166.7z"/>
</g>
<path class="st7" d="M317.4,354.1c-1.3,0-2.6-0.5-3.5-1.5l-12-12c-2-1.9-2-5.1,0-7.1l12-12c1.9-1.9,5.1-1.9,7.1,0c2,2,2,5.1,0,7.1
	l-8.5,8.5l8.5,8.5c2,2,2,5.1,0,7.1C319.9,353.7,318.7,354.1,317.4,354.1z"/>
<path class="st7" d="M364.1,354.1c-1.3,0-2.6-0.5-3.5-1.5c-2-2-2-5.1,0-7.1l8.5-8.5l-8.5-8.5c-2-2-2-5.1,0-7.1
	c1.9-1.9,5.1-1.9,7.1,0l12,12c2,2,2,5.1,0,7.1l-12,12C366.6,353.7,365.4,354.1,364.1,354.1z"/>
<path class="st7" d="M333.9,354.1c-0.8,0-1.7-0.2-2.4-0.6c-2.4-1.4-3.2-4.4-1.9-6.8l13.6-24c1.4-2.4,4.4-3.2,6.8-1.9
	c2.4,1.4,3.2,4.4,1.9,6.8l-13.6,24C337.4,353.2,335.7,354.1,333.9,354.1z"/>
<path class="st8" d="M153,412.1c-1.3,0-2.6-0.5-3.5-1.5l-11-11c-2-2-2-5.1,0-7.1l11-11c0.9-0.9,2.2-1.5,3.5-1.5s2.6,0.5,3.5,1.5
	l11,11c0.9,0.9,1.5,2.2,1.5,3.5s-0.5,2.6-1.5,3.5l-11,11C155.5,411.6,154.2,412.1,153,412.1L153,412.1z M149,396.1l3.9,3.9l3.9-3.9
	l-3.9-3.9L149,396.1z"/>
<path class="st9" d="M352.5,148.3c-2.8,0-5-2.2-5-5c0-3.3-2.7-6-6-6c-2.8,0-5-2.2-5-5s2.2-5,5-5c3.3,0,6-2.7,6-6c0-2.8,2.2-5,5-5
	s5,2.2,5,5c0,3.3,2.7,6,6,6c2.8,0,5,2.2,5,5s-2.2,5-5,5c-3.3,0-6,2.7-6,6C357.5,146.1,355.3,148.3,352.5,148.3z"/>
<path class="st10" d="M183.4,461.6c-2.8,0-5-2.2-5-5c0-3.3-2.7-6-6-6c-2.8,0-5-2.2-5-5s2.2-5,5-5c3.3,0,6-2.7,6-6c0-2.8,2.2-5,5-5
	s5,2.2,5,5c0,3.3,2.7,6,6,6c2.8,0,5,2.2,5,5s-2.2,5-5,5c-3.3,0-6,2.7-6,6C188.4,459.4,186.2,461.6,183.4,461.6z"/>
<path class="st10" d="M75.6,173c-2.8,0-5-2.2-5-5c0-3.3-2.7-6-6-6c-2.8,0-5-2.2-5-5s2.2-5,5-5c3.3,0,6-2.7,6-6c0-2.8,2.2-5,5-5
	s5,2.2,5,5c0,3.3,2.7,6,6,6c2.8,0,5,2.2,5,5s-2.2,5-5,5c-3.3,0-6,2.7-6,6C80.6,170.7,78.4,173,75.6,173z"/>
<path class="st11" d="M711-63.8c0,26.7-21.6,48.3-48.3,48.3c-26.7,0-48.3-21.6-48.3-48.3c0-26.7,21.6-48.3,48.3-48.3
	C689.3-112.1,711-90.5,711-63.8z"/>
<path class="st11" d="M1029,69.9c-19.8-17.2-31.1-42.3-31.1-69v-37.5c0-52-41.1-94.2-91.6-94.2s-91.6,42.3-91.6,94.2V0.9
	c0,26.6-11.3,51.8-31.3,69.1c-5.1,4.5-8,11-8,17.9c0,13,10.3,23.6,22.9,23.6h216c12.6,0,22.9-10.6,22.9-23.6
	C1037.1,81,1034.2,74.5,1029,69.9z"/>
<path class="st11" d="M820.9,83.7c0,40.4-32.8,73.2-73.2,73.2c-40.4,0-73.2-32.8-73.2-73.2s32.8-73.2,73.2-73.2
	C788.1,10.5,820.9,43.3,820.9,83.7z"/>
<path class="st11" d="M741.8,432.9c-30.3,0-54.9-24.6-54.9-54.9c0-6.1,4.9-11,11-11s11,4.9,11,11c0,18.2,14.8,33,33,33
	s33-14.8,33-33c0-6.1,4.9-11,11-11c6.1,0,11,4.9,11,11C796.7,408.3,772,432.9,741.8,432.9z"/>
<path class="st11" d="M930,615H688.3c-14.1,0-25.6-11.5-25.6-25.6c0-7.5,3.3-14.6,9-19.5c0.4-0.3,0.8-0.6,1.2-0.9
	c21.5-18.8,33.8-45.8,33.8-74.3v-40.9c0-56.5,46-102.5,102.5-102.5c2.3,0,4.9,0,7.2,0.4c6,1,10,6.7,9,12.6c-1,6-6.8,10-12.6,9
	c-1.2-0.2-2.5-0.1-3.6-0.1c-44.4,0-80.5,36.1-80.5,80.5v40.9c0,35.4-15.5,68.9-42.5,91.8c-0.2,0.2-0.4,0.3-0.6,0.5
	c-0.4,0.5-0.8,1.3-0.8,2.3c0,2,1.7,3.7,3.7,3.7H930c2,0,3.7-1.7,3.7-3.7c0-1-0.4-1.8-0.8-2.3c-0.2-0.2-0.4-0.3-0.6-0.5
	c-27-23-42.5-56.5-42.5-91.8v-16c0-6.1,4.9-11,11-11s11,4.9,11,11v16c0,28.5,12.3,55.5,33.8,74.3c0.4,0.3,0.8,0.5,1.1,0.9
	c5.7,4.9,9,12,9,19.5C955.6,603.5,944.1,615,930,615z"/>
<path class="st11" d="M725.7,253.5c-40.4,0-73.2-32.8-73.2-73.2s32.8-73.2,73.2-73.2c40.4,0,73.2,32.8,73.2,73.2
	S766.1,253.5,725.7,253.5z M725.7,129c-28.3,0-51.3,23-51.3,51.3c0,28.3,23,51.3,51.3,51.3c28.3,0,51.3-23,51.3-51.3
	C777,152,754,129,725.7,129z"/>
<path class="st10" d="M831.2,508.4c0,25.8-20.9,46.7-46.7,46.7c-25.8,0-46.7-20.9-46.7-46.7c0-25.8,20.9-46.7,46.7-46.7
	C810.2,461.6,831.2,482.6,831.2,508.4z"/>
<path class="st9" d="M957.3,414.2c-19.2-16.6-30.1-41-30.1-66.8v-36.3c0-50.3-39.8-91.2-88.7-91.2s-88.7,40.9-88.7,91.2v36.3
	c0,25.8-11,50.1-30.3,66.9c-4.9,4.4-7.8,10.7-7.8,17.3c0,12.6,10,22.8,22.2,22.8H943c12.2,0,22.2-10.2,22.2-22.8
	C965.2,425,962.3,418.6,957.3,414.2z"/>
<path class="st12" d="M950.9-70.9C950.9-31.7,919.2,0,880,0s-70.9-31.7-70.9-70.9s31.7-70.9,70.9-70.9S950.9-110.1,950.9-70.9z"/>
<path class="st13" d="M862.3,509.5c-29.3,0-53.2-23.9-53.2-53.2c0-5.9,4.8-10.6,10.6-10.6c5.9,0,10.6,4.8,10.6,10.6
	c0,17.6,14.3,31.9,31.9,31.9c17.6,0,31.9-14.3,31.9-31.9c0-5.9,4.8-10.6,10.6-10.6s10.6,4.8,10.6,10.6
	C915.5,485.6,891.6,509.5,862.3,509.5z"/>
<path class="st13" d="M824.3,332.4h-234c-13.7,0-24.8-11.1-24.8-24.8c0-7.3,3.2-14.1,8.7-18.9c0.4-0.3,0.7-0.6,1.1-0.9
	c20.8-18.2,32.7-44.3,32.7-71.9v-39.6c0-54.7,44.5-99.3,99.3-99.3c2.3,0,4.7,0,7,0.4c5.8,1,9.7,6.5,8.7,12.2
	c-1,5.8-6.6,9.7-12.2,8.7c-1.1-0.2-2.4-0.1-3.5-0.1c-43,0-78,35-78,78v39.6c0,34.3-15,66.7-41.2,88.9c-0.2,0.2-0.4,0.3-0.6,0.5
	c-0.4,0.5-0.8,1.2-0.8,2.2c0,1.9,1.6,3.5,3.5,3.5h234c1.9,0,3.5-1.6,3.5-3.5c0-1-0.4-1.7-0.8-2.2c-0.2-0.2-0.4-0.3-0.6-0.5
	c-26.2-22.3-41.2-54.7-41.2-88.9v-15.5c0-5.9,4.8-10.6,10.6-10.6s10.6,4.8,10.6,10.6v15.5c0,27.6,11.9,53.8,32.8,71.9
	c0.4,0.3,0.8,0.5,1.1,0.8c5.5,4.7,8.7,11.6,8.7,18.8C849.1,321.2,838,332.4,824.3,332.4z"/>
<path class="st13" d="M775.3,55.3c-39.1,0-70.9-31.8-70.9-70.9s31.8-70.9,70.9-70.9c39.1,0,70.9,31.8,70.9,70.9
	S814.4,55.3,775.3,55.3z M775.3-65.2c-27.4,0-49.6,22.3-49.6,49.6c0,27.4,22.3,49.6,49.6,49.6c27.4,0,49.6-22.3,49.6-49.6
	C825-42.9,802.7-65.2,775.3-65.2z"/>
<g class="st14">
	<path class="st13" d="M436.8,471.1H100.2c-6.2,0-11.2-5-11.2-11.2s5-11.2,11.2-11.2h336.6c6.2,0,11.2,5,11.2,11.2
		S443,471.1,436.8,471.1z"/>
	<g>
		<path class="st13" d="M169.4,377.6h-41.1c-8.1,0-14.7,6.6-14.7,14.7v58.8c0,4.9,3.9,8.8,8.8,8.8h52.9c4.9,0,8.8-3.9,8.8-8.8v-58.8
			C184.1,384.2,177.5,377.6,169.4,377.6L169.4,377.6z"/>
		<path class="st13" d="M290.9,290.8h-44.7c-8.8,0-16,7.2-16,16v140.6c0,5.3,4.3,9.6,9.6,9.6h57.5c5.3,0,9.6-4.3,9.6-9.6V306.8
			C306.8,298,299.7,290.8,290.9,290.8L290.9,290.8z"/>
		<path class="st13" d="M410.6,318.5h-44.7c-8.8,0-16,7.2-16,16v115c0,5.3,4.3,9.6,9.6,9.6h57.5c5.3,0,9.6-4.3,9.6-9.6v-115
			C426.5,325.7,419.4,318.5,410.6,318.5L410.6,318.5z"/>
		<path class="st13" d="M182.5,471.1h-67.3c-6.2,0-11.2-5-11.2-11.2v-74.8c0-10.3,8.4-18.7,18.7-18.7H175c10.3,0,18.7,8.4,18.7,18.7
			v74.8C193.7,466.1,188.7,471.1,182.5,471.1z M126.4,448.7h44.9v-59.8h-44.9V448.7z"/>
		<path class="st13" d="M302.2,471.1h-67.3c-6.2,0-11.2-5-11.2-11.2V295.3c0-10.3,8.4-18.7,18.7-18.7h52.4
			c10.3,0,18.7,8.4,18.7,18.7v164.6C313.4,466.1,308.4,471.1,302.2,471.1z M246.1,448.7h44.9V299h-44.9V448.7z"/>
		<path class="st13" d="M421.8,471.1h-67.3c-6.2,0-11.2-5-11.2-11.2V325.2c0-10.3,8.4-18.7,18.7-18.7h52.4
			c10.3,0,18.7,8.4,18.7,18.7v134.6C433.1,466.1,428,471.1,421.8,471.1z M365.7,448.7h44.9V329h-44.9V448.7z"/>
		<path class="st13" d="M130.1,276.6c-3,0-5.9-1.2-8.2-3.5c-4.2-4.5-4.1-11.6,0.4-15.9l71.1-67.3c2.6-2.5,6.3-3.6,9.7-2.9
			l117.6,21.4l78.2-78.1c4.4-4.4,11.5-4.4,15.9,0c4.4,4.4,4.4,11.5,0,15.9l-82.3,82.3c-2.6,2.6-6.4,3.8-9.9,3.1l-117.8-21.4
			l-66.9,63.4C135.7,275.6,132.9,276.6,130.1,276.6L130.1,276.6z"/>
		<path class="st13" d="M406.9,201.8c-6.2,0-11.2-5-11.2-11.2v-41.1h-41.1c-6.2,0-11.2-5-11.2-11.2s5-11.2,11.2-11.2h52.4
			c6.2,0,11.2,5,11.2,11.2v52.4C418.1,196.8,413.1,201.8,406.9,201.8z"/>
	</g>
</g>
<g>
	<path class="st13" d="M424.3,460.4H87.7c-6.2,0-11.2-5-11.2-11.2s5-11.2,11.2-11.2h336.6c6.2,0,11.2,5,11.2,11.2
		S430.5,460.4,424.3,460.4z"/>
	<g>
		<path class="st9" d="M156.9,366.9h-41.1c-8.1,0-14.7,6.6-14.7,14.7v58.8c0,4.9,3.9,8.8,8.8,8.8h52.9c4.9,0,8.8-3.9,8.8-8.8v-58.8
			C171.6,373.5,165,366.9,156.9,366.9L156.9,366.9z"/>
		<path class="st9" d="M278.4,280.1h-44.7c-8.8,0-16,7.2-16,16v140.6c0,5.3,4.3,9.6,9.6,9.6h57.5c5.3,0,9.6-4.3,9.6-9.6V296.1
			C294.3,287.3,287.2,280.1,278.4,280.1L278.4,280.1z"/>
		<path class="st9" d="M398.1,307.8h-44.7c-8.8,0-16,7.2-16,16v115c0,5.3,4.3,9.6,9.6,9.6h57.5c5.3,0,9.6-4.3,9.6-9.6v-115
			C414,315,406.9,307.8,398.1,307.8L398.1,307.8z"/>
		<path class="st13" d="M170,460.4h-67.3c-6.2,0-11.2-5-11.2-11.2v-74.8c0-10.3,8.4-18.7,18.7-18.7h52.4c10.3,0,18.7,8.4,18.7,18.7
			v74.8C181.2,455.4,176.2,460.4,170,460.4z M113.9,438h44.9v-59.8h-44.9V438z"/>
		<path class="st13" d="M289.7,460.4h-67.3c-6.2,0-11.2-5-11.2-11.2V284.6c0-10.3,8.4-18.7,18.7-18.7h52.4
			c10.3,0,18.7,8.4,18.7,18.7v164.6C300.9,455.4,295.9,460.4,289.7,460.4z M233.6,438h44.9V288.4h-44.9V438z"/>
		<path class="st13" d="M409.3,460.4H342c-6.2,0-11.2-5-11.2-11.2V314.5c0-10.3,8.4-18.7,18.7-18.7h52.4c10.3,0,18.7,8.4,18.7,18.7
			v134.6C420.6,455.4,415.5,460.4,409.3,460.4z M353.2,438h44.9V318.3h-44.9V438z"/>
		<path class="st13" d="M117.6,265.9c-3,0-5.9-1.2-8.2-3.5c-4.2-4.5-4.1-11.6,0.4-15.9l71.1-67.3c2.6-2.5,6.3-3.6,9.7-2.9
			l117.6,21.4l78.2-78.1c4.4-4.4,11.5-4.4,15.9,0c4.4,4.4,4.4,11.5,0,15.9L320,217.8c-2.6,2.6-6.4,3.8-9.9,3.1l-117.8-21.4
			l-66.9,63.4C123.2,264.9,120.4,265.9,117.6,265.9L117.6,265.9z"/>
		<path class="st13" d="M394.4,191.1c-6.2,0-11.2-5-11.2-11.2v-41.1H342c-6.2,0-11.2-5-11.2-11.2c0-6.2,5-11.2,11.2-11.2h52.4
			c6.2,0,11.2,5,11.2,11.2v52.4C405.6,186.1,400.6,191.1,394.4,191.1z"/>
	</g>
</g>
</svg>
