<?xml version="1.0" encoding="utf-8"?>
<!-- Generator: Adobe Illustrator 24.0.0, SVG Export Plug-In . SVG Version: 6.00 Build 0)  -->
<svg version="1.1" id="Capa_1" xmlns="http://www.w3.org/2000/svg" xmlns:xlink="http://www.w3.org/1999/xlink" x="0px" y="0px"
	 viewBox="0 0 512 512" style="enable-background:new 0 0 512 512;" xml:space="preserve">
<style type="text/css">
	.st0{fill:url(#SVGID_1_);}
	.st1{fill:#6C6CFF;}
	.st2{fill:#FF9D33;}
	.st3{fill:#FF6C6C;}
	.st4{opacity:0.1;fill:#0000CC;enable-background:new    ;}
	.st5{fill:#FFAB66;}
	.st6{fill:#FFC599;}
	.st7{fill:#0000CC;}
	.st8{fill:#FFF3EE;}
	.st9{opacity:0.1;enable-background:new    ;}
	.st10{fill:#FFFFFF;}
	.st11{fill:#FFB954;}
	.st12{fill:#FFEFD5;}
</style>
<g>
	
		<linearGradient id="SVGID_1_" gradientUnits="userSpaceOnUse" x1="514.7861" y1="557.218" x2="-122.409" y2="-79.9781" gradientTransform="matrix(1 0 0 -1 0 514)">
		<stop  offset="2.300000e-03" style="stop-color:#FFC599"/>
		<stop  offset="0.992" style="stop-color:#FFE8DC;stop-opacity:0"/>
	</linearGradient>
	<path class="st0" d="M428.4,171.9c-8.4-8.4-18-14.9-28.7-19.8c-28-12.7-50.1-35.4-62.4-63.6C314.3,36.4,262.3,0,201.7,0
		C122.4-0.1,56.6,63.2,53.6,142.4c-1.3,33.9,8.9,65.4,26.9,91c22.9,32.4,28.8,73.8,17,111.7c-16.8,53.9-10.9,104.9,21,136.8
		c55.9,55.9,170.6,31.8,256.2-53.8C460.2,342.5,484.3,227.8,428.4,171.9z"/>
	<g>
		<g>
			<path class="st1" d="M42.5,225.7c-1.3,0-2.6-0.5-3.5-1.5l-11-11c-2-2-2-5.1,0-7.1l11-11c2-2,5.1-2,7.1,0l11,11c2,2,2,5.1,0,7.1
				l-11,11C45,225.2,43.7,225.7,42.5,225.7z M38.5,209.7l3.9,3.9l3.9-3.9l-3.9-3.9L38.5,209.7z"/>
		</g>
		<g>
			<path class="st2" d="M403,128.3c-1.3,0-2.6-0.5-3.5-1.5l-11-11c-2-2-2-5.1,0-7.1l11-11c2-2,5.1-2,7.1,0l11,11c2,2,2,5.1,0,7.1
				l-11,11C405.6,127.8,404.3,128.3,403,128.3z M399.1,112.3l3.9,3.9l3.9-3.9l-3.9-3.9L399.1,112.3z"/>
		</g>
		<g>
			<path class="st1" d="M155.8,84c-7.2,0-13-5.8-13-13s5.8-13,13-13s13,5.8,13,13S163,84,155.8,84z M155.8,68c-1.7,0-3,1.4-3,3
				s1.4,3,3,3s3-1.4,3-3S157.5,68,155.8,68z"/>
		</g>
		<g>
			<path class="st3" d="M321,454.3c-7.2,0-13-5.8-13-13s5.8-13,13-13s13,5.8,13,13S328.2,454.3,321,454.3z M321,438.3
				c-1.7,0-3,1.4-3,3s1.4,3,3,3s3-1.4,3-3S322.7,438.3,321,438.3z"/>
		</g>
		<g>
			<path class="st2" d="M357.6,415.7c-6.2,0-11.7-4.5-12.8-10.8c-1.2-7.1,3.5-13.8,10.6-15c7.1-1.2,13.8,3.5,15,10.6
				s-3.5,13.8-10.6,15C359.1,415.7,358.3,415.7,357.6,415.7z M357.6,399.7c-0.2,0-0.3,0-0.5,0c-1.6,0.3-2.7,1.8-2.5,3.5
				c0.3,1.6,1.8,2.7,3.5,2.5c1.6-0.3,2.7-1.8,2.5-3.5C360.3,400.7,359.1,399.7,357.6,399.7z"/>
		</g>
		<g>
			<path class="st4" d="M-31.2,77.4c-7.2-24.6-30.3-40.1-54.9-38.8c-8.9-14.4-22.2-25.7-38.1-32.1C-130.3-60-186.1-111.9-254-111.9
				c-68.6,0-124.9,53-130.1,120.3c-14.7,1.9-28.8,8.5-40.1,19.8c-9.1,9.1-15.1,20-18.1,31.6c-21.1,4.9-36.8,23.7-36.8,46.3
				c0,26.2,21.3,47.5,47.5,47.5c11.1,0,21.2-3.8,29.3-10.1c10.9,10.6,25.9,17.2,42.3,17.2c11.5,0,22.3-3.2,31.5-8.8l65.8,65.8
				c4.8,4.8,12.5,4.8,17.3,0l62.3-62.3c8.9,3.5,18.7,5.4,28.8,5.4c19,0,36.5-6.7,50.3-17.8c11,4.6,23.7,5.5,36,1.9
				C-39.2,136.3-22.7,106.1-31.2,77.4L-31.2,77.4z"/>
			<g>
				<path class="st5" d="M-31.2,50.4c-7.2-24.6-30.3-40.1-54.9-38.8c-8.9-14.4-22.2-25.7-38.1-32.1C-130.3-87-186.1-138.9-254-138.9
					c-68.6,0-124.9,53-130.1,120.3c-14.7,1.9-28.8,8.5-40.1,19.8c-9.1,9.1-15.1,20-18.1,31.6c-21.1,4.9-36.8,23.7-36.8,46.3
					c0,26.2,21.3,47.5,47.5,47.5c11.1,0,21.2-3.8,29.3-10.1c10.9,10.6,25.9,17.2,42.3,17.2c17,0,32.3-7,43.4-18.2
					c17.9,11.5,39.3,18.2,62.2,18.2c19.9,0,38.6-5,55-13.9c12.9,8.8,28.4,13.9,45.1,13.9c19,0,36.5-6.7,50.3-17.8
					c11,4.6,23.7,5.5,36,1.9C-39.2,109.3-22.7,79.1-31.2,50.4z"/>
				<path class="st6" d="M-70.1,118.4c-11.6,2.9-23.4,1.8-33.8-2.5c-13.7,11.1-31.2,17.8-50.3,17.8c-16.7,0-32.3-5.1-45.1-13.9
					c-16.3,8.9-35.1,13.9-55,13.9c-22.9,0-44.3-6.7-62.2-18.2c-11,11.2-26.4,18.2-43.4,18.2c-16.5,0-31.4-6.6-42.3-17.2
					c-8.1,6.3-18.2,10.1-29.3,10.1c-2.6,0-5.1-0.2-7.6-0.6c-2.9-5.5-4.5-11.9-4.5-18.5c0-19,13.3-34.9,31-39
					c2.6-9.7,7.6-19,15.3-26.6c9.5-9.5,21.4-15.1,33.8-16.7c4.3-56.8,51.8-101.4,109.6-101.4c57.3,0,104.3,43.8,109.5,99.7
					c13.4,5.4,24.6,15,32.1,27.1c20.7-1.1,40.1,12,46.2,32.7C-62.6,95.5-64.3,108-70.1,118.4L-70.1,118.4z"/>
				<g>
					<path class="st1" d="M-344.5,108.8l81.9,81.9c4.8,4.8,12.5,4.8,17.3,0l81.9-81.9c7.7-7.7,2.3-20.9-8.7-20.9H-189v-99.2
						c0-6.8-5.5-12.2-12.2-12.2h-105.5c-6.8,0-12.2,5.5-12.2,12.2v99.2h-16.9C-346.8,87.8-352.3,101-344.5,108.8z"/>
					<path class="st7" d="M-26.4,48.9C-33.9,23.5-57,6.4-83.1,6.4c-0.1,0-0.2,0-0.2,0c-8.9-13.3-21.5-24-36.1-30.5
						c-3.7-32.3-18.9-62.1-43.1-84.2c-25-22.9-57.5-35.6-91.5-35.6c-34.3,0-67.1,12.9-92.2,36.3c-24,22.4-39,52.3-42.4,84.7
						c-14.8,2.8-28.2,9.8-39,20.6c-8.6,8.7-15,19.3-18.6,31c-22.4,6.5-37.8,26.8-37.8,50.4c0,28.9,23.6,52.5,52.5,52.5
						c10.4,0,20.3-3,28.9-8.7c11.9,10.2,26.9,15.8,42.7,15.8c10.7,0,21.2-2.6,30.6-7.6l63.1,63.1c3.3,3.3,7.6,5.1,12.2,5.1
						s8.9-1.8,12.2-5.1l81.9-81.9c5-5,6.5-12.2,3.7-18.8s-8.8-10.6-15.9-10.6H-184V53.5c0-2.8-2.2-5-5-5s-5,2.2-5,5v34.3
						c0,2.8,2.2,5,5,5h16.9c3,0,5.5,1.7,6.7,4.5s0.6,5.8-1.6,7.9l-81.9,81.9c-1.4,1.4-3.2,2.1-5.1,2.1c-1.9,0-3.8-0.8-5.1-2.1
						l-81.9-81.9c-2.1-2.1-2.7-5.1-1.6-7.9c1.2-2.8,3.7-4.5,6.7-4.5h16.9c2.8,0,5-2.2,5-5v-99.2c0-4,3.3-7.2,7.2-7.2h105.5
						c4,0,7.2,3.3,7.2,7.2v30.9c0,2.8,2.2,5,5,5s5-2.2,5-5v-30.9c0-9.5-7.7-17.2-17.2-17.2h-105.5c-9.5,0-17.2,7.7-17.2,17.2v94.2
						h-11.9c-7.1,0-13.2,4.1-15.9,10.6s-1.3,13.8,3.7,18.8l11.3,11.3c-7.2,3.3-15.1,5-23.2,5c-14.6,0-28.4-5.6-38.8-15.8
						c-1.8-1.7-4.6-1.9-6.6-0.3c-7.6,5.9-16.6,9.1-26.2,9.1c-23.4,0-42.5-19.1-42.5-42.5c0-19.9,13.5-36.9,32.9-41.4
						c1.8-0.4,3.2-1.8,3.7-3.6c2.9-11.1,8.7-21.2,16.8-29.3c10.1-10.1,23-16.5,37.2-18.4c2.3-0.3,4.2-2.2,4.3-4.6
						c2.4-31.4,16.5-60.6,39.6-82.1c23.3-21.7,53.6-33.6,85.4-33.6c31.5,0,61.5,11.7,84.7,32.9c23,21.1,37.3,49.8,40.2,80.8
						c0.2,1.9,1.4,3.5,3.1,4.2c14.7,6,27.4,16.7,35.7,30.1c1,1.6,2.7,2.4,4.5,2.4c22.8-1.2,43.3,13.3,49.8,35.3
						c7.7,26.1-7.3,53.5-33.3,61.2c-10.9,3.2-22.2,2.6-32.7-1.7c-1.7-0.7-3.6-0.4-5,0.7c-9.2,7.4-20.1,12.6-31.5,15
						c-2.7,0.6-4.4,3.2-3.9,5.9c0.6,2.7,3.2,4.4,5.9,3.9c12.1-2.5,23.6-7.8,33.5-15.2c11.7,4.2,24.6,4.5,36.6,1
						C-35.1,113.3-17.2,80.3-26.4,48.9L-26.4,48.9z"/>
					<g>
						<g>
							<path class="st8" d="M-229.6,46.7c-0.9,0-1.8-0.2-2.6-0.7c-6.6-4-14.1-6.1-21.8-6.1c-7.7,0-15.3,2.1-21.8,6.1
								c-2.4,1.4-5.4,0.7-6.9-1.7c-1.4-2.4-0.7-5.4,1.7-6.9c8.1-4.9,17.5-7.6,27-7.6c9.5,0,18.9,2.6,27,7.6c2.4,1.4,3.1,4.5,1.7,6.9
								C-226.2,45.9-227.9,46.7-229.6,46.7L-229.6,46.7z"/>
						</g>
						<g>
							<path class="st8" d="M-243.6,63c-0.9,0-1.8-0.2-2.6-0.7c-2.3-1.4-5-2.2-7.8-2.2s-5.5,0.8-7.8,2.2c-2.4,1.4-5.4,0.7-6.9-1.7
								c-1.4-2.4-0.7-5.4,1.7-6.9c3.9-2.4,8.4-3.6,13-3.6s9.1,1.3,13,3.6c2.4,1.4,3.1,4.5,1.7,6.9C-240.3,62.1-241.9,63-243.6,63z"
								/>
						</g>
						<g>
							<path class="st8" d="M-216.6,29.6c-0.9,0-1.8-0.2-2.6-0.7c-10.5-6.4-22.5-9.7-34.8-9.7c-12.3,0-24.3,3.4-34.8,9.7
								c-2.4,1.4-5.4,0.7-6.9-1.7c-1.4-2.4-0.7-5.4,1.7-6.9c12.1-7.3,25.9-11.2,40-11.2c14.1,0,28,3.9,40,11.2
								c2.4,1.4,3.1,4.5,1.7,6.9C-213.2,28.8-214.9,29.6-216.6,29.6z"/>
						</g>
					</g>
				</g>
			</g>
		</g>
	</g>
</g>
<g class="st9">
	<g>
		<path class="st7" d="M208.4,372.5c-5.3-25.1-20.1-47.1-41.3-61.3L143,295c-0.9,0.7-1.8,1.5-2.6,2.4c-6.4,7.3-6.4,18.1-0.1,25.4
			c-7.4-7.9-11.5-18.4-11.5-29.2v-1.8c-3.8,0.7-7.3,2.6-10,5.7l0,0c-6.4,7.3-6.4,18.1-0.1,25.4c-7.4-7.9-11.5-18.4-11.5-29.2V206
			c0-5-2.3-9.6-5.9-12.7c-3.6,3-5.9,7.6-5.9,12.7v110.3c0,12.9,4,25.5,11.5,36l12.7,17.9L150,413l10.7,15.1H220L208.4,372.5z"/>
		<path class="st7" d="M440.4,194c-3.2,3.1-5.2,7.4-5.2,12.1v87.5c0,10.8-4.1,21.3-11.5,29.2c6.3-7.2,6.4-18.1-0.1-25.4
			c-3.1-3.5-7.2-5.5-11.5-5.9v2.1c0,10.8-4.1,21.3-11.5,29.2c6.3-7.2,6.4-18.1-0.1-25.4c-0.6-0.7-1.2-1.3-1.9-1.8l-23.2,15.6
			c-21.2,14.3-36.1,36.3-41.3,61.3L322.5,428h57.8L391,413l30.4-42.8l12.7-17.9c7.5-10.5,11.5-23.1,11.5-36V206
			C445.5,201.2,443.5,197,440.4,194z"/>
	</g>
	<g>
		<path class="st7" d="M287.7,221.5c3.4-3.5,7.8-6.1,12.8-7.3l18.2-4.4l0,0l0,0v-11.1h22.2v11.1l0,0l18.1,4.3
			c11.8,2.8,20.2,13.4,20.2,25.6V253H339L287.7,221.5z"/>
		<path class="st7" d="M240.6,214.1l-12.9-3.1l-13,3.1c-11.8,2.8-20.2,13.4-20.2,25.6V253h7.6l51.3-31.6
			C250,217.9,245.6,215.3,240.6,214.1z"/>
	</g>
	<path class="st7" d="M271.7,227.1l19.7-4.7l-5.4-1.3l-30.9,0l-25.3,6.1c-16.5,4-28.1,18.7-28.1,35.7v25.6h42v-25.6
		C243.6,245.8,255.3,231.1,271.7,227.1z"/>
	<path class="st7" d="M311.2,227.1l-19.8-4.7l-19.7,4.7c-16.5,4-28.1,18.7-28.1,35.7v25.6h95.7v-25.6
		C339.4,245.8,327.7,231.1,311.2,227.1z"/>
	<polygon class="st7" points="270.2,205.6 255.1,205.6 255.1,221 270.5,256.2 278.1,239.1 270.2,221 	"/>
	<polygon class="st7" points="286,205.6 270.2,205.6 270.2,221 278.1,239.1 286,221.1 	"/>
	<path class="st7" d="M282.9,205.9c12.9-5,22.1-17.5,22.1-32.2v-21.4h-44.2v21.4C260.8,188.4,270,201,282.9,205.9z"/>
	<path class="st7" d="M282.9,118.7c-12.9,5-22.1,17.5-22.1,32.2v7.5c8.2-1.7,15.7-6.2,21.1-12.7l0,0l14.5,8.5
		c3.1-1.8,5.9-3.9,8.4-6.5C303.6,134.3,294.9,123.3,282.9,118.7z"/>
	<path class="st7" d="M236.1,159.4c0-9.9-5.8-18.4-14.2-22.4c-8.4,3.9-14.2,12.5-14.2,22.4v5.8c9.3-0.6,18.3-3.4,26.4-8.3l0,0
		l1.8,7.3c0.1,0,0.2,0,0.3-0.1L236.1,159.4L236.1,159.4z"/>
	<path class="st7" d="M221.8,198.2c8.4-3.9,14.2-12.5,14.2-22.4v-15.4h-28.5v15.4C207.6,185.7,213.4,194.3,221.8,198.2z"/>
	<path class="st7" d="M339.9,136.8c-8.6,3.9-14.6,12.5-14.6,22.6v4.7c0.1,0,0.2,0,0.3,0.1l1.8-7.2c8.2,4.9,17.5,7.8,27.1,8.3v-5.9
		C354.5,149.3,348.5,140.7,339.9,136.8z"/>
	<path class="st7" d="M339.4,198.6c8.8-3.8,15-12.5,15-22.8v-15.4h-30.1v15.4C324.4,186.1,330.6,194.8,339.4,198.6z"/>
	<path class="st7" d="M113.8,374.3c1.4,2,3.6,3,5.8,3c1.4,0,2.9-0.4,4.1-1.3c3.2-2.3,4-6.7,1.7-9.9l-12.7-17.9
		c-6.6-9.4-10.2-20.4-10.2-31.9V206c0-2.9,1.3-5.6,3.6-7.5c2.3-1.8,5.2-2.5,8.1-1.9c4.4,1,7.5,4.8,7.5,9.4v87.5
		c0,12.4,4.6,24.2,12.8,33.4c0.4,0.4,0.7,0.8,1.1,1.3c4.7,5,10.3,10.9,15.5,16.5l7.3,7.8c0,0,0,0,0.1,0.1c6.3,6.7,10.9,11.6,11,11.7
		c2.7,2.9,7.2,3,10.1,0.3c2.9-2.7,3-7.2,0.3-10.1c-0.1-0.1-8.5-9-18-19.1L145.7,318c0,0-0.1-0.1-0.1-0.1c-3.8-4.6-3.8-11.2,0.2-15.7
		c3.5-4,9.6-4.8,14-1.8l24.9,16.7c19.8,13.3,33.4,33.5,38.3,56.9l11.7,55.6c0.7,3.4,3.7,5.7,7,5.7c0.5,0,1,0,1.5-0.2
		c3.8-0.8,6.3-4.6,5.5-8.4L236.9,371c-5.7-27-21.4-50.4-44.3-65.8l-24.9-16.7c-10-6.7-23.4-5.3-31.7,3.2V206
		c0-11.3-7.7-20.8-18.7-23.3c-7.1-1.6-14.4,0.1-20.1,4.7c-5.7,4.5-8.9,11.3-8.9,18.6v110.3c0,14.5,4.4,28.3,12.8,40.1L113.8,374.3z"
		/>
	<path class="st7" d="M145.9,407.2c-3.2,2.3-4,6.7-1.7,9.9l10.7,15.1c1.4,2,3.6,3,5.8,3c1.4,0,2.9-0.4,4.1-1.3
		c3.2-2.3,4-6.7,1.7-9.9l-10.7-15.1C153.5,405.6,149.1,404.9,145.9,407.2z"/>
	<path class="st7" d="M131.1,386.4c-3.2,2.3-3.9,6.7-1.7,9.9l0,0.1c1.4,1.9,3.6,3,5.8,3c1.4,0,2.9-0.4,4.1-1.3
		c3.2-2.3,3.9-6.7,1.7-9.9l0-0.1C138.7,384.8,134.3,384.1,131.1,386.4z"/>
	<path class="st7" d="M452.7,316.3V206c0-7.3-3.2-14-8.9-18.6c-5.7-4.5-13-6.2-20.1-4.7c-11,2.4-18.7,12-18.7,23.3v85.7
		c-8.3-8.5-21.8-9.9-31.7-3.2l-24.9,16.7c-22.9,15.4-38.6,38.8-44.3,65.8l-11.7,55.6c-0.8,3.8,1.7,7.6,5.5,8.4
		c0.5,0.1,1,0.2,1.5,0.2c3.3,0,6.3-2.3,7-5.7l11.7-55.6c4.9-23.4,18.5-43.6,38.3-56.9l24.9-16.7c4.4-3,10.5-2.2,14,1.8
		c4,4.5,4.1,11.1,0.2,15.7c0,0-0.1,0.1-0.1,0.2l-16.6,17.7c-9.4,10-17.6,18.7-17.7,18.8c-2.7,2.9-2.5,7.4,0.3,10.1
		c2.9,2.7,7.4,2.5,10.1-0.3c0.1-0.1,4.7-5,11-11.7c0,0,0,0,0.1-0.1l7.3-7.8c5.2-5.6,10.8-11.5,15.5-16.5c0.4-0.4,0.7-0.8,1.1-1.3
		c8.3-9.2,12.8-21,12.8-33.4V206c0-4.5,3.1-8.4,7.5-9.4c2.9-0.6,5.8,0.1,8.1,1.9c2.3,1.8,3.6,4.6,3.6,7.5v110.3
		c0,11.5-3.5,22.5-10.2,31.9l-53.8,75.7c-2.3,3.2-1.5,7.6,1.7,9.9c1.3,0.9,2.7,1.3,4.1,1.3c2.2,0,4.4-1,5.8-3l53.8-75.7
		C448.2,344.7,452.7,330.8,452.7,316.3z"/>
	<path class="st7" d="M276.4,284.4c-0.3-0.4-0.6-0.8-0.9-1.1c-0.3-0.3-0.7-0.6-1.1-0.9c-0.4-0.3-0.8-0.5-1.2-0.7
		c-0.4-0.2-0.9-0.3-1.3-0.4c-0.9-0.2-1.9-0.2-2.8,0c-0.5,0.1-0.9,0.2-1.3,0.4c-0.4,0.2-0.8,0.4-1.2,0.7c-0.4,0.3-0.8,0.6-1.1,0.9
		c-0.3,0.3-0.6,0.7-0.9,1.1c-0.3,0.4-0.5,0.8-0.7,1.2c-0.2,0.4-0.3,0.9-0.4,1.3c-0.1,0.5-0.1,0.9-0.1,1.4s0,0.9,0.1,1.4
		c0.1,0.5,0.2,0.9,0.4,1.3c0.2,0.4,0.4,0.8,0.7,1.2c0.3,0.4,0.6,0.8,0.9,1.1c0.3,0.3,0.7,0.6,1.1,0.9c0.4,0.3,0.8,0.5,1.2,0.7
		c0.4,0.2,0.9,0.3,1.3,0.4c0.5,0.1,0.9,0.1,1.4,0.1c0.5,0,0.9,0,1.4-0.1s0.9-0.2,1.3-0.4c0.4-0.2,0.8-0.4,1.2-0.7
		c0.4-0.3,0.8-0.6,1.1-0.9c0.3-0.3,0.6-0.7,0.9-1.1c0.3-0.4,0.5-0.8,0.7-1.2c0.2-0.4,0.3-0.9,0.4-1.3c0.1-0.5,0.1-0.9,0.1-1.4
		c0-0.5,0-0.9-0.1-1.4c-0.1-0.5-0.2-0.9-0.4-1.3C276.9,285.2,276.7,284.8,276.4,284.4z"/>
	<path class="st7" d="M311.1,259.4c-3.9,0-7.1,3.2-7.1,7.1v14.7h-8.1c-3.9,0-7.1,3.2-7.1,7.1s3.2,7.1,7.1,7.1h43.5
		c3.9,0,7.1-3.2,7.1-7.1v-25.6c0-0.9,0-1.8-0.1-2.6h32.8c3.9,0,7.1-3.2,7.1-7.1v-13.3c0-15.5-10.6-28.9-25.7-32.5l-12.7-3v-2.3
		c8.2-5.8,13.6-15.3,13.6-26.1v-10.5v-4.9v-1.1c0-17.6-14.3-31.8-31.8-31.8c-7.9,0-15.1,2.9-20.7,7.6c-6.2-15.2-21.1-25.9-38.5-25.9
		c-17.4,0-32.3,10.8-38.5,26c-5.6-4.8-12.8-7.7-20.7-7.7c-17.6,0-31.8,14.3-31.8,31.8v1.1v4.9v10.5c0,10.8,5.4,20.3,13.6,26.1v2.3
		l-12.7,3c-15.1,3.6-25.7,17-25.7,32.5V253c0,3.9,3.2,7.1,7.1,7.1h32.7c-0.1,0.9-0.1,1.7-0.1,2.6v25.6c0,3.9,3.2,7.1,7.1,7.1h42.8
		c3.9,0,7.1-3.2,7.1-7.1s-3.2-7.1-7.1-7.1h-7.4v-14.7c0-3.9-3.2-7.1-7.1-7.1c-3.9,0-7.1,3.2-7.1,7.1v14.7h-14.1v-18.5
		c0-13.7,9.3-25.5,22.7-28.7l19.5-4.7l13.1,29.7c1.1,2.6,3.7,4.3,6.5,4.3h0c2.8,0,5.4-1.7,6.5-4.3l13.1-29.7l19.5,4.6
		c13.4,3.2,22.7,15,22.7,28.7v18.4h-14.1v-14.7C318.2,262.6,315,259.4,311.1,259.4z M248,209.1c-1.8-0.8-3.7-1.5-5.7-1.9l-12.7-3
		V202c2.3-1.6,4.4-3.5,6.2-5.6c3.2,4.9,7.4,9.1,12.2,12.3V209.1z M193.7,175.8v-3.4h9.9c8.7,0,17.3-1.7,25.3-5v8.4
		c0,9.7-7.9,17.6-17.6,17.6C201.6,193.5,193.7,185.6,193.7,175.8z M243.3,173.8v-7.5h9.7c11.3,0,22-4.2,30.2-11.7l14.7,8.6v2.1v9.5
		c-0.6,14.6-12.6,26.3-27.3,26.3C255.5,201.1,243.3,188.8,243.3,173.8z M293.1,209.2v-0.5c4.9-3.2,9.1-7.4,12.3-12.3
		c1.8,2.1,3.8,4,6.1,5.6v2.2l-12.7,3C296.9,207.7,294.9,208.3,293.1,209.2z M312.1,175.8v-1c0-0.3,0-0.7,0-1v-6.3
		c8,3.3,16.6,5,25.3,5h9.9v3.4c0,9.7-7.9,17.6-17.6,17.6C320,193.5,312.1,185.6,312.1,175.8z M329.7,141.8c9.3,0,17,7.3,17.6,16.5
		h-9.9c-8.3,0-16.5-2-23.9-5.8C316.3,146.2,322.5,141.8,329.7,141.8z M243.3,150.8c0-15.1,12.3-27.3,27.3-27.3c13.6,0,24.9,10,27,23
		l-12-7c-3-1.8-6.8-1.1-9.1,1.6c-5.9,7-14.4,11-23.6,11h-9.7L243.3,150.8L243.3,150.8z M211.4,141.8c7.2,0,13.5,4.4,16.2,10.6
		c-7.4,3.8-15.5,5.8-23.9,5.8h-9.9C194.4,149.1,202,141.8,211.4,141.8z M228.1,220.2c-14,3.4-25,13.1-30.2,25.7H169v-6.2
		c0-8.9,6.1-16.6,14.7-18.7l18.1-4.3c3.2-0.8,5.5-3.6,5.5-6.9v-2.4c1.3,0.2,2.6,0.3,4,0.3c1.3,0,2.7-0.1,4-0.3v2c0,0.1,0,0.2,0,0.3
		c0,2.3,1.1,4.6,3.3,6c0.8,0.5,1.7,0.8,2.5,1l10.6,2.5L228.1,220.2z M270.5,238.5l-8.3-19v-5.1c2.7,0.6,5.5,0.9,8.4,0.9
		c2.8,0,5.6-0.3,8.3-0.8v5.1L270.5,238.5z M312.9,220.2l-3.6-0.9l10.7-2.6c0.9-0.2,1.8-0.5,2.6-1c2.1-1.4,3.2-3.6,3.2-6
		c0-0.1,0-0.1,0-0.2v-2.2c1.3,0.2,2.6,0.3,4,0.3c1.4,0,2.7-0.1,4-0.3v2.4c0,3.3,2.3,6.2,5.5,6.9l18.1,4.3
		c8.7,2.1,14.7,9.8,14.7,18.7v6.2h-28.9C337.9,233.3,326.9,223.5,312.9,220.2z"/>
	<path class="st7" d="M234.2,104.1c1.4,1.4,3.2,2.1,5,2.1c1.8,0,3.6-0.7,5-2.1c2.8-2.8,2.8-7.3,0-10.1l-7.5-7.5
		c-2.8-2.8-7.3-2.8-10.1,0c-2.8,2.8-2.8,7.3,0,10.1L234.2,104.1z"/>
	<path class="st7" d="M296.6,94.2c-2.8,2.8-2.8,7.3,0,10.1c1.4,1.4,3.2,2.1,5,2.1c1.8,0,3.6-0.7,5-2.1l7.4-7.4
		c2.8-2.8,2.8-7.3,0-10.1c-2.8-2.8-7.3-2.8-10.1,0L296.6,94.2z"/>
</g>
<g>
	<g>
		<path class="st6" d="M198.7,359c-5.3-25.1-20.1-47.1-41.3-61.3l-24-16.1c-0.9,0.7-1.8,1.5-2.6,2.4c-6.4,7.3-6.4,18.1-0.1,25.4
			c-7.4-7.9-11.5-18.4-11.5-29.2v-1.8c-3.8,0.7-7.3,2.6-10,5.7l0,0c-6.4,7.3-6.4,18.1-0.1,25.4c-7.4-7.9-11.5-18.4-11.5-29.2v-87.5
			c0-5-2.3-9.6-5.9-12.7c-3.6,3-5.9,7.6-5.9,12.7v110.3c0,12.9,4,25.5,11.5,36l12.7,17.9l30.4,42.8l10.7,15.1h59.3L198.7,359z"/>
		<path class="st6" d="M430.7,180.4c-3.2,3.1-5.2,7.4-5.2,12.1V280c0,10.8-4.1,21.3-11.5,29.2c6.3-7.2,6.4-18.1-0.1-25.4
			c-3.1-3.5-7.2-5.5-11.5-5.9v2.1c0,10.8-4.1,21.3-11.5,29.2c6.3-7.2,6.4-18.1-0.1-25.4c-0.6-0.7-1.2-1.3-1.9-1.8l-23.2,15.6
			c-21.2,14.3-36.1,36.3-41.3,61.3l-11.7,55.6h57.8l10.7-15.1l30.4-42.8l12.7-17.9c7.5-10.5,11.5-23.1,11.5-36V192.5
			C435.9,187.7,433.9,183.4,430.7,180.4z"/>
	</g>
	<g>
		<path class="st6" d="M278,207.9c3.4-3.5,7.8-6.1,12.8-7.3l18.2-4.4l0,0l0,0v-11.1h22.2v11.1l0,0l18.1,4.3
			c11.8,2.8,20.2,13.4,20.2,25.6v13.3h-40.2L278,207.9z"/>
		<path class="st6" d="M230.9,200.6l-12.9-3.1l-13,3.1c-11.8,2.8-20.2,13.4-20.2,25.6v13.3h7.6l51.3-31.6
			C240.4,204.4,236,201.8,230.9,200.6z"/>
	</g>
	<path class="st5" d="M262.1,213.6l19.7-4.7l-5.4-1.3l-30.9,0l-25.3,6.1c-16.5,4-28.1,18.7-28.1,35.7v25.6h42v-25.6
		C234,232.3,245.6,217.5,262.1,213.6z"/>
	<path class="st6" d="M301.6,213.6l-19.8-4.7l-19.7,4.7c-16.5,4-28.1,18.7-28.1,35.7v25.6h95.7v-25.6
		C329.7,232.3,318.1,217.5,301.6,213.6z"/>
	<polygon class="st10" points="260.5,192.1 245.4,192.1 245.4,207.5 260.9,242.7 268.4,225.5 260.5,207.5 	"/>
	<polygon class="st6" points="276.3,192.1 260.5,192.1 260.5,207.5 268.4,225.5 276.3,207.6 	"/>
	<path class="st6" d="M273.3,192.4c12.9-5,22.1-17.5,22.1-32.2v-21.4h-44.2v21.4C251.2,174.9,260.4,187.4,273.3,192.4z"/>
	<path class="st5" d="M273.3,105.2c-12.9,5-22.1,17.5-22.1,32.2v7.5c8.2-1.7,15.7-6.2,21.1-12.7l0,0l14.5,8.5
		c3.1-1.8,5.9-3.9,8.4-6.5C294,120.8,285.2,109.8,273.3,105.2z"/>
	<path class="st11" d="M226.4,145.8c0-9.9-5.8-18.4-14.2-22.4c-8.4,3.9-14.2,12.5-14.2,22.4v5.8c9.3-0.6,18.3-3.4,26.4-8.3l0,0
		l1.8,7.3c0.1,0,0.2,0,0.3-0.1L226.4,145.8L226.4,145.8z"/>
	<path class="st12" d="M212.2,184.7c8.4-3.9,14.2-12.5,14.2-22.4v-15.4H198v15.4C198,172.2,203.8,180.7,212.2,184.7z"/>
	<path class="st11" d="M330.2,123.3c-8.6,3.9-14.6,12.5-14.6,22.6v4.7c0.1,0,0.2,0,0.3,0.1l1.8-7.2c8.2,4.9,17.5,7.8,27.1,8.3v-5.9
		C344.8,135.8,338.8,127.2,330.2,123.3z"/>
	<path class="st12" d="M329.8,185.1c8.8-3.8,15-12.5,15-22.8v-15.4h-30.1v15.4C314.7,172.5,320.9,181.3,329.8,185.1z"/>
	<path class="st7" d="M104.2,360.8c1.4,2,3.6,3,5.8,3c1.4,0,2.9-0.4,4.1-1.3c3.2-2.3,4-6.7,1.7-9.9l-12.7-17.9
		c-6.6-9.4-10.2-20.4-10.2-31.9V192.5c0-2.9,1.3-5.6,3.6-7.5c2.3-1.8,5.2-2.5,8.1-1.9c4.4,1,7.5,4.8,7.5,9.4V280
		c0,12.4,4.6,24.2,12.8,33.4c0.4,0.4,0.7,0.8,1.1,1.3c4.7,5,10.3,10.9,15.5,16.5l7.3,7.8c0,0,0,0,0.1,0.1c6.3,6.7,10.9,11.6,11,11.7
		c2.7,2.9,7.2,3,10.1,0.3c2.9-2.7,3-7.2,0.3-10.1c-0.1-0.1-8.5-9-18-19.1L136,304.4c0,0-0.1-0.1-0.1-0.1c-3.8-4.6-3.8-11.2,0.2-15.7
		c3.5-4,9.6-4.8,14-1.8l24.9,16.7c19.8,13.3,33.4,33.5,38.3,56.9L225,416c0.7,3.4,3.7,5.7,7,5.7c0.5,0,1,0,1.5-0.2
		c3.8-0.8,6.3-4.6,5.5-8.4l-11.7-55.6c-5.7-27-21.4-50.4-44.3-65.8L158.1,275c-10-6.7-23.4-5.3-31.7,3.2v-85.7
		c0-11.3-7.7-20.8-18.7-23.3c-7.1-1.6-14.4,0.1-20.1,4.7c-5.7,4.5-8.9,11.3-8.9,18.6v110.3c0,14.5,4.4,28.3,12.8,40.1L104.2,360.8z"
		/>
	<path class="st7" d="M136.2,393.6c-3.2,2.3-4,6.7-1.7,9.9l10.7,15.1c1.4,2,3.6,3,5.8,3c1.4,0,2.9-0.4,4.1-1.3
		c3.2-2.3,4-6.7,1.7-9.9l-10.7-15.1C143.9,392.1,139.4,391.4,136.2,393.6z"/>
	<path class="st7" d="M121.4,372.8c-3.2,2.3-3.9,6.7-1.7,9.9l0,0.1c1.4,1.9,3.6,3,5.8,3c1.4,0,2.9-0.4,4.1-1.3
		c3.2-2.3,3.9-6.7,1.7-9.9l0-0.1C129.1,371.3,124.6,370.6,121.4,372.8z"/>
	<path class="st7" d="M443,302.8V192.5c0-7.3-3.2-14-8.9-18.6c-5.7-4.5-13-6.2-20.1-4.7c-11,2.4-18.7,12-18.7,23.3v85.7
		c-8.3-8.5-21.8-9.9-31.7-3.2l-24.9,16.7c-22.9,15.4-38.6,38.8-44.3,65.8l-11.7,55.6c-0.8,3.8,1.7,7.6,5.5,8.4
		c0.5,0.1,1,0.2,1.5,0.2c3.3,0,6.3-2.3,7-5.7l11.7-55.6c4.9-23.4,18.5-43.6,38.3-56.9l24.9-16.7c4.4-3,10.5-2.2,14,1.8
		c4,4.5,4.1,11.1,0.2,15.7c0,0-0.1,0.1-0.1,0.2l-16.6,17.7c-9.4,10-17.6,18.7-17.7,18.8c-2.7,2.9-2.5,7.4,0.3,10.1
		c2.9,2.7,7.4,2.5,10.1-0.3c0.1-0.1,4.7-5,11-11.7c0,0,0,0,0.1-0.1l7.3-7.8c5.2-5.6,10.8-11.5,15.5-16.5c0.4-0.4,0.7-0.8,1.1-1.3
		c8.3-9.2,12.8-21,12.8-33.4v-87.5c0-4.5,3.1-8.4,7.5-9.4c2.9-0.6,5.8,0.1,8.1,1.9c2.3,1.8,3.6,4.6,3.6,7.5v110.3
		c0,11.5-3.5,22.5-10.2,31.9l-53.8,75.7c-2.3,3.2-1.5,7.6,1.7,9.9c1.3,0.9,2.7,1.3,4.1,1.3c2.2,0,4.4-1,5.8-3l53.8-75.7
		C438.6,331.1,443,317.3,443,302.8z"/>
	<path d="M266.8,270.9c-0.3-0.4-0.6-0.8-0.9-1.1c-0.3-0.3-0.7-0.6-1.1-0.9c-0.4-0.3-0.8-0.5-1.2-0.7c-0.4-0.2-0.9-0.3-1.3-0.4
		c-0.9-0.2-1.9-0.2-2.8,0c-0.5,0.1-0.9,0.2-1.3,0.4c-0.4,0.2-0.8,0.4-1.2,0.7c-0.4,0.3-0.8,0.6-1.1,0.9c-0.3,0.3-0.6,0.7-0.9,1.1
		c-0.3,0.4-0.5,0.8-0.7,1.2c-0.2,0.4-0.3,0.9-0.4,1.3c-0.1,0.5-0.1,0.9-0.1,1.4s0,0.9,0.1,1.4c0.1,0.5,0.2,0.9,0.4,1.3
		c0.2,0.4,0.4,0.8,0.7,1.2c0.3,0.4,0.6,0.8,0.9,1.1c0.3,0.3,0.7,0.6,1.1,0.9c0.4,0.3,0.8,0.5,1.2,0.7c0.4,0.2,0.9,0.3,1.3,0.4
		c0.5,0.1,0.9,0.1,1.4,0.1c0.5,0,0.9,0,1.4-0.1s0.9-0.2,1.3-0.4c0.4-0.2,0.8-0.4,1.2-0.7c0.4-0.3,0.8-0.6,1.1-0.9s0.6-0.7,0.9-1.1
		c0.3-0.4,0.5-0.8,0.7-1.2c0.2-0.4,0.3-0.9,0.4-1.3c0.1-0.5,0.1-0.9,0.1-1.4c0-0.5,0-0.9-0.1-1.4c-0.1-0.5-0.2-0.9-0.4-1.3
		C267.2,271.7,267,271.3,266.8,270.9z"/>
	<path class="st7" d="M301.4,245.9c-3.9,0-7.1,3.2-7.1,7.1v14.7h-8.1c-3.9,0-7.1,3.2-7.1,7.1c0,3.9,3.2,7.1,7.1,7.1h43.5
		c3.9,0,7.1-3.2,7.1-7.1v-25.6c0-0.9,0-1.8-0.1-2.6h32.8c3.9,0,7.1-3.2,7.1-7.1v-13.3c0-15.5-10.6-28.9-25.7-32.5l-12.7-3v-2.3
		c8.2-5.8,13.6-15.3,13.6-26.1v-10.5V147v-1.1c0-17.6-14.3-31.8-31.8-31.8c-7.9,0-15.1,2.9-20.7,7.6c-6.2-15.2-21.1-25.9-38.5-25.9
		c-17.4,0-32.3,10.8-38.5,26c-5.6-4.8-12.8-7.7-20.7-7.7c-17.6,0-31.8,14.3-31.8,31.8v1.1v4.9v10.5c0,10.8,5.4,20.3,13.6,26.1v2.3
		l-12.7,3c-15.1,3.6-25.7,17-25.7,32.5v13.3c0,3.9,3.2,7.1,7.1,7.1H185c-0.1,0.9-0.1,1.7-0.1,2.6v25.6c0,3.9,3.2,7.1,7.1,7.1h42.8
		c3.9,0,7.1-3.2,7.1-7.1c0-3.9-3.2-7.1-7.1-7.1h-7.4V253c0-3.9-3.2-7.1-7.1-7.1c-3.9,0-7.1,3.2-7.1,7.1v14.7h-14.1v-18.5
		c0-13.7,9.3-25.5,22.7-28.7l19.5-4.7l13.1,29.7c1.1,2.6,3.7,4.3,6.5,4.3h0c2.8,0,5.4-1.7,6.5-4.3l13.1-29.7l19.5,4.6
		c13.4,3.2,22.7,15,22.7,28.7v18.4h-14.1V253C308.5,249.1,305.3,245.9,301.4,245.9z M238.3,195.6c-1.8-0.8-3.7-1.5-5.7-1.9l-12.7-3
		v-2.2c2.3-1.6,4.4-3.5,6.2-5.6c3.2,4.9,7.4,9.1,12.2,12.3V195.6z M184.1,162.3v-3.4h9.9c8.7,0,17.3-1.7,25.3-5v8.4
		c0,9.7-7.9,17.6-17.6,17.6C192,179.9,184.1,172,184.1,162.3z M233.6,160.2v-7.5h9.7c11.3,0,22-4.2,30.2-11.7l14.7,8.6v2.1v9.5
		c-0.6,14.6-12.6,26.3-27.3,26.3C245.9,187.6,233.6,175.3,233.6,160.2z M283.4,195.6v-0.5c4.9-3.2,9.1-7.4,12.3-12.3
		c1.8,2.1,3.8,4,6.1,5.6v2.2l-12.7,3C287.2,194.2,285.3,194.8,283.4,195.6z M302.5,162.3v-1c0-0.3,0-0.7,0-1v-6.3
		c8,3.3,16.6,5,25.3,5h9.9v3.4c0,9.7-7.9,17.6-17.6,17.6C310.4,179.9,302.5,172,302.5,162.3z M320.1,128.2c9.3,0,17,7.3,17.6,16.5
		h-9.9c-8.3,0-16.5-2-23.9-5.8C306.6,132.6,312.9,128.2,320.1,128.2z M233.6,137.3c0-15.1,12.3-27.3,27.3-27.3c13.6,0,24.9,10,27,23
		l-12-7c-3-1.8-6.8-1.1-9.1,1.6c-5.9,7-14.4,11-23.6,11h-9.7L233.6,137.3L233.6,137.3z M201.7,128.2c7.2,0,13.5,4.4,16.2,10.6
		c-7.4,3.8-15.5,5.8-23.9,5.8h-9.9C184.7,135.5,192.4,128.2,201.7,128.2z M218.5,206.7c-14,3.4-25,13.1-30.2,25.7h-28.8v-6.2
		c0-8.9,6.1-16.6,14.7-18.7l18.1-4.3c3.2-0.8,5.5-3.6,5.5-6.9v-2.4c1.3,0.2,2.6,0.3,4,0.3c1.3,0,2.7-0.1,4-0.3v2c0,0.1,0,0.2,0,0.3
		c0,2.3,1.1,4.6,3.3,6c0.8,0.5,1.7,0.8,2.5,1l10.6,2.5L218.5,206.7z M260.9,225l-8.3-19v-5.1c2.7,0.6,5.5,0.9,8.4,0.9
		c2.8,0,5.6-0.3,8.3-0.8v5.1L260.9,225z M303.2,206.7l-3.6-0.9l10.7-2.6c0.9-0.2,1.8-0.5,2.6-1c2.1-1.4,3.2-3.6,3.2-6
		c0-0.1,0-0.1,0-0.2v-2.2c1.3,0.2,2.6,0.3,4,0.3c1.4,0,2.7-0.1,4-0.3v2.4c0,3.3,2.3,6.2,5.5,6.9l18.1,4.3
		c8.7,2.1,14.7,9.8,14.7,18.7v6.2h-28.9C328.2,219.8,317.2,210,303.2,206.7z"/>
	<path class="st7" d="M224.6,90.6c1.4,1.4,3.2,2.1,5,2.1c1.8,0,3.6-0.7,5-2.1c2.8-2.8,2.8-7.3,0-10.1l-7.5-7.5
		c-2.8-2.8-7.3-2.8-10.1,0s-2.8,7.3,0,10.1L224.6,90.6z"/>
	<path class="st7" d="M286.9,80.7c-2.8,2.8-2.8,7.3,0,10.1c1.4,1.4,3.2,2.1,5,2.1c1.8,0,3.6-0.7,5-2.1l7.4-7.4
		c2.8-2.8,2.8-7.3,0-10.1c-2.8-2.8-7.3-2.8-10.1,0L286.9,80.7z"/>
</g>
</svg>
