<?xml version="1.0" encoding="utf-8"?>
<!-- Generator: Adobe Illustrator 24.0.0, SVG Export Plug-In . SVG Version: 6.00 Build 0)  -->
<svg version="1.1" id="Capa_1" xmlns="http://www.w3.org/2000/svg" xmlns:xlink="http://www.w3.org/1999/xlink" x="0px" y="0px"
	 viewBox="0 0 512 512" style="enable-background:new 0 0 512 512;" xml:space="preserve">
<style type="text/css">
	.st0{fill:url(#SVGID_1_);}
	.st1{opacity:0.1;fill:#2626BC;enable-background:new    ;}
	.st2{fill:#FF7EB8;}
	.st3{fill:#FFFFFF;}
	.st4{fill:#9FB0FE;}
	.st5{fill:#6583FE;}
	.st6{fill:#01ECA5;}
	.st7{opacity:0.1;enable-background:new    ;}
	.st8{fill:#2626BC;}
	.st9{fill:#A4AFC1;}
	.st10{fill:#2FDF84;}
</style>
<g>
	<g>
		<g>
			
				<linearGradient id="SVGID_1_" gradientUnits="userSpaceOnUse" x1="45.2744" y1="257.9998" x2="466.7273" y2="257.9998" gradientTransform="matrix(1 0 0 -1 0 514)">
				<stop  offset="4.850001e-02" style="stop-color:#D2DEFF"/>
				<stop  offset="0.9993" style="stop-color:#DCFDEE"/>
			</linearGradient>
			<path class="st0" d="M97.1,38.2c-135.3,119.5,38.8,235.4,22.2,366c-7.4,58.1,16.1,113.6,92.7,107.2
				c93.4-7.7,59.5-97.2,79.1-156.8c33.7-102.5,240.7-78.6,154.9-236.4C391.3,17.5,190.3-44,97.1,38.2L97.1,38.2z"/>
		</g>
		<g>
			<path class="st1" d="M-88.3,33c0-27.3-22.1-49.4-49.4-49.4S-187,5.7-187,33c0,2.3,0.2,4.5,0.5,6.7c-31-22.4-68-34.6-106.5-34.6
				c-0.1,0-0.2,0-0.3,0c-49.1,0.1-95.3,19.3-130.1,54.1c-34.7,34.8-53.9,81-53.9,130.2c0,33,8.7,64,24,90.8
				c-11.5,9-18.8,23-18.8,38.8c0,27.3,22.1,49.4,49.4,49.4c15.7,0,29.7-7.3,38.7-18.8c26.9,15.3,58,24.1,91,24.1c9.9,0,18-8.1,18-18
				s-8.1-18-18-18c-29.7,0-57.5-8.8-80.7-23.9c-2.4-23-20.7-41.4-43.8-43.8c-15.1-23.2-23.8-50.8-23.8-80.5
				c0-81.6,66.4-148.1,148-148.3c0.1,0,0.2,0,0.3,0c38.9,0,75.9,15.4,103.9,43.5c28.6,28.6,44.4,66.3,44.4,106.2v26.8
				c0,17-13.9,30.9-30.9,30.9c-17,0-30.9-13.9-30.9-30.9v-94.5c0-4.8-1.9-9.3-5.3-12.7c-21.3-21.3-49.6-33-79.8-32.7
				c-30.1,0.2-58.3,12.2-79.4,33.9c-20.3,20.9-31.5,48.6-31.5,77.9s11.2,57,31.5,77.9c21,21.6,49.2,33.6,79.4,33.9
				c0.3,0,0.5,0,0.8,0c28.3,0,55-10.5,75.7-29.6c11.1,8.1,24.7,12.9,39.4,12.9c36.9,0,66.9-30,66.9-66.9v-26.8
				c0-39.6-12.4-77.4-35.5-109c2.2,0.3,4.4,0.5,6.6,0.5C-110.4,82.3-88.3,60.2-88.3,33L-88.3,33z M-291.4,265.2
				c-20.4-0.1-39.5-8.3-53.8-23c-28.3-29.1-28.3-76.5,0-105.6c14.3-14.7,33.4-22.8,53.8-23c0.2,0,0.4,0,0.5,0
				c17.8,0,34.7,6.1,48.3,17.4v86.6c0,9,1.8,17.7,5.1,25.6C-251.9,257.5-271,265.3-291.4,265.2z"/>
			<g>
				<path class="st2" d="M-263.6,362.9c-101.6,0-184.3-82.7-184.3-184.3c0-49.2,19.1-95.4,53.9-130.2c34.7-34.8,80.9-54,130.1-54.1
					c0.1,0,0.2,0,0.3,0c48.5,0,94.5,19.2,129.4,54c35.4,35.3,54.9,82.1,54.9,131.7v26.8c0,36.9-30,66.9-66.9,66.9
					c-14.7,0-28.4-4.8-39.4-12.9c-20.7,19.1-47.4,29.6-75.7,29.6c-0.3,0-0.5,0-0.8,0c-30.1-0.2-58.3-12.2-79.4-33.9
					c-20.3-20.9-31.5-48.6-31.5-77.9s11.2-57,31.5-77.9c21-21.6,49.2-33.6,79.4-33.9c30.2-0.2,58.5,11.4,79.8,32.7
					c3.4,3.4,5.3,8,5.3,12.7v94.5c0,17,13.9,30.9,30.9,30.9c17,0,30.9-13.9,30.9-30.9v-26.8c0-40-15.8-77.7-44.4-106.2
					c-28.1-28-65-43.5-103.9-43.5c-0.1,0-0.2,0-0.3,0c-81.6,0.1-148,66.7-148,148.3c0,81.8,66.5,148.3,148.3,148.3
					c9.9,0,18,8.1,18,18C-245.6,354.9-253.7,362.9-263.6,362.9L-263.6,362.9z M-261.4,102.9c-0.2,0-0.4,0-0.5,0
					c-20.4,0.1-39.5,8.3-53.8,23c-28.3,29.1-28.3,76.5,0,105.6c14.3,14.7,33.4,22.8,53.8,23c20.3,0.1,39.5-7.7,53.9-22
					c-3.3-7.9-5.1-16.5-5.1-25.6v-86.6C-226.6,109-243.5,102.9-261.4,102.9L-261.4,102.9z"/>
			</g>
			<g>
				<g>
					<g>
						<path class="st3" d="M417.4,85.2c3.7,0,6.8,3.1,6.8,6.8s-3,6.8-6.8,6.8s-6.8-3.1-6.8-6.8S413.6,85.2,417.4,85.2z"/>
					</g>
				</g>
				<g>
					<g>
						<circle class="st4" cx="132.2" cy="383.2" r="49.4"/>
						<path class="st3" d="M149.3,377.2c0-9.4-7.7-17.1-17.1-17.1s-17.1,7.7-17.1,17.1c0,4.6,1.9,8.9,4.9,11.9
							c-3,3.1-4.9,7.3-4.9,11.9c0,2.8,2.3,5.1,5.1,5.1s5.1-2.3,5.1-5.1c0-3.7,3.1-6.8,6.8-6.8c3.7,0,6.8,3,6.8,6.8
							c0,2.8,2.3,5.1,5.1,5.1s5.1-2.3,5.1-5.1c0-4.6-1.9-8.9-4.9-11.9C147.4,386.1,149.3,381.9,149.3,377.2L149.3,377.2z
							 M132.2,370.4c3.7,0,6.8,3.1,6.8,6.8s-3.1,6.8-6.8,6.8c-3.7,0-6.8-3.1-6.8-6.8S128.4,370.4,132.2,370.4z"/>
					</g>
				</g>
			</g>
			<path class="st2" d="M338.4,411.6c-2.8,0-5-2.2-5-5c0-3.5-2.8-6.3-6.3-6.3c-2.8,0-5-2.2-5-5s2.2-5,5-5c3.5,0,6.3-2.8,6.3-6.3
				c0-2.8,2.2-5,5-5s5,2.2,5,5c0,3.5,2.8,6.3,6.3,6.3c2.8,0,5,2.2,5,5s-2.2,5-5,5c-3.5,0-6.3,2.8-6.3,6.3
				C343.4,409.3,341.1,411.6,338.4,411.6z"/>
			<path class="st5" d="M385.3,449.7c-2.8,0-5-2.2-5-5c0-3.5-2.8-6.3-6.3-6.3c-2.8,0-5-2.2-5-5s2.2-5,5-5c3.5,0,6.3-2.8,6.3-6.3
				c0-2.8,2.2-5,5-5s5,2.2,5,5c0,3.5,2.8,6.3,6.3,6.3c2.8,0,5,2.2,5,5s-2.2,5-5,5c-3.5,0-6.3,2.8-6.3,6.3
				C390.3,447.4,388.1,449.7,385.3,449.7z"/>
			<path class="st2" d="M98,100.9c-2.8,0-5-2.2-5-5c0-3.5-2.8-6.3-6.3-6.3c-2.8,0-5-2.2-5-5s2.2-5,5-5c3.5,0,6.3-2.8,6.3-6.3
				c0-2.8,2.2-5,5-5s5,2.2,5,5c0,3.5,2.8,6.3,6.3,6.3c2.8,0,5,2.2,5,5s-2.2,5-5,5c-3.5,0-6.3,2.8-6.3,6.3
				C103,98.6,100.8,100.9,98,100.9z"/>
			<path class="st5" d="M56.6,142.3c-1.3,0-2.6-0.5-3.5-1.5l-11.3-11.3c-2-2-2-5.1,0-7.1L53,111.2c0.9-0.9,2.2-1.5,3.5-1.5
				s2.6,0.5,3.5,1.5l11.3,11.3c0.9,0.9,1.5,2.2,1.5,3.5s-0.5,2.6-1.5,3.5l-11.3,11.3C59.2,141.8,57.9,142.3,56.6,142.3L56.6,142.3z
				 M52.3,126l4.2,4.2l4.2-4.2l-4.2-4.2L52.3,126z"/>
			<path class="st6" d="M424.2,417.7c-1.3,0-2.6-0.5-3.5-1.5L409.3,405c-0.9-0.9-1.5-2.2-1.5-3.5s0.5-2.6,1.5-3.5l11.3-11.3
				c2-2,5.1-2,7.1,0l11.3,11.3c0.9,0.9,1.5,2.2,1.5,3.5S440,404,439,405l-11.3,11.3C426.7,417.3,425.4,417.7,424.2,417.7z
				 M419.9,401.4l4.2,4.2l4.2-4.2l-4.2-4.2L419.9,401.4z"/>
			<g class="st7">
				<g>
					<path class="st8" d="M78.5,477.4c-11.8,0-21.3-9.6-21.3-21.3c0-11.8,9.6-21.3,21.3-21.3s21.3,9.6,21.3,21.3
						C99.9,467.9,90.3,477.4,78.5,477.4z M78.5,449c-3.9,0-7.1,3.2-7.1,7.1c0,3.9,3.2,7.1,7.1,7.1c3.9,0,7.1-3.2,7.1-7.1
						C85.7,452.2,82.5,449,78.5,449z"/>
					<path class="st8" d="M415.3,65.6h14.2V94h-14.2V65.6z"/>
					<path class="st8" d="M415.3,147.3h14.2v28.4h-14.2V147.3z"/>
					<path class="st8" d="M365.6,111.8H394V126h-28.4V111.8z"/>
					<path class="st8" d="M447.3,111.8h28.4V126h-28.4V111.8z"/>
				</g>
				<path class="st8" d="M96.7,243.3l160,53.3l160-53.3H96.7z"/>
				<path class="st8" d="M388.3,410.4H125.2c-15.7,0-28.4-12.7-28.4-28.4V218.4c0-15.7,12.7-28.4,28.4-28.4h263.1
					c15.7,0,28.4,12.7,28.4,28.4V382C416.7,397.7,404,410.4,388.3,410.4z"/>
				<path class="st8" d="M256.7,307.3c-1.1,0-2.3-0.2-3.4-0.6l-160-53.3l6.8-20.2l156.6,52.2l156.6-52.2l6.8,20.2l-160,53.3
					C259,307.1,257.9,307.3,256.7,307.3z"/>
				<path class="st8" d="M388.3,421.1H125.2c-21.6,0-39.1-17.5-39.1-39.1V218.4c0-21.6,17.5-39.1,39.1-39.1h263.1
					c21.6,0,39.1,17.5,39.1,39.1v81.8h-21.3v-81.8c0-9.8-8-17.8-17.8-17.8H125.2c-9.8,0-17.8,8-17.8,17.8V382
					c0,9.8,8,17.8,17.8,17.8h263.1c9.8,0,17.8-8,17.8-17.8v-44.9h21.3V382C427.4,403.6,409.9,421.1,388.3,421.1z"/>
				<path class="st8" d="M313.6,190h-21.3v-28.4c0-2-1.6-3.6-3.6-3.6h-64c-2,0-3.6,1.6-3.6,3.6V190h-21.3v-28.4
					c0-13.7,11.2-24.9,24.9-24.9h64c13.7,0,24.9,11.2,24.9,24.9V190z"/>
			</g>
			<g>
				<g>
					<path class="st9" d="M68.5,462.4c-11.8,0-21.3-9.6-21.3-21.3c0-11.8,9.6-21.3,21.3-21.3s21.3,9.6,21.3,21.3
						C89.9,452.9,80.3,462.4,68.5,462.4z M68.5,434c-3.9,0-7.1,3.2-7.1,7.1c0,3.9,3.2,7.1,7.1,7.1c3.9,0,7.1-3.2,7.1-7.1
						C75.7,437.2,72.5,434,68.5,434z"/>
					<path class="st9" d="M405.3,50.6h14.2V79h-14.2V50.6z"/>
					<path class="st9" d="M405.3,132.3h14.2v28.4h-14.2V132.3z"/>
					<path class="st9" d="M355.6,96.8H384V111h-28.4V96.8z"/>
					<path class="st9" d="M437.3,96.8h28.4V111h-28.4V96.8z"/>
				</g>
				<path class="st10" d="M86.7,228.3l160,53.3l160-53.3H86.7z"/>
				<path class="st2" d="M378.3,395.4H115.2c-15.7,0-28.4-12.7-28.4-28.4V203.4c0-15.7,12.7-28.4,28.4-28.4h263.1
					c15.7,0,28.4,12.7,28.4,28.4V367C406.7,382.7,394,395.4,378.3,395.4z"/>
				<path class="st8" d="M246.7,292.3c-1.1,0-2.3-0.2-3.4-0.6l-160-53.3l6.8-20.2l156.6,52.2l156.6-52.2l6.8,20.2l-160,53.3
					C249,292.1,247.9,292.3,246.7,292.3z"/>
				<path class="st8" d="M378.3,406.1H115.2c-21.6,0-39.1-17.5-39.1-39.1V203.4c0-21.6,17.5-39.1,39.1-39.1h263.1
					c21.6,0,39.1,17.5,39.1,39.1v81.8h-21.3v-81.8c0-9.8-8-17.8-17.8-17.8H115.2c-9.8,0-17.8,8-17.8,17.8V367
					c0,9.8,8,17.8,17.8,17.8h263.1c9.8,0,17.8-8,17.8-17.8v-44.9h21.3V367C417.4,388.6,399.9,406.1,378.3,406.1z"/>
				<path class="st8" d="M303.6,175h-21.3v-28.4c0-2-1.6-3.6-3.6-3.6h-64c-2,0-3.6,1.6-3.6,3.6V175h-21.3v-28.4
					c0-13.7,11.2-24.9,24.9-24.9h64c13.7,0,24.9,11.2,24.9,24.9V175z"/>
			</g>
		</g>
	</g>
	<g>
		<path class="st8" d="M-75.3-12.4C-89.9-24.5-107.7-31-126.8-31l-0.6,0c-21.8,0.2-42.2,8.8-57.4,24.5c-30.2,31-30.2,81.5,0,112.6
			c15.2,15.6,35.6,24.3,57.4,24.5c0.2,0,0.3,0,0.5,0c21.5,0,41.7-8.3,57-23.5c1.4-1.4,1.9-3.6,1.1-5.5c-3.1-7.5-4.7-15.5-4.7-23.6
			V-8.6C-73.5-10.1-74.2-11.5-75.3-12.4L-75.3-12.4z M-126.9,120.6c-0.1,0-0.3,0-0.4,0c-19.1-0.1-36.9-7.8-50.3-21.5
			c-26.4-27.2-26.4-71.4,0-98.6c13.3-13.7,31.2-21.3,50.3-21.4l0.5,0c15.9,0,30.9,5.1,43.3,14.8V78c0,8.3,1.4,16.5,4.2,24.2
			C-92.4,114.1-109.1,120.6-126.9,120.6L-126.9,120.6z"/>
		<path class="st8" d="M-468.5-224.3c0-30-24.4-54.4-54.4-54.4c-29,0-52.7,22.8-54.3,51.4c-30.3-19.5-65.1-29.8-101.2-29.8h-0.3
			c-50.5,0.1-97.9,19.8-133.6,55.5c-35.7,35.7-55.3,83.2-55.3,133.7c0,31.1,7.7,61.8,22.3,89.1c-10.6,9.9-17.2,24-17.2,39.6
			c0,30,24.4,54.4,54.4,54.4c28.5,0,51.9-22,54.2-49.8c23,13.1,49,20,75.6,20c7.2,0,13,5.8,13,13c0,7.2-5.8,13-13,13
			c-18.8,0-37.4-2.9-55.1-8.7c-2.6-0.9-5.4,0.6-6.3,3.2c-0.9,2.6,0.6,5.4,3.2,6.3c18.7,6.1,38.3,9.1,58.2,9.1c12.7,0,23-10.3,23-23
			c0-12.7-10.3-23-23-23c-27,0-53.2-7.6-75.9-21.8c-3.2-24-22.2-43.1-46.1-46.5c-13.9-22.5-21.2-48.4-21.2-75
			c0-78.9,64.2-143.1,143-143.3h0.3c37.6,0,73.3,14.9,100.4,42C-550.2-141.5-535-105-535-66.4v26.8c0,14.3-11.6,25.9-25.9,25.9
			s-25.9-11.6-25.9-25.9v-32.8c0-2.8-2.2-5-5-5c-2.8,0-5,2.2-5,5v32.8c0,19.8,16.1,35.9,35.9,35.9S-525-19.8-525-39.6v-26.8
			c0-41.3-16.3-80.3-45.8-109.8c-29-29-67.2-44.9-107.5-44.9h-0.3c-84.4,0.2-153,68.9-153,153.3c0,26.2,6.7,51.8,19.4,74.6
			c-9.2,0.7-17.7,3.6-25,8.3c-13.3-25.5-20.4-54-20.4-82.9c0-47.8,18.6-92.8,52.4-126.7c33.8-33.8,78.7-52.5,126.5-52.6h0.3
			c36.6,0,71.8,11.2,101.8,32.3c0,0,0.1,0,0.1,0.1c4,22.4,21.7,40,44.1,44c21.8,30.6,33.3,66.7,33.3,104.4v26.8
			c0,34.1-27.8,61.9-61.9,61.9c-13.2,0-25.8-4.1-36.5-11.9c-1.9-1.4-4.6-1.3-6.3,0.4c-19.7,18.2-45.4,28.2-72.3,28.2l-0.8,0
			c-28.8-0.2-55.7-11.7-75.8-32.3c-19.4-20-30.1-46.4-30.1-74.4c0-28,10.7-54.5,30.1-74.4c20.1-20.7,47-32.1,75.8-32.3
			c0.3,0,0.5,0,0.8,0c28.5,0,55.2,11.1,75.4,31.3c2.5,2.5,3.8,5.7,3.8,9.2v28c0,2.8,2.2,5,5,5c2.8,0,5-2.2,5-5v-28
			c0-6.1-2.4-11.9-6.7-16.3c-22.1-22.1-51.3-34.2-82.5-34.2c-0.3,0-0.6,0-0.9,0c-31.5,0.2-60.9,12.8-82.9,35.4
			c-21.2,21.8-32.9,50.7-32.9,81.4s11.7,59.6,32.9,81.4c22,22.6,51.4,35.2,82.9,35.4l0.8,0c28.1,0,55-10,76.1-28.2
			c11.6,7.6,25.1,11.6,39,11.6c39.6,0,71.9-32.2,71.9-71.9v-26.8c0-37.1-10.6-72.7-30.7-103.6C-491.2-171.7-468.5-195.4-468.5-224.3
			L-468.5-224.3z M-763.7,60.9c0,24.5-19.9,44.4-44.4,44.4c-24.5,0-44.4-19.9-44.4-44.4s19.9-44.4,44.4-44.4
			C-783.6,16.6-763.7,36.5-763.7,60.9z M-522.8-179.9c-24.5,0-44.4-19.9-44.4-44.4s19.9-44.4,44.4-44.4c24.5,0,44.4,19.9,44.4,44.4
			S-498.4-179.9-522.8-179.9z"/>
	</g>
</g>
</svg>
