<?xml version="1.0" encoding="utf-8"?>
<!-- Generator: Adobe Illustrator 24.0.0, SVG Export Plug-In . SVG Version: 6.00 Build 0)  -->
<svg version="1.1" id="Capa_1" xmlns="http://www.w3.org/2000/svg" xmlns:xlink="http://www.w3.org/1999/xlink" x="0px" y="0px"
	 viewBox="0 0 512 512" style="enable-background:new 0 0 512 512;" xml:space="preserve">
<style type="text/css">
	.st0{fill:url(#SVGID_1_);}
	.st1{display:none;}
	.st2{display:inline;opacity:0.15;}
	.st3{fill:#2626BC;}
	.st4{display:inline;}
	.st5{fill:#6583FE;}
	.st6{fill:#FFFFFF;}
	.st7{fill:#FF7EB8;}
	.st8{fill:#4369FD;}
	.st9{display:inline;fill:#FF7EB8;}
	.st10{fill:#01ECA5;}
	.st11{display:none;fill:#2626BC;}
</style>
<g>
	<g>
		<g>
			
				<linearGradient id="SVGID_1_" gradientUnits="userSpaceOnUse" x1="53.9761" y1="258.0004" x2="458.025" y2="258.0004" gradientTransform="matrix(1 0 0 -1 0 514)">
				<stop  offset="0" style="stop-color:#FFDBED"/>
				<stop  offset="1" style="stop-color:#DCFDEE"/>
			</linearGradient>
			<path class="st0" d="M170.1,0.4C102,4.8,35.9,61.5,58.5,135.5c18.3,59.7,84.7,87.7,134.7,115.7c47.9,26.8,98.6,60.2,112,117.2
				c9.2,39.2-2.1,84.9,22,117.2c42.3,56.7,124.1,13.6,130.3-47.3c5.2-50.5-31.5-94.7-65.8-132.2c-33.3-36.3-70.5-71.4-100-110.8
				c-27.3-36.6-41.6-82-5.4-118.2c8.1-8.1,17.8-16.5,14.9-29.7C291.4,3.9,203.4-1.8,170.1,0.4L170.1,0.4z"/>
		</g>
		<g>
			<g class="st1">
				<g class="st2">
					<path class="st3" d="M401.7,133.7l21.3,4.9c0.4,0.1,0.8,0.1,1.1,0.1c1.9,0,3.7-1.1,4.6-2.9l1.4-3.1l20.9,4.3
						c2.7,0.6,5.3-1.2,5.9-3.9s-1.2-5.3-3.9-5.9l-24.8-5.1c-2.3-0.5-4.6,0.7-5.5,2.8l-1.4,3l-17.3-4c-2.7-0.6-5.4,1.1-6,3.7
						C397.3,130.4,399,133.1,401.7,133.7L401.7,133.7z"/>
					<path class="st3" d="M402.8,109.1c0.9,0,1.8-0.2,2.6-0.8L424,96.7c2-1.3,2.9-3.8,2-6l-1.2-3.2l17.8-11.8
						c2.3-1.5,2.9-4.6,1.4-6.9c-1.5-2.3-4.6-2.9-6.9-1.4l-21.1,14c-1.9,1.3-2.7,3.7-1.9,5.9l1.1,3.1l-15.1,9.4
						c-2.3,1.5-3.1,4.5-1.6,6.9C399.5,108.2,401.1,109.1,402.8,109.1L402.8,109.1z"/>
					<path class="st3" d="M416,179.4l21.1,14c0.8,0.6,1.8,0.8,2.8,0.8c1.6,0,3.2-0.8,4.2-2.2c1.5-2.3,0.9-5.4-1.4-6.9l-17.8-11.8
						l1.2-3.2c0.8-2.2,0-4.7-2-6l-18.5-11.6c-2.3-1.5-5.4-0.8-6.9,1.6c-1.5,2.3-0.8,5.4,1.6,6.9l15.1,9.4l-1.1,3.1
						C413.3,175.7,414.1,178.2,416,179.4L416,179.4z"/>
					<path class="st3" d="M114.5,414.3l-21.3-4.9c-2.3-0.5-4.7,0.6-5.7,2.8l-1.4,3.1l-20.9-4.3c-2.7-0.6-5.3,1.2-5.9,3.9
						s1.2,5.3,3.9,5.9l24.8,5.1c0.3,0.1,0.7,0.1,1,0.1c1.9,0,3.7-1.1,4.6-2.9l1.4-3l17.3,4c2.7,0.6,5.4-1.1,6-3.7
						C118.8,417.6,117.1,414.9,114.5,414.3L114.5,414.3z"/>
					<path class="st3" d="M110.7,439.7l-18.5,11.6c-2,1.3-2.9,3.8-2,6l1.2,3.2l-17.8,11.8c-2.3,1.5-2.9,4.6-1.4,6.9
						c1,1.5,2.6,2.2,4.2,2.2c0.9,0,1.9-0.3,2.8-0.8l21.1-14c1.9-1.3,2.7-3.7,1.9-5.9l-1.1-3.1l15.1-9.4c2.3-1.5,3.1-4.5,1.6-6.9
						C116.1,438.9,113,438.2,110.7,439.7L110.7,439.7z"/>
					<path class="st3" d="M100.1,368.6l-21.1-14c-2.3-1.5-5.4-0.9-6.9,1.4c-1.5,2.3-0.9,5.4,1.4,6.9l17.8,11.8l-1.2,3.2
						c-0.8,2.2,0,4.7,2,6l18.5,11.6c0.8,0.5,1.7,0.8,2.6,0.8c1.7,0,3.3-0.8,4.2-2.4c1.5-2.3,0.8-5.4-1.6-6.9l-15.1-9.4l1.1-3.1
						C102.9,372.3,102.1,369.8,100.1,368.6L100.1,368.6z"/>
					<path class="st3" d="M380.2,269h-20.8v-2c0-8.3-6.7-15-15-15H171.7c-8.3,0-15,6.7-15,15v2h-20.8c-36.8,0-66.8-30-66.8-66.8
						s30-66.8,66.8-66.8h24.6v1.4c0,8.3,6.7,15,15,15H187v12.9c0,7.1,4.8,13.2,11.8,14.8c0,0,158.1,36.9,159.4,36.9
						c20,0,25.3-56.3,25.3-86s-5.3-86-25.3-86c0,0,0,0,0,0c0,0,0,0,0,0c-1.4,0-159.4,36.9-159.4,36.9C191.9,82.9,187,89,187,96.1
						v12.9h-11.5c-8.3,0-15,6.7-15,15v1.4h-24.6c-42.3,0-76.8,34.4-76.8,76.8S93.6,279,135.9,279h20.8v2c0,8.3,6.7,15,15,15h172.8
						c8.3,0,15-6.7,15-15v-2h20.8c36.8,0,66.8,30,66.8,66.8s-30,66.8-66.8,66.8h-24.6v-1.4c0-8.3-6.7-15-15-15h-11.5v-12.9
						c0-7.1-4.8-13.2-11.8-14.8c0,0-158-36.9-159.4-36.9c0,0,0,0-0.1,0c0,0,0,0,0,0c-20,0-25.3,56.3-25.3,86s5.3,86,25.3,86
						c1.4,0,159.4-36.9,159.4-36.9c6.9-1.6,11.8-7.7,11.8-14.8v-12.9h11.5c8.3,0,15-6.7,15-15v-1.4h24.6c42.3,0,76.8-34.4,76.8-76.8
						S422.5,269,380.2,269L380.2,269z"/>
				</g>
				<g class="st4">
					<g>
						<g>
							<g>
								<path class="st5" d="M210.2,122.8h-34.8c-5.5,0-10-4.5-10-10v-12.8c0-5.5,4.5-10,10-10h34.8V122.8z"/>
								<g>
									<path class="st6" d="M192,72.1v68.6c0,4.8,3.3,8.9,7.9,10l158.3,36.7V25.4L199.9,62.2C195.3,63.2,192,67.4,192,72.1
										L192,72.1z"/>
									<g>
										<path class="st7" d="M250.7,64.5c0,12.1-9.8,21.9-21.9,21.9s-21.9-9.8-21.9-21.9c0-1.4,0.1-2.8,0.4-4.1l39-9.1
											C249.1,55.1,250.7,59.6,250.7,64.5z"/>
										<path class="st7" d="M332.7,37.5c0,12.1-9.8,21.9-21.9,21.9c-10.8,0-19.7-7.8-21.5-18l42.6-9.9
											C332.4,33.4,332.7,35.5,332.7,37.5z"/>
										<path class="st7" d="M252.9,147.3c0,5.5-2.1,10.6-5.5,14.5l-37.5-8.7c-0.5-1.8-0.8-3.8-0.8-5.8c0-12.1,9.8-21.9,21.9-21.9
											C243.1,125.4,252.9,135.2,252.9,147.3z"/>
										<circle class="st7" cx="332.7" cy="143.6" r="21.9"/>
									</g>
									<ellipse class="st5" cx="358.2" cy="106.4" rx="20.3" ry="81"/>
									<path class="st5" d="M378.5,106.4c0,44.8-9.1,81-20.3,81c-3.7,0-7.2-3.9-10.1-10.9c-6.1-14-10.1-40.2-10.1-70.2
										s4.1-56.2,10.1-70.2c3-6.9,6.4-10.9,10.1-10.9C369.4,25.4,378.5,61.7,378.5,106.4z"/>
									<ellipse class="st8" cx="348.1" cy="106.4" rx="10.1" ry="70.2"/>
									<circle class="st7" cx="280" cy="103.5" r="21.9"/>
								</g>
							</g>
						</g>
					</g>
					<g>
						<g>
							<path class="st5" d="M305.9,377.2h34.8c5.5,0,10,4.5,10,10v12.8c0,5.5-4.5,10-10,10h-34.8V377.2z"/>
							<g>
								<path class="st6" d="M324.1,427.9v-68.6c0-4.8-3.3-8.9-7.9-10l-158.3-36.7v162.1l158.3-36.7
									C320.8,436.8,324.1,432.6,324.1,427.9z"/>
								<g>
									<path class="st7" d="M265.4,435.5c0-12.1,9.8-21.9,21.9-21.9s21.9,9.8,21.9,21.9c0,1.4-0.1,2.8-0.4,4.1l-39,9.1
										C267.1,444.9,265.4,440.4,265.4,435.5L265.4,435.5z"/>
									<path class="st7" d="M183.4,462.5c0-12.1,9.8-21.9,21.9-21.9c10.8,0,19.7,7.8,21.5,18l-42.6,9.9
										C183.7,466.6,183.4,464.5,183.4,462.5L183.4,462.5z"/>
									<path class="st7" d="M263.2,352.7c0-5.5,2.1-10.6,5.5-14.5l37.5,8.7c0.5,1.8,0.8,3.8,0.8,5.8c0,12.1-9.8,21.9-21.9,21.9
										C273,374.6,263.2,364.8,263.2,352.7L263.2,352.7z"/>
									<circle class="st7" cx="183.4" cy="356.4" r="21.9"/>
								</g>
								<ellipse class="st5" cx="157.9" cy="393.6" rx="20.3" ry="81"/>
								<path class="st5" d="M137.6,393.6c0-44.8,9.1-81,20.3-81c3.7,0,7.2,4,10.1,10.9c6.1,14,10.1,40.2,10.1,70.2
									s-4.1,56.2-10.1,70.2c-3,6.9-6.4,10.9-10.1,10.9C146.7,474.6,137.6,438.3,137.6,393.6z"/>
								<ellipse class="st8" cx="168" cy="393.6" rx="10.1" ry="70.2"/>
								
									<ellipse transform="matrix(0.1602 -0.9871 0.9871 0.1602 -193.0673 566.0426)" class="st7" cx="236.1" cy="396.5" rx="21.9" ry="21.9"/>
							</g>
						</g>
					</g>
				</g>
				<path class="st9" d="M344.4,267H171.7c-5.5,0-10-4.5-10-10v-14c0-5.5,4.5-10,10-10h172.8c5.5,0,10,4.5,10,10v14
					C354.4,262.5,350,267,344.4,267z"/>
			</g>
			<path class="st10" d="M452,249c-2.8,0-5-2.2-5-5c0-3.3-2.7-6-6-6c-2.8,0-5-2.2-5-5s2.2-5,5-5c3.3,0,6-2.7,6-6c0-2.8,2.2-5,5-5
				s5,2.2,5,5c0,3.3,2.7,6,6,6c2.8,0,5,2.2,5,5s-2.2,5-5,5c-3.3,0-6,2.7-6,6C457,246.8,454.7,249,452,249z"/>
			<path class="st5" d="M129.3,63.6c-2.8,0-5-2.2-5-5c0-3.3-2.7-6-6-6c-2.8,0-5-2.2-5-5s2.2-5,5-5c3.3,0,6-2.7,6-6c0-2.8,2.2-5,5-5
				s5,2.2,5,5c0,3.3,2.7,6,6,6c2.8,0,5,2.2,5,5s-2.2,5-5,5c-3.3,0-6,2.7-6,6C134.3,61.4,132.1,63.6,129.3,63.6z"/>
			<path class="st7" d="M60,314.7c-2.8,0-5-2.2-5-5c0-3.3-2.7-6-6-6c-2.8,0-5-2.2-5-5s2.2-5,5-5c3.3,0,6-2.7,6-6c0-2.8,2.2-5,5-5
				s5,2.2,5,5c0,3.3,2.7,6,6,6c2.8,0,5,2.2,5,5s-2.2,5-5,5c-3.3,0-6,2.7-6,6C65,312.4,62.8,314.7,60,314.7z"/>
			<path class="st7" d="M378.5,470.5c-1.3,0-2.6-0.5-3.5-1.5l-11-11c-2-2-2-5.1,0-7.1l11-11c2-2,5.1-2,7.1,0l11,11c2,2,2,5.1,0,7.1
				l-11,11C381.1,470,379.8,470.5,378.5,470.5z M374.6,454.5l3.9,3.9l3.9-3.9l-3.9-3.9L374.6,454.5z"/>
			<path class="st5" d="M389.5,328.5c-1.3,0-2.6-0.5-3.5-1.5l-11-11c-2-2-2-5.1,0-7.1l11-11c2-2,5.1-2,7.1,0l11,11c2,2,2,5.1,0,7.1
				l-11,11C392.1,328,390.8,328.5,389.5,328.5z M385.6,312.5l3.9,3.9l3.9-3.9l-3.9-3.9L385.6,312.5z"/>
		</g>
	</g>
	<g>
		<path class="st11" d="M401.7,109.7l21.3,4.9c0.4,0.1,0.8,0.1,1.1,0.1c1.9,0,3.7-1.1,4.6-2.9l1.4-3.1l20.9,4.3
			c2.7,0.6,5.3-1.2,5.9-3.9s-1.2-5.3-3.9-5.9l-24.8-5.1c-2.3-0.5-4.6,0.7-5.5,2.8l-1.4,3l-17.3-4c-2.7-0.6-5.4,1.1-6,3.7
			C397.3,106.4,399,109.1,401.7,109.7L401.7,109.7z"/>
		<path class="st11" d="M402.8,85.1c0.9,0,1.8-0.2,2.6-0.8L424,72.7c2-1.3,2.9-3.8,2-6l-1.2-3.2l17.8-11.8c2.3-1.5,2.9-4.6,1.4-6.9
			c-1.5-2.3-4.6-2.9-6.9-1.4l-21.1,14c-1.9,1.3-2.7,3.7-1.9,5.9l1.1,3.1l-15.1,9.4c-2.3,1.5-3.1,4.5-1.6,6.9
			C399.5,84.2,401.1,85.1,402.8,85.1L402.8,85.1z"/>
		<path class="st11" d="M424,140.1l-18.5-11.6c-2.3-1.5-5.4-0.8-6.9,1.6c-1.5,2.3-0.8,5.4,1.6,6.9l15.1,9.4l-1.1,3.1
			c-0.8,2.2,0,4.6,1.9,5.9l21.1,14c0.8,0.6,1.8,0.8,2.8,0.8c1.6,0,3.2-0.8,4.2-2.2c1.5-2.3,0.9-5.4-1.4-6.9l-17.8-11.8l1.2-3.2
			C426.9,143.9,426,141.4,424,140.1L424,140.1z"/>
		<path class="st11" d="M158.5,469.3l-0.9,0.2c-1.1-0.5-4.4-3.6-7.8-14.8c-3.4-11.3-5.9-27.3-6.8-44.8c-0.1-2.8-2.5-4.9-5.3-4.7
			c-2.8,0.1-4.9,2.5-4.7,5.3c0.6,11.5,4.6,69.1,24.8,69.2c0,0,0,0,0,0c0,0,0,0,0.1,0c1.3,0,2.6-0.3,3.8-0.8l155.5-36.1
			c6.9-1.6,11.8-7.7,11.8-14.8v-12.9h11.5c8.3,0,15-6.7,15-15v-1.4h24.6c42.3,0,76.8-34.4,76.8-76.8S422.5,245,380.2,245h-20.8v-2
			c0-8.3-6.7-15-15-15H239.2c-2.8,0-5,2.2-5,5s2.2,5,5,5h105.3c2.8,0,5,2.2,5,5v14c0,2.8-2.2,5-5,5H171.7c-2.8,0-5-2.2-5-5v-14
			c0-2.8,2.2-5,5-5h33.8c2.8,0,5-2.2,5-5s-2.2-5-5-5h-33.8c-8.3,0-15,6.7-15,15v2h-20.8c-36.8,0-66.8-30-66.8-66.8
			s30-66.8,66.8-66.8h24.6v1.4c0,8.3,6.7,15,15,15H187v12.9c0,7.1,4.8,13.2,11.8,14.8l155.5,36.1c1.2,0.5,2.5,0.8,3.8,0.8
			c0,0,0,0,0.1,0c0,0,0,0,0,0c20-0.1,25.2-56.3,25.2-86c0-29.8-5.3-86-25.3-86c0,0-0.1,0-0.1,0c0,0-0.1,0-0.1,0
			c-1.3,0-2.5,0.3-3.7,0.8L198.8,57.3C191.9,58.9,187,65,187,72.1v12.9h-11.5c-8.3,0-15,6.7-15,15v1.4h-24.6
			c-42.3,0-76.8,34.4-76.8,76.8S93.6,255,135.9,255h20.8v2c0,8.3,6.7,15,15,15h172.8c8.3,0,15-6.7,15-15v-2h20.8
			c36.8,0,66.8,30,66.8,66.8s-30,66.8-66.8,66.8h-24.6v-1.4c0-8.3-6.7-15-15-15h-11.5v-12.9c0-7.1-4.8-13.2-11.8-14.8l-155.5-36.1
			c-1.2-0.5-2.4-0.7-3.7-0.8c0,0-0.1,0-0.1,0c0,0-0.1,0-0.1,0c-20.1,0-24.2,57.2-24.8,68.7c-0.1,2.8,2,5.1,4.7,5.3
			c2.8,0.1,5.1-2,5.3-4.7c0.9-17.5,3.3-33.3,6.8-44.5c3.4-11.1,6.7-14.2,7.8-14.7l0.9,0.2c1.6,1.1,5.4,5.8,8.8,19.7
			c3.7,14.9,5.8,34.8,5.8,56.1s-2.1,41.2-5.8,56.1C163.9,463.5,160.1,468.2,158.5,469.3L158.5,469.3z M367.7,50.4
			c3.7,14.9,5.8,34.8,5.8,56.1s-2.1,41.2-5.8,56.1c-3.8,15.1-7.9,19.3-9.2,19.9l-0.9-0.2c-1.6-1.1-5.4-5.8-8.8-19.7
			c-3.7-14.9-5.8-34.8-5.8-56.1s2.1-41.2,5.8-56.1c3.5-13.9,7.2-18.6,8.8-19.7l0.9-0.2C359.8,31,363.9,35.2,367.7,50.4z M197,72.1
			c0-2.4,1.7-4.5,4-5.1l142.7-33.1c-8.2,18.5-10.8,51.9-10.8,72.5s2.5,54,10.8,72.5l-142.7-33.1c-2.4-0.6-4-2.6-4-5.1L197,72.1
			L197,72.1z M170.5,100.1c0-2.8,2.2-5,5-5H187v22.8h-11.5c-2.8,0-5-2.2-5-5V100.1z M340.6,382.2c2.8,0,5,2.2,5,5v12.8
			c0,2.8-2.2,5-5,5h-11.5v-22.8H340.6z M172.4,321l142.7,33.1c2.4,0.6,4,2.6,4,5.1v68.6c0,2.4-1.7,4.5-4,5.1l-142.7,33.1
			c8.2-18.5,10.8-51.9,10.8-72.5C183.2,372.9,180.6,339.6,172.4,321z"/>
		<path class="st11" d="M114.5,390.3l-21.3-4.9c-2.3-0.5-4.7,0.6-5.7,2.8l-1.4,3.1l-20.9-4.3c-2.7-0.6-5.3,1.2-5.9,3.9
			c-0.6,2.7,1.2,5.3,3.9,5.9l24.8,5.1c0.3,0.1,0.7,0.1,1,0.1c1.9,0,3.7-1.1,4.6-2.9l1.4-3l17.3,4c2.7,0.6,5.4-1.1,6-3.7
			C118.8,393.6,117.1,390.9,114.5,390.3L114.5,390.3z"/>
		<path class="st11" d="M117.6,417.3c-1.5-2.3-4.5-3.1-6.9-1.6l-18.5,11.6c-2,1.3-2.9,3.8-2,6l1.2,3.2l-17.8,11.8
			c-2.3,1.5-2.9,4.6-1.4,6.9c1,1.5,2.6,2.2,4.2,2.2c0.9,0,1.9-0.3,2.8-0.8l21.1-14c1.9-1.3,2.7-3.7,1.9-5.9l-1.1-3.1l15.1-9.4
			C118.3,422.7,119,419.6,117.6,417.3L117.6,417.3z"/>
		<path class="st11" d="M100.1,344.6l-21.1-14c-2.3-1.5-5.4-0.9-6.9,1.4c-1.5,2.3-0.9,5.4,1.4,6.9l17.8,11.8l-1.2,3.2
			c-0.8,2.2,0,4.7,2,6l18.5,11.6c0.8,0.5,1.7,0.8,2.6,0.8c1.7,0,3.3-0.8,4.2-2.4c1.5-2.3,0.8-5.4-1.6-6.9l-15.1-9.4l1.1-3.1
			C102.9,348.3,102.1,345.8,100.1,344.6L100.1,344.6z"/>
	</g>
</g>
<g>
	<path class="st8" d="M280.2,227.3c-8.1-17.1-25.5-28.9-45.7-28.9c-25.5,0-46.4,18.7-49.8,43.2h-0.6c-17.9,0-32.4,14.5-32.4,32.4
		c0,17.9,14.5,32.4,32.4,32.4h93.6c21.9,0,39.6-17.7,39.6-39.6C317.4,245.8,301,228.5,280.2,227.3z"/>
	<path class="st3" d="M277.8,317.2h-93.6c-23.8,0-43.2-19.4-43.2-43.2c0-21,15-38.5,34.9-42.4c7.5-25.6,31.4-44,58.7-44
		c21.6,0,41.5,11.5,52.5,29.7c23.5,4.3,41.1,24.9,41.1,49.5C328.2,294.6,305.6,317.2,277.8,317.2z M234.6,209.2
		c-19.6,0-36.4,14.6-39.1,33.9c-0.8,5.3-5.3,9.3-10.7,9.3c-12.5,0-22.2,9.7-22.2,21.6c0,11.9,9.7,21.6,21.6,21.6h93.6
		c15.9,0,28.8-12.9,28.8-28.8c0-15.3-11.9-27.8-27-28.7c-4-0.2-7.5-2.6-9.2-6.2C263.9,218.1,249.9,209.2,234.6,209.2L234.6,209.2z"
		/>
	<path class="st3" d="M234.6,418.7c-6,0-10.8-4.8-10.8-10.8s4.8-10.8,10.8-10.8c75.6,0,137.1-61.5,137.1-137.1
		c0-6,4.8-10.8,10.8-10.8s10.8,4.8,10.8,10.8C393.3,347.4,322.1,418.7,234.6,418.7L234.6,418.7z"/>
	<path class="st3" d="M374,221.7c-4.5,0-8.7-2.8-10.2-7.3c-19.1-54.8-71-91.7-129.2-91.7c-31.2,0-60.5,10.2-84.5,29.6
		c-4.7,3.7-11.4,3-15.2-1.7c-3.7-4.6-3-11.4,1.6-15.2c27.9-22.5,61.9-34.4,98.1-34.4c67.4,0,127.5,42.7,149.6,106.2
		c2,5.6-1,11.8-6.7,13.7C376.4,221.5,375.2,221.7,374,221.7L374,221.7z"/>
	<path class="st3" d="M185.3,410.1c-1.2,0-2.4-0.2-3.6-0.6c-63.3-22.2-105.9-82.3-105.9-149.6c0-32.1,9.5-62.8,27.4-88.8
		c3.4-4.9,10.1-6.2,15-2.8c4.9,3.4,6.1,10.1,2.8,15c-15.4,22.4-23.6,48.8-23.6,76.5c0,58.2,36.7,110.1,91.4,129.2
		c5.6,2,8.6,8.1,6.6,13.8C194,407.3,189.8,410.1,185.3,410.1L185.3,410.1z"/>
	<path class="st3" d="M255.7,446.8c-2.8,0-5.5-1.1-7.6-3.2l-28.2-28.2c-2-2-3.2-4.8-3.2-7.6s1.1-5.6,3.2-7.6l28.2-28.2
		c4.2-4.2,11.1-4.2,15.3,0c4.2,4.2,4.2,11.1,0,15.3l-20.5,20.6l20.5,20.5c4.2,4.2,4.2,11.1,0,15.3
		C261.2,445.8,258.5,446.8,255.7,446.8L255.7,446.8z"/>
	<path class="st3" d="M124.3,221.4c-4.8,0-9.1-3.2-10.4-8l-8.1-30.4l-30.4,8.1c-5.7,1.5-11.7-1.9-13.2-7.6
		c-1.5-5.8,1.9-11.7,7.6-13.2l40.8-10.9c2.8-0.7,5.7-0.4,8.2,1.1c2.5,1.4,4.3,3.8,5,6.6l10.9,40.8c1.5,5.8-1.9,11.7-7.6,13.2
		C126.2,221.3,125.2,221.4,124.3,221.4z"/>
	<path class="st3" d="M375.4,229.8c-1.8,0-3.7-0.5-5.4-1.5l-36.6-21.1c-5.2-3-6.9-9.6-3.9-14.7c3-5.2,9.6-6.9,14.7-3.9l27.2,15.7
		l15.7-27.2c3-5.2,9.6-6.9,14.7-3.9c5.2,3,6.9,9.6,3.9,14.7l-21.1,36.6C382.8,227.9,379.2,229.8,375.4,229.8L375.4,229.8z"/>
</g>
</svg>
