<?xml version="1.0" encoding="utf-8"?>
<!-- Generator: Adobe Illustrator 24.0.0, SVG Export Plug-In . SVG Version: 6.00 Build 0)  -->
<svg version="1.1" id="Capa_1" xmlns="http://www.w3.org/2000/svg" xmlns:xlink="http://www.w3.org/1999/xlink" x="0px" y="0px"
	 viewBox="0 0 512 512" style="enable-background:new 0 0 512 512;" xml:space="preserve">
<style type="text/css">
	.st0{fill:url(#SVGID_1_);}
	.st1{display:none;}
	.st2{display:inline;}
	.st3{opacity:0.1;fill:#0000CC;enable-background:new    ;}
	.st4{fill:#FFAB66;}
	.st5{fill:#FF9D33;}
	.st6{fill:#FFFFFF;}
	.st7{fill:#0000CC;}
	.st8{fill:#6C6CFF;}
	.st9{fill:#4D4DFF;}
	.st10{fill:#FF6C6C;}
	.st11{fill:#8383FF;}
	.st12{fill:#FF4D4D;}
	.st13{fill:#9BC9FF;}
	.st14{fill:#1E81CE;}
</style>
<linearGradient id="SVGID_1_" gradientUnits="userSpaceOnUse" x1="432.8226" y1="247.0367" x2="96.8226" y2="747.0367" gradientTransform="matrix(1 0 0 1 0 -250.711)">
	<stop  offset="8.000000e-03" style="stop-color:#FFE8DC;stop-opacity:0"/>
	<stop  offset="0.9977" style="stop-color:#FFC599"/>
</linearGradient>
<path class="st0" d="M512,325c0,77.2-114.6,139.8-256,139.8S0,402.2,0,325c0-12.5,3-24.6,8.6-36.1c10-20.5,12.5-43.8,7.5-66.1
	c-2-9.1-3.2-18.6-3.3-28.3c-1.2-77.8,62-142.1,139.8-142.1c58.4,0,108.5,35.9,129.4,86.8c11.5,28,35.6,48.9,65.2,55.1
	C443.5,214.4,512,265.3,512,325L512,325z"/>
<g>
	<g>
		<g class="st1">
			<g class="st2">
				<path class="st3" d="M413.3,463H98.7c-11,0-20-9-20-20V128.3c0-11,9-20,20-20h314.7c11,0,20,9,20,20V443
					C433.3,454,424.4,463,413.3,463z"/>
				<path class="st4" d="M413.3,436H98.7c-11,0-20-9-20-20V121.3c0-11,9-20,20-20h314.7c11,0,20,9,20,20V416
					C433.3,427,424.4,436,413.3,436z"/>
				<path class="st5" d="M433.3,354.6V101.3c0-11-9-20-20-20H98.7c-11,0-20,9-20,20v253.3H433.3z"/>
				<path class="st6" d="M433.3,338.4v-237c0-11-9-20-20-20H98.7c-11,0-20,9-20,20v237L433.3,338.4L433.3,338.4z"/>
				<g>
					<path class="st7" d="M413.3,441H98.7c-13.8,0-25-11.2-25-25V101.3c0-13.8,11.2-25,25-25H242c2.8,0,5,2.2,5,5s-2.2,5-5,5H98.7
						c-8.3,0-15,6.7-15,15V416c0,8.3,6.7,15,15,15h314.7c8.3,0,15-6.7,15-15v-78.7c0-2.8,2.2-5,5-5s5,2.2,5,5V416
						C438.3,429.8,427.1,441,413.3,441z"/>
				</g>
				<g>
					<path class="st7" d="M433.3,308.3c-2.8,0-5-2.2-5-5v-202c0-8.3-6.7-15-15-15H276c-2.8,0-5-2.2-5-5s2.2-5,5-5h137.3
						c13.8,0,25,11.2,25,25v202C438.3,306.1,436.1,308.3,433.3,308.3z"/>
				</g>
			</g>
			<g class="st2">
				<g>
					<path class="st8" d="M149.3,130.3V299c0,5.2-4.2,9.3-9.3,9.3s-9.3-4.2-9.3-9.3V130.3c0-5.2,4.2-9.3,9.3-9.3
						c2.6,0,4.9,1.1,6.6,2.7C148.3,125.4,149.3,127.7,149.3,130.3z"/>
					<path class="st9" d="M149.3,198.3v37.9c-3,0.7-6.1,1.1-9.3,1.1s-6.3-0.4-9.3-1.1v-37.9H149.3z"/>
					<circle class="st4" cx="140" cy="198.3" r="24"/>
				</g>
				<g>
					<path class="st8" d="M226.7,130.3V299c0,5.2-4.2,9.3-9.3,9.3c-5.1,0-9.3-4.2-9.3-9.3V130.3c0-5.2,4.2-9.3,9.3-9.3
						c2.6,0,4.9,1.1,6.6,2.7C225.6,125.4,226.7,127.7,226.7,130.3z"/>
					<path class="st9" d="M226.7,228.3v37.9c-3,0.7-6.1,1.1-9.3,1.1c-3.2,0-6.3-0.4-9.3-1.1v-37.9H226.7z"/>
					<circle class="st4" cx="217.3" cy="228.3" r="24"/>
				</g>
				<g>
					<path class="st8" d="M304,130.3V299c0,5.2-4.2,9.3-9.3,9.3c-5.2,0-9.3-4.2-9.3-9.3V130.3c0-5.2,4.2-9.3,9.3-9.3
						c2.6,0,4.9,1.1,6.6,2.7C303,125.4,304,127.7,304,130.3L304,130.3z"/>
					<path class="st9" d="M304,168.3v37.9c-3,0.7-6.1,1.1-9.3,1.1c-3.2,0-6.3-0.4-9.3-1.1v-37.9H304z"/>
					<circle class="st4" cx="294.7" cy="168.3" r="24"/>
				</g>
				<g>
					<path class="st8" d="M381.3,130.3V299c0,5.2-4.2,9.3-9.3,9.3s-9.3-4.2-9.3-9.3V130.3c0-5.2,4.2-9.3,9.3-9.3
						c2.6,0,4.9,1.1,6.6,2.7C380.3,125.4,381.3,127.7,381.3,130.3L381.3,130.3z"/>
					<path class="st9" d="M381.3,258.3v37.9c-3,0.7-6.1,1.1-9.3,1.1s-6.3-0.4-9.3-1.1v-37.9H381.3z"/>
					<circle class="st4" cx="372" cy="258.3" r="24"/>
				</g>
			</g>
			<g class="st2">
				<g>
					<g>
						<path class="st10" d="M134.5,379.6c-2.8,0-5.1-2.3-5.1-5.1v-3.6c0-2.8,2.3-5.1,5.1-5.1s5.1,2.3,5.1,5.1v3.6
							C139.6,377.3,137.3,379.6,134.5,379.6z"/>
					</g>
					<g>
						<path class="st10" d="M157.1,379.6c-2.8,0-5.1-2.3-5.1-5.1v-3.6c0-2.8,2.3-5.1,5.1-5.1s5.1,2.3,5.1,5.1v3.6
							C162.2,377.3,159.9,379.6,157.1,379.6z"/>
					</g>
					<g>
						<path class="st10" d="M179.7,379.6c-2.8,0-5.1-2.3-5.1-5.1v-3.6c0-2.8,2.3-5.1,5.1-5.1s5.1,2.3,5.1,5.1v3.6
							C184.8,377.3,182.5,379.6,179.7,379.6z"/>
					</g>
				</g>
				<g>
					<g>
						<path class="st10" d="M134.5,406c-2.8,0-5.1-2.3-5.1-5.1v-3.6c0-2.8,2.3-5.1,5.1-5.1s5.1,2.3,5.1,5.1v3.6
							C139.6,403.7,137.3,406,134.5,406z"/>
					</g>
					<g>
						<path class="st10" d="M157.1,406c-2.8,0-5.1-2.3-5.1-5.1v-3.6c0-2.8,2.3-5.1,5.1-5.1s5.1,2.3,5.1,5.1v3.6
							C162.2,403.7,159.9,406,157.1,406z"/>
					</g>
					<g>
						<path class="st10" d="M179.7,406c-2.8,0-5.1-2.3-5.1-5.1v-3.6c0-2.8,2.3-5.1,5.1-5.1s5.1,2.3,5.1,5.1v3.6
							C184.8,403.7,182.5,406,179.7,406z"/>
					</g>
				</g>
			</g>
			<g class="st2">
				<g>
					<circle class="st11" cx="337.6" cy="386.1" r="13.5"/>
					<circle class="st12" cx="379.5" cy="386.1" r="13.5"/>
				</g>
				<g>
					<path class="st6" d="M304.5,391.1H228c-2.8,0-5-2.2-5-5s2.2-5,5-5h76.5c2.8,0,5,2.2,5,5S307.3,391.1,304.5,391.1z"/>
				</g>
			</g>
		</g>
		<g>
			<path class="st5" d="M47.9,303.3c-7.2,0-13-5.8-13-13s5.8-13,13-13s13,5.8,13,13S55,303.3,47.9,303.3z M47.9,287.3
				c-1.7,0-3,1.4-3,3s1.4,3,3,3s3-1.4,3-3S49.5,287.3,47.9,287.3z"/>
		</g>
		<g>
			<path class="st8" d="M39.8,249.3c-7.2,0-13-5.8-13-13s5.8-13,13-13s13,5.8,13,13S47,249.3,39.8,249.3z M39.8,233.3
				c-1.7,0-3,1.4-3,3s1.4,3,3,3s3-1.4,3-3C42.9,234.7,41.5,233.3,39.8,233.3z"/>
		</g>
		<g>
			<path class="st10" d="M362.7,57.2c-1.3,0-2.6-0.5-3.5-1.5l-11-11c-2-2-2-5.1,0-7.1l11-11c2-2,5.1-2,7.1,0l11,11c2,2,2,5.1,0,7.1
				l-11,11C365.2,56.7,364,57.2,362.7,57.2z M358.7,41.2l3.9,3.9l3.9-3.9l-3.9-3.9L358.7,41.2z"/>
		</g>
		<g>
			<path class="st10" d="M470,173.3c-1.3,0-2.6-0.5-3.5-1.5l-11-11c-2-2-2-5.1,0-7.1l11-11c2-2,5.1-2,7.1,0l11,11c2,2,2,5.1,0,7.1
				l-11,11C472.6,172.8,471.3,173.3,470,173.3z M466.1,157.3l3.9,3.9l3.9-3.9l-3.9-3.9L466.1,157.3z"/>
		</g>
		<g>
			<path class="st5" d="M228.3,486.8c-1.3,0-2.6-0.5-3.5-1.5l-11-11c-2-2-2-5.1,0-7.1l11-11c2-2,5.1-2,7.1,0l11,11c2,2,2,5.1,0,7.1
				l-11,11C230.9,486.3,229.6,486.8,228.3,486.8z M224.4,470.8l3.9,3.9l3.9-3.9l-3.9-3.9L224.4,470.8z"/>
		</g>
	</g>
</g>
<path class="st13" d="M248,137.3c-88.4,0-160,71.6-160,160c0-22.1,17.9-40,40-40c22.1,0,40,17.9,40,40c0-22.1,17.9-40,40-40
	c22.1,0,40,17.9,40,40c0-22.1,17.9-40,40-40c22.1,0,40,17.9,40,40c0-22.1,17.9-40,40-40c22.1,0,40,17.9,40,40
	C408,208.9,336.4,137.2,248,137.3z"/>
<g>
	<path class="st14" d="M256,127.7v-8.4c0-4.4-3.6-8-8-8c-4.4,0-8,3.6-8,8v8.4c-89.5,4.3-159.8,78-160,167.6c0,4.4,3.6,8,8,8
		s8-3.6,8-8c0-17.7,14.3-32,32-32c17.7,0,32,14.3,32,32c0,4.4,3.6,8,8,8c4.4,0,8-3.6,8-8c0-17.7,14.3-32,32-32c17.7,0,32,14.3,32,32
		v160c0,22.1,17.9,40,40,40c22.1,0,40-17.9,40-40v-32c0-4.4-3.6-8-8-8s-8,3.6-8,8v32c0,13.3-10.7,24-24,24c-13.3,0-24-10.7-24-24
		v-160c0-17.7,14.3-32,32-32c17.7,0,32,14.3,32,32c0,4.4,3.6,8,8,8s8-3.6,8-8c0-17.7,14.3-32,32-32c17.7,0,32,14.3,32,32
		c0,4.4,3.6,8,8,8c4.4,0,8-3.6,8-8C415.8,205.7,345.5,132,256,127.7z M368,247.2c-16.1,0-31.1,8.1-40,21.5
		c-8.9-13.4-23.9-21.5-40-21.5c-16.1,0-31.1,8.1-40,21.5c-8.9-13.4-23.9-21.5-40-21.5c-16.1,0-31.1,8.1-40,21.5
		c-7-10.6-18-18-30.6-20.6c-12.5-2.5-25.5,0.1-36.1,7.2c18-66.2,78.1-112.2,146.7-112.2s128.7,46,146.7,112.2
		C386.8,250.1,377.5,247.2,368,247.2z"/>
	<path class="st14" d="M248,87.3c-13.3,0-24-10.7-24-24c0-10.2,12.2-29,17.4-36.5l6.6-9.5l6.6,9.5C259.8,34.3,272,53,272,63.3
		C272,76.5,261.3,87.3,248,87.3z M248,46.1c-3.6,5.3-6.3,11.1-8,17.2c0,4.4,3.6,8,8,8c4.4,0,8-3.6,8-8
		C254.3,57.2,251.6,51.4,248,46.1z"/>
	<path class="st14" d="M344,119.3c-13.3,0-24-10.7-24-24c0-10.2,12.2-29,17.4-36.5l6.6-9.5l6.6,9.5C355.8,66.3,368,85,368,95.3
		C368,108.5,357.2,119.3,344,119.3z M344,78.1c-3.6,5.3-6.3,11.1-8,17.2c0,4.4,3.6,8,8,8c4.4,0,8-3.6,8-8
		C350.2,89.1,347.5,83.4,344,78.1z"/>
	<path class="st14" d="M152,119.3c-13.3,0-24-10.7-24-24c0-10.2,12.2-29,17.4-36.5l6.6-9.5l6.6,9.5C163.8,66.3,176,85,176,95.3
		C176,108.5,165.3,119.3,152,119.3z M144,95.3c0,4.4,3.6,8,8,8c4.4,0,8-3.6,8-8c-1.7-6.1-4.4-11.9-8-17.2
		C148.5,83.4,145.8,89.1,144,95.3z"/>
</g>
</svg>
